<svg height="399.99997mm" viewBox="0 0 400.00006 399.99997" width="400.00006mm" xmlns="http://www.w3.org/2000/svg" xmlns:xlink="http://www.w3.org/1999/xlink"><g transform="translate(-56.152087 -103.737645)"><g id="a"><g transform="matrix(-1 0 0 1 205.48497 32.700866)"><path d="m99.33287 121.03677h50v50h-50z" fill="#af7c59"/><path d="m49.332867 121.03677h50v50h-50z" fill="#f4eeaa"/></g><path d="m106.1521 103.737646h50v50h-50z" fill="#af7c59"/><path d="m56.15209 103.737646h50v50h-50z" fill="#f4eeaa"/></g><use height="100%" width="100%" xlink:href="#a"/><use height="100%" transform="translate(0 99.999993)" width="100%" xlink:href="#a"/><use height="100%" transform="translate(0 199.99999)" width="100%" xlink:href="#a"/><use height="100%" transform="translate(0 299.99998)" width="100%" xlink:href="#a"/><use height="100%" transform="translate(100.00001)" width="100%" xlink:href="#a"/><use height="100%" transform="translate(100.00001 99.999993)" width="100%" xlink:href="#a"/><use height="100%" transform="translate(100.00001 199.99999)" width="100%" xlink:href="#a"/><use height="100%" transform="translate(100.00001 299.99998)" width="100%" xlink:href="#a"/><use height="100%" transform="translate(200.00003)" width="100%" xlink:href="#a"/><use height="100%" transform="translate(200.00003 99.999993)" width="100%" xlink:href="#a"/><use height="100%" transform="translate(200.00003 199.99999)" width="100%" xlink:href="#a"/><use height="100%" transform="translate(200.00003 299.99998)" width="100%" xlink:href="#a"/><use height="100%" transform="translate(300.00004)" width="100%" xlink:href="#a"/><use height="100%" transform="translate(300.00004 99.999993)" width="100%" xlink:href="#a"/><use fill="#fff" height="100%" transform="translate(300.00004 199.99999)" width="100%" xlink:href="#a"/><use height="100%" transform="translate(300.00004 299.99998)" width="100%" xlink:href="#a"/></g></svg>