<svg viewBox="0 0 900 1000" xmlns="http://www.w3.org/2000/svg"><g stroke="#000"><path d="m0 0h900v1000h-900z" fill="#c79e59" stroke-width="2"/><path d="m0 0h900v1000h-900z" fill="none" stroke-width="2"/><path d="m50 50h800" stroke-width="2"/><path d="m50 150h800" stroke-width="2"/><path d="m50 250h800" stroke-width="2"/><path d="m50 350h800" stroke-width="2"/><path d="m50 450h800" stroke-width="2"/><path d="m50 550h800" stroke-width="2"/><path d="m50 650h800" stroke-width="2"/><path d="m50 750h800" stroke-width="2"/><path d="m50 850h800" stroke-width="2"/><path d="m50 950h800" stroke-width="2"/><path d="m50 50v900" stroke-width="2"/><path d="m150 50v500" stroke-width="2.5"/><path d="m250 50v500" stroke-width="2.5"/><path d="m350 50v500" stroke-width="2.5"/><path d="m450 50v500" stroke-width="2.5"/><path d="m550 50v500" stroke-width="2.5"/><path d="m650 50v500" stroke-width="2.5"/><path d="m750 50v500" stroke-width="2.5"/><path d="m850 50v900" stroke-width="2"/><path d="m150 550v400" stroke-width="2"/><path d="m250 550v400" stroke-width="2"/><path d="m350 550v400" stroke-width="2"/><path d="m450 550v400" stroke-width="2"/><path d="m550 550v400" stroke-width="2"/><path d="m650 550v400" stroke-width="2"/><path d="m750 550v400" stroke-width="2"/><path d="m350 50 200 200" stroke-width="2"/><path d="m350 250 200-200" stroke-width="2"/><path d="m350 750 200 200" stroke-width="2"/><path d="m350 950 200-200" stroke-width="2"/><g fill="none"><g stroke-width="4.777187" transform="matrix(.37004352 -.37004352 .37004352 .37004352 -30.588562 212.69002)"><path d="m194.00493 267.05086v53.55735"/><path d="m220.78361 293.82954h-26.83302-26.72433"/></g><path d="m194.00357 267.03134.022 26.60562-26.95929-.0298" stroke-width="4.791281" transform="matrix(.36895501 .36895501 .36895501 -.36895501 669.09224 386.60079)"/><g stroke-width="4.777186" transform="matrix(.37004352 -.37004352 .37004352 .37004352 69.663983 312.83642)"><path d="m194.00493 267.05086v53.55735"/><path d="m220.78361 293.82954h-26.83302-26.72433"/></g><g stroke-width="4.777186" transform="matrix(.37004352 -.37004352 .37004352 .37004352 569.35426 213.09268)"><path d="m194.00493 267.05086v53.55735"/><path d="m220.78361 293.82954h-26.83302-26.72433"/></g><g stroke-width="4.777186" transform="matrix(.37004352 -.37004352 .37004352 .37004352 469.57173 313.14669)"><path d="m194.00493 267.05086v53.55735"/><path d="m220.78361 293.82954h-26.83302-26.72433"/></g><g stroke-width="4.777186" transform="matrix(.37004352 -.37004352 .37004352 .37004352 269.38045 312.92867)"><path d="m194.00493 267.05086v53.55735"/><path d="m220.78361 293.82954h-26.83302-26.72433"/></g><path d="m194.00357 267.03134.022 26.60562-26.95929-.0298" stroke-width="4.791281" transform="matrix(-.36895501 .36895501 -.36895501 -.36895501 230.65382 386.71902)"/><g stroke-width="4.777186" transform="matrix(.37004352 .37004352 .37004352 -.37004352 -30.659693 787.04161)"><path d="m194.00493 267.05086v53.55735"/><path d="m220.78361 293.82954h-26.83302-26.72433"/></g><path d="m194.00357 267.03134.022 26.60562-26.95929-.0298" stroke-width="4.791281" transform="matrix(.36895501 -.36895501 .36895501 .36895501 669.021109 613.13084)"/><g stroke-width="4.777186" transform="matrix(.37004352 .37004352 .37004352 -.37004352 69.592852 686.89521)"><path d="m194.00493 267.05086v53.55735"/><path d="m220.78361 293.82954h-26.83302-26.72433"/></g><g stroke-width="4.777186" transform="matrix(.37004352 .37004352 .37004352 -.37004352 569.283129 786.63895)"><path d="m194.00493 267.05086v53.55735"/><path d="m220.78361 293.82954h-26.83302-26.72433"/></g><g stroke-width="4.777186" transform="matrix(.37004352 .37004352 .37004352 -.37004352 469.500599 686.58494)"><path d="m194.00493 267.05086v53.55735"/><path d="m220.78361 293.82954h-26.83302-26.72433"/></g><g stroke-width="4.777186" transform="matrix(.37004352 .37004352 .37004352 -.37004352 269.309319 686.80296)"><path d="m194.00493 267.05086v53.55735"/><path d="m220.78361 293.82954h-26.83302-26.72433"/></g><path d="m194.00357 267.03134.022 26.60562-26.95929-.0298" stroke-width="4.791281" transform="matrix(-.36895501 -.36895501 -.36895501 .36895501 230.582689 613.01261)"/></g></g></svg>