<svg height="388.13242mm" viewBox="0 0 388.13242 388.13242" width="388.13242mm" xmlns="http://www.w3.org/2000/svg" xmlns:xlink="http://www.w3.org/1999/xlink"><g transform="translate(-40.000811 -4.482933)"><path id="a" d="m40.375813 4.857937h47.766552v47.766552h-47.766552z" fill="#e3dcb7" stroke="#000" stroke-linecap="square" stroke-width=".75"/><g fill="#e3dcb7"><use height="100%" transform="translate(-.000002 -.000004)" width="100%" xlink:href="#a"/><use height="100%" transform="translate(-.000002 48.516556)" width="100%" xlink:href="#a"/><use height="100%" transform="translate(-.000002 97.033106)" width="100%" xlink:href="#a"/><use height="100%" transform="translate(-.000002 145.54966)" width="100%" xlink:href="#a"/><use height="100%" transform="translate(-.000002 194.06621)" width="100%" xlink:href="#a"/><use height="100%" transform="translate(-.000002 242.58276)" width="100%" xlink:href="#a"/><use height="100%" transform="translate(-.000002 291.09932)" width="100%" xlink:href="#a"/><use height="100%" transform="translate(-.000002 339.61587)" width="100%" xlink:href="#a"/><use height="100%" transform="translate(48.516548 -.000004)" width="100%" xlink:href="#a"/><use height="100%" transform="translate(48.516548 48.516556)" width="100%" xlink:href="#a"/><use height="100%" transform="translate(48.516548 97.033106)" width="100%" xlink:href="#a"/><use height="100%" transform="translate(48.516548 145.54966)" width="100%" xlink:href="#a"/><use height="100%" transform="translate(48.516548 194.06621)" width="100%" xlink:href="#a"/><use height="100%" transform="translate(48.516548 242.58276)" width="100%" xlink:href="#a"/><use height="100%" transform="translate(48.516548 291.09932)" width="100%" xlink:href="#a"/><use height="100%" transform="translate(48.516548 339.61587)" width="100%" xlink:href="#a"/><use height="100%" transform="translate(97.033108 -.000004)" width="100%" xlink:href="#a"/><use height="100%" transform="translate(97.033108 48.516556)" width="100%" xlink:href="#a"/><use height="100%" transform="translate(97.033108 97.033106)" width="100%" xlink:href="#a"/><use height="100%" transform="translate(97.033108 145.54966)" width="100%" xlink:href="#a"/><use height="100%" transform="translate(97.033108 194.06621)" width="100%" xlink:href="#a"/><use height="100%" transform="translate(97.033108 242.58276)" width="100%" xlink:href="#a"/><use height="100%" transform="translate(97.033108 291.09932)" width="100%" xlink:href="#a"/><use height="100%" transform="translate(97.033108 339.61587)" width="100%" xlink:href="#a"/><use height="100%" transform="translate(145.54966 -.000004)" width="100%" xlink:href="#a"/><use height="100%" transform="translate(145.54966 48.516556)" width="100%" xlink:href="#a"/><use height="100%" transform="translate(145.54966 97.033106)" width="100%" xlink:href="#a"/><use height="100%" transform="translate(145.54966 145.54966)" width="100%" xlink:href="#a"/><use height="100%" transform="translate(145.54966 194.06621)" width="100%" xlink:href="#a"/><use height="100%" transform="translate(145.54966 242.58276)" width="100%" xlink:href="#a"/><use height="100%" transform="translate(145.54966 291.09932)" width="100%" xlink:href="#a"/><use height="100%" transform="translate(145.54966 339.61587)" width="100%" xlink:href="#a"/><use height="100%" transform="translate(194.06621 -.000004)" width="100%" xlink:href="#a"/><use height="100%" transform="translate(194.06621 48.516556)" width="100%" xlink:href="#a"/><use height="100%" transform="translate(194.06621 97.033106)" width="100%" xlink:href="#a"/><use height="100%" transform="translate(194.06621 145.54966)" width="100%" xlink:href="#a"/><use height="100%" transform="translate(194.06621 194.06621)" width="100%" xlink:href="#a"/><use height="100%" transform="translate(194.06621 242.58276)" width="100%" xlink:href="#a"/><use height="100%" transform="translate(194.06621 291.09932)" width="100%" xlink:href="#a"/><use height="100%" transform="translate(194.06621 339.61587)" width="100%" xlink:href="#a"/><use height="100%" transform="translate(242.58276 -.000004)" width="100%" xlink:href="#a"/><use height="100%" transform="translate(242.58276 48.516556)" width="100%" xlink:href="#a"/><use height="100%" transform="translate(242.58276 97.033106)" width="100%" xlink:href="#a"/><use height="100%" transform="translate(242.58276 145.54966)" width="100%" xlink:href="#a"/><use height="100%" transform="translate(242.58276 194.06621)" width="100%" xlink:href="#a"/><use height="100%" transform="translate(242.58276 242.58276)" width="100%" xlink:href="#a"/><use height="100%" transform="translate(242.58276 291.09932)" width="100%" xlink:href="#a"/><use height="100%" transform="translate(242.58276 339.61587)" width="100%" xlink:href="#a"/><use height="100%" transform="translate(291.09932 -.000004)" width="100%" xlink:href="#a"/><use height="100%" transform="translate(291.09932 48.516556)" width="100%" xlink:href="#a"/><use height="100%" transform="translate(291.09932 97.033106)" width="100%" xlink:href="#a"/><use height="100%" transform="translate(291.09932 145.54966)" width="100%" xlink:href="#a"/><use height="100%" transform="translate(291.09932 194.06621)" width="100%" xlink:href="#a"/><use height="100%" transform="translate(291.09932 242.58276)" width="100%" xlink:href="#a"/><use height="100%" transform="translate(291.09932 291.09932)" width="100%" xlink:href="#a"/><use height="100%" transform="translate(291.09932 339.61587)" width="100%" xlink:href="#a"/><use height="100%" transform="translate(339.61587 -.000004)" width="100%" xlink:href="#a"/><use height="100%" transform="translate(339.61587 48.516556)" width="100%" xlink:href="#a"/><use height="100%" transform="translate(339.61587 97.033106)" width="100%" xlink:href="#a"/><use height="100%" transform="translate(339.61587 145.54966)" width="100%" xlink:href="#a"/><use height="100%" transform="translate(339.61587 194.06621)" width="100%" xlink:href="#a"/><use height="100%" transform="translate(339.61587 242.58276)" width="100%" xlink:href="#a"/><use height="100%" transform="translate(339.61587 291.09932)" width="100%" xlink:href="#a"/><use height="100%" transform="translate(339.61587 339.61587)" width="100%" xlink:href="#a"/></g><path d="m40.551206 392.07666 387.091274-387.0864353" fill="none" stroke="#000" stroke-width="1.2"/><path d="m427.62448 392.08292-387.091265-387.0864381" fill="none" stroke="#000" stroke-width="1.2"/></g></svg>