<svg height="1002" width="902.383" xmlns="http://www.w3.org/2000/svg"><g stroke="#000" stroke-width="2"><path d="m1.383 1h900v1000h-900z" fill="#e1be86"/><path d="m251.383 51v400m100-400v400m200-400v400m100-400v400"/><path d="m751.383 51v400m-500 100v400"/><path d="m351.383 551v400m200-400v400m100-400v400"/></g><g fill-rule="evenodd"><path d="m452.5 7.474 1.067.01c-1.504 144.988 23.368 255.178 21.865 400.166l-11.748 183.66-4.03 388.6h-1.067l1.263-121.79c.528-50.89 11.2-94.05 11.728-144.94l-29.938-470.58 25.868-122.98c.408-39.315-15.416-72.83-15.008-112.144zm-206.14 2.763c.244 23.568 16.72 41.337 16.964 64.905l2.366 228.138c-5.08 119.396-35.466 265.585 3.51 338.34l-6.85 290.16c.317 30.55 10.07 20.322 10.387 50.873-.356.003-25.058-7.726-25.414-7.723l29.15-536.35c-1.475-152.963-16.33-125.286-31.18-428.334l1.067-.01zm-246.04.526 1.067.01c-.396 38.2 15.44 70.6 15.043 108.8l-8.957 863.617-1.067-.01 3.482-335.8c.668-64.435 11.48-157.868 12.15-222.303.5-48.326-9.142-67.654-8.64-115.98l-.986-92.824c.702-67.858-12.796-137.651-12.092-205.51zm594.204.578 1.067.01c-.247 23.838 18.433 95.808 18.186 119.646l-5.182 185.765 8.84 96.67c-.448 43.184-6.596 116.018-7.043 159.203-.46 44.466 2.166 89.897 1.704 134.363-.962 92.796-9.457 183.976-10.42 276.772l-1.067-.01.76-73.427c.26-25.142 6.608-40.618 6.87-65.76-.567-206.855 68.98-413.7-1.7-620.565.728-70.243-12.745-142.42-12.017-212.663zm250.1 4.39c.45 43.323 17.13 80.847 17.58 124.17.334 32.224-1.36 72.18-1.026 104.404l5.497 326.722.912 87.963c.33 31.895 22.98 96.656 23.3 128.55.51 49.305-21.295 65.746-20.784 115.05l.887 85.556-1.067.01 4.856-538.944-11.127-65.75c-.22-21.257 9.704-59.913 9.483-81.17-.852-82.164-11.85-146.93-12.7-229.093-.22-21.086-16.668-36.373-16.887-57.46l1.067-.012zm-665.218-3.561-.017 154.007c-15.358 139.24 18.476 87.133 19.428 146.788l6.965 671.62-1.067.012 15.44-105.244c-.5-48.333-11.147-58-11.648-106.333l-7.71-166.243c-30.672 3.106 9.022-137.275 8.46-191.413-.24-143.35-5.154-206.907-30.918-403.187l1.067-.01zm-62.896 0c.365 35.192 16.96 64.585 17.326 99.777l2.125 204.903c.615 59.267 11.374 89.536 11.988 148.804l-8.34 203.03 3.276 315.903-1.067.012c-.625-60.216 4.838-110.766 4.213-170.983-2.757-265.857-27.832-535.58-30.59-801.436l1.067-.01zm-85.213 0c.33 31.952 16.894 58.103 17.225 90.055l-.765 129.572c1.798 173.35 11.71 348.63 13.51 521.98.83 80.16-4.424 150.65-3.593 230.8l-1.067.012-1.172-112.973c-1.022-98.592 11.435-190.606 10.413-289.198-.635-61.22-14.75-129.016-15.385-190.236-1.333-128.595-18.899-251.4-20.233-380.002zm778.29 1.104 1.067.01c-.792 76.36 12.618 154.65 11.827 231.01l9.908 181.712c-.35 33.835-10.846 96.668-11.197 130.503l-1.073 103.428c-.25 24.157 15.73 71.512 15.48 95.67-.394 38.032-17.02 52.866-17.414 90.9-.29 28.026 11.592 52.185 11.3 80.21-.2 18.373-12.554 40.613-12.745 58.986h-1.067l9.593-925.038c.184-17.726-15.863-29.652-15.68-47.378zm-85.213 0 1.067.01c-.575 55.417 15.082 105.035 14.507 160.452l-1.724 166.26c-.962 92.786-20.185 197.172-21.147 289.958l14.45 355.745h-1.067c.234-22.55 12.64-48.964 12.875-71.513.314-30.29-5.458-47.05-5.144-77.34.474-45.75-5.138-101.164-4.663-146.912.742-71.523 11.628-172.044 12.37-243.567l-6.004-370.233c.237-22.884-15.756-39.968-15.52-62.852zm-62.896 0 1.067.01c-1.537 148.2 23.302 261.62 21.765 409.83l-8.027 421.427c-.52 50.275-7.13 90.884-7.65 141.158h-1.067c.214-20.597 12.6-45.06 12.814-65.656.722-69.602-20.874-133.405-20.152-203.008l5.163-171.694c.91-87.65 8.524-171.82 9.433-259.47.354-34.15 10.144-59.093 10.5-93.243-2.685-40.426-2.325-65.993-8.263-122.29.217-20.95-15.797-36.102-15.58-57.053zm-178.543 0 1.067.01c-.6 57.976 15.03 110.15 14.427 168.127-.34 32.875 15.55 65.75 15.208 98.624-1.083 104.384-18.396 208.77-19.48 313.153-.702 67.682 4.683 145.03 3.98 212.712-.468 45.104 5.15 76.676 4.683 121.78-.187 18.05-12.548 39.97-12.735 58.02h-1.067c1.885-181.722 13.914-392.443 15.798-574.165 1.233-118.895-7.68-208.792-6.445-327.687.264-25.455-15.703-45.1-15.44-70.565zm-83.185 0 1.067.01c-.274 26.415 15.683 47.03 15.41 73.446l-.922 88.9c-2.62 252.623 6.934 501.38 4.314 754.002l-12.716 56.068h-1.067c.622-59.92 7.33-110.176 7.95-170.097.347-33.5-5.392-76.666-5.044-110.165l12.37-243.605c.615-59.28-8.915-89.562-8.3-148.842 1.056-101.836-14.12-197.872-13.063-299.707zm-46.665 0 1.067.01c-.284 27.385 15.663 48.97 15.38 76.355l-9.294 896.061h-1.067c.554-53.484 7.196-97.302 7.75-150.786l7.145-336.373c.548-52.837-9.05-76.675-8.5-129.51l11.91-135.3c.662-63.813-25.052-156.624-24.4-220.437zm-66.147 4.695c-16.4 103.947 28.993 305.26 31.72 480.585-60.956 170.535-6.947 337.556-5.345 491.834l-1.067.01-6.404-617.574c-.508-48.977 5.043-88.905 4.535-137.882-.43-41.557-6.92-92.163-7.352-133.72-.308-29.68-16.847-53.56-17.154-83.242l1.067-.01zm267.008 1.104 1.067.01c-24.6 65.274 9.346 97.208 14.688 142.998l7.217 253.264-15.818 576.155c-.356 0-.71-.01-1.067-.012l1.303-125.618c.468-45.104 17.167-67 17.634-112.114.548-52.85-15.135-128.897-14.587-181.747l1.08-291.947 4.034-201.057c.227-21.91-15.777-38.023-15.55-59.934zm-482.07 1.104c.638 61.506 25.5 117.63 18.145 178.72-15.168 125.972-16.858 250.628 3.87 373.097l-12.078 214.606 27.84 127.58-11.4 78.413-1.067.01-9.216-888.513c-.3-29.9-16.85-54.003-17.162-83.904l1.067-.01zm697.132 1.104 1.067.01c-.4 38.563 15.43 71.326 15.03 109.89-.428 41.242-17.086 97.95-17.514 139.2-1.377 132.755 13.478 250.044 12.1 382.8-.408 39.302 21.503 111.47 21.095 150.77-.34 32.865-23 32.865-23.34 65.73l-1.286 124.037c-.356 0-.712-.01-1.067-.01l14.87-484.543c.448-43.165-9.25-57.33-8.802-100.496l.892-86.04c1.062-102.38-14.108-198.958-13.046-301.337z" fill="#fff" opacity=".06"/><path d="m439.457 9.7h-1.07c1.507 144.984-23.425 255.17-21.917 400.154l11.777 183.656 4.04 388.58 1.07-.01-1.257-121.78c-.53-50.89-11.227-94.046-11.756-144.935l30.01-470.547-25.93-122.977c-.41-39.314 15.453-72.828 15.044-112.14zm206.636 2.763c-.245 23.568-16.76 41.336-17.005 64.904l-2.372 228.13c5.09 119.392 35.55 265.578-3.517 338.33l6.866 290.152c-.318 30.55-10.094 20.322-10.412 50.87.356.003 25.118-7.726 25.475-7.723l-25.516-535.676c1.48-152.96 12.666-125.938 27.55-428.978l-1.07-.01zm246.633.526-1.07.01c.397 38.2-15.476 70.6-15.08 108.798l8.978 863.59 1.07-.01-3.49-335.79c-.67-64.433-11.508-157.864-12.178-222.297-.502-48.325 9.164-67.652 8.662-115.977l.988-92.82c-.705-67.857 12.825-137.648 12.12-205.505zm-595.632.578-1.07.01c.248 23.837-18.477 95.805-18.23 119.642l5.194 185.76-8.862 96.666c.45 43.183 11.067 115.363 11.516 158.546l4.28 411.775 1.07-.01-.763-73.425c-.26-25.142-6.624-40.617-6.885-65.76.568-206.85-69.146-413.7 1.704-620.548-.73-70.24 12.776-142.416 12.046-212.657zm-250.7 4.39c-.45 43.322-17.17 80.845-17.62 124.167-.335 32.223 1.364 72.18 1.03 104.4l-5.5 326.713-.915 87.96c-.345 31.896-23.049 96.655-23.379 128.549-.513 49.304 21.346 65.754 20.833 115.048l-.89 85.554 1.07.01-4.868-538.93 11.145-65.746c.22-21.257-9.727-59.912-9.506-81.168.854-82.162 11.877-146.925 12.73-229.086.22-21.086 16.71-36.372 16.928-57.458l-1.07-.012zm666.815-3.562.018 154.003c15.395 139.235-18.52 87.13-19.475 146.784l-6.982 671.603 1.07.012-15.478-105.24c.502-48.33 11.174-58 11.676-106.33l7.73-166.238c30.746 3.106-9.043-137.27-8.48-191.407.24-143.347 5.167-206.9 30.992-403.175l-1.07-.01zm63.047 0c-.366 35.19-17.002 64.583-17.368 99.775l-2.13 204.897c-.616 59.266-11.4 89.534-12.017 148.8l8.359 203.033-3.284 315.894 1.07.012c.626-60.215-4.85-110.763-4.223-170.978 2.764-265.85 27.9-535.564 30.663-801.413l-1.07-.01zm85.418 0c-.332 31.95-16.934 58.102-17.266 90.052l.767 129.57c-1.802 173.344-11.74 348.62-13.54 521.965-.833 80.156 4.435 150.647 3.602 230.803l1.07.012 1.174-112.97c1.025-98.59-11.463-190.6-10.438-289.2.636-61.218 14.785-129.013 15.422-190.23 1.337-128.6 18.944-251.4 20.28-380l-1.07-.01zm-780.161 1.105-1.07.01c.794 76.356-12.65 154.646-11.855 231.002l-9.932 181.708c.352 33.834 10.872 96.665 11.224 130.5l1.075 103.425c.25 24.156-15.768 71.5-15.517 95.666.395 38.03 17.06 52.865 17.456 90.896.29 28.025-11.62 52.184-11.328 80.21.19 18.373 12.585 40.612 12.775 58.984l1.07-.01-9.616-925.012c-.185-17.729 15.902-29.655 15.718-47.379zm85.418 0-1.07.01c.576 55.416-15.118 105.032-14.542 160.447l1.728 166.256c.965 92.784 20.233 197.166 21.198 289.95l-14.485 355.735 1.07-.01c-.234-22.548-12.67-48.963-12.906-71.51-.315-30.3 5.472-47.048 5.157-77.337-.476-45.747 5.15-101.16 4.675-146.908-.743-71.52-11.656-172.04-12.4-243.56l6.02-370.222c-.238-22.883 15.794-39.967 15.556-62.85zm63.047 0-1.07.01c1.54 148.206-23.358 261.614-21.817 409.82l8.047 421.415c.522 50.273 7.147 90.88 7.67 141.154l1.07-.01c-.214-20.596-12.63-45.06-12.845-65.655-.724-69.6 20.924-133.4 20.2-203.002l-11.897-168.21-2.734-262.944c-.355-34.15-10.17-59.09-10.524-93.24 2.692-40.425 2.33-65.99 8.283-122.288-.218-20.95 15.835-36.1 15.617-57.05zm178.972 0-1.07.01c.603 57.974-15.065 110.148-14.462 168.122.342 32.874-15.587 65.747-15.245 98.62 1.085 104.382 18.44 208.763 19.525 313.145.704 67.68-4.694 145.026-3.99 212.706.47 45.103-5.163 76.674-4.695 121.777.188 18.05 12.578 39.967 12.766 58.018l1.07-.01c-1.89-181.717-13.947-392.432-15.836-574.15-1.236-118.892 7.697-208.786 6.46-327.677-.265-25.454 15.74-45.11 15.476-70.563zm83.385 0-1.07.01c.275 26.414-15.72 47.03-15.446 73.444l.924 88.9c2.626 252.616-6.95 501.365-4.324 753.98l12.745 56.066 1.07-.01c-.623-59.92-7.347-110.173-7.97-170.092-.348-33.5 5.405-76.664 5.057-110.162l-12.4-243.598c-.616-59.278 8.936-89.56 8.32-148.838-1.06-101.833 14.153-197.866 13.094-299.7zm46.777 0-1.07.01c.285 27.384-15.7 48.97-15.416 76.353l9.315 896.036 1.07-.01c-.556-53.482-7.213-97.3-7.77-150.78l-7.162-336.363c-.55-52.835 9.07-76.673 8.52-129.508l-11.935-135.308c-.664-63.81 25.112-156.63 24.449-220.43zm66.307 4.695c16.438 103.944-29.062 305.25-31.797 480.57 61.103 170.53 6.963 337.546 5.358 491.82l1.07.01 6.42-617.557c.51-48.975-5.055-88.903-4.546-137.878.432-41.556 6.938-92.16 7.37-133.717.308-29.68 16.887-53.56 17.196-83.24l-1.07-.01zm-267.65 1.104-1.07.01c24.67 65.272-9.37 97.205-14.723 142.994l-7.235 253.257 15.857 576.14 1.07-.012-1.306-125.615c-.47-45.103-17.208-67.008-17.677-112.11-.55-52.848 15.17-128.894 14.622-181.742l-1.08-291.938-4.044-201.05c-.228-21.91 15.815-38.022 15.587-59.932zm483.228 1.104c-.64 61.505-25.562 117.627-18.188 178.714 15.205 125.968 16.898 250.62-3.878 373.087l12.106 214.6-27.907 127.576 11.428 78.41 1.07.01 9.236-888.487c.31-29.9 16.892-54.002 17.203-83.902l-1.07-.01zm-698.807 1.103-1.07.01c.4 38.562-15.468 71.324-15.068 109.886.43 41.24 17.128 97.946 17.556 139.186 1.38 132.75-13.5 250.037-12.13 382.788.41 39.3-21.554 111.466-21.146 150.767.342 32.864 23.055 32.864 23.396 65.728l1.29 124.033 1.07-.01-14.904-484.53c-.45-43.164 9.27-57.33 8.823-100.494l-.894-86.037c-1.064-102.376 14.142-198.952 13.077-301.328z" fill="#e6c68c" opacity=".396"/><path d="m455.824 4.57-1.046.01c1.473 145.82-22.902 256.642-21.428 402.46l11.514 184.715 3.95 390.82 1.046-.01-1.238-122.5c-.517-51.183-10.976-94.588-11.494-145.77l29.34-473.26-25.35-123.686c-.4-39.54 15.108-73.247 14.708-112.788zm202.023 2.78c-.24 23.704-16.386 41.574-16.626 65.278l-2.32 229.446c4.977 120.08 33.96 272.926-4.238 346.098l7.512 286.008c-.3 30.726-9.87 20.44-10.18 51.164.348.003 24.558-7.77 24.907-7.767l-28.564-539.427c1.445-153.85 16.002-126.004 30.556-430.79l-1.046-.01zm241.128.53-1.046.01c.388 38.42-15.13 71.006-14.742 109.425l8.777 868.57 1.046-.01-3.413-337.725c-.655-64.805-11.25-158.774-11.906-223.578-.49-48.603 8.96-68.042 8.468-116.645l.966-93.356c-.7-68.25 12.54-138.442 11.85-206.7zm-582.338.58-1.046.01c.242 23.974-18.065 96.358-17.823 120.332l-6.815 186.896 3.23 97.158c.44 43.432-7.393 145.43-6.954 188.86.452 44.722 9.66 63.744 10.11 108.465.943 93.328 11.343 182.955 12.287 276.283l1.046-.01-.746-73.848c-.256-25.287-6.476-40.852-6.732-66.138.555-208.042-72.66-430.357-3.392-638.4-.714-70.646 17.55-128.963 16.835-199.6zm-245.104 4.415c-.44 43.572-16.787 81.31-17.228 124.883-.328 32.41 1.333 72.595 1.006 105.003l-5.387 328.597-.894 88.468c-.324 32.078-22.52 97.2-22.845 129.288-.5 49.588 20.87 66.123 20.37 115.71l-.87 86.047 1.046.01-4.76-542.036 10.905-66.127c.216-21.38-9.5-60.257-9.294-81.636.835-82.635 11.612-147.772 12.447-230.407.214-21.207 16.336-36.582 16.55-57.79l-1.046-.012zm651.932-3.583.02 154.9c15.052 140.037-18.106 87.633-19.04 147.63l-6.826 675.474 1.046.012-15.132-105.847c.49-48.6 10.924-58.333 11.416-106.943l7.557-167.197c30.06 3.124-8.842-138.062-8.29-192.51.234-144.173 5.05-208.094 30.3-405.5l-1.046-.01zm61.64 0c-.358 35.394-6.143 69.413-6.5 104.807-.694 68.693-11.867 132.928-12.562 201.62-.602 59.607-11.147 90.05-11.75 149.657l8.173 204.195-3.21 317.715 1.046.012c.612-60.562-4.74-111.402-4.13-171.963 2.702-267.382 27.276-538.652 29.978-806.034l-1.046-.01zm83.51 0c-.325 32.135-16.556 58.437-16.88 90.57l.75 130.315c-1.762 174.343-11.477 350.63-13.24 524.974-.815 80.618 4.336 151.515 3.52 232.134l1.046.012 1.148-113.62c1.002-99.157-11.207-191.7-10.205-290.857.622-61.57 14.455-129.756 15.078-191.327 1.307-129.342 18.52-252.85 19.828-382.192l-1.046-.01zm-762.747 1.11-1.046.01c.778 76.788-12.365 155.538-11.589 232.335l-9.7 182.755c.344 34.03 10.63 97.222 10.973 131.25l1.05 104.02c.245 24.295-15.416 71.923-15.17 96.218.387 38.25 16.68 53.17 17.067 91.42.285 28.187-11.36 52.485-11.076 80.672.187 18.48 12.304 40.846 12.5 59.325l1.046-.01-9.402-930.345c-.18-17.828 15.547-29.822 15.367-47.65zm83.51 0-1.046.01c.563 55.735-14.78 105.637-14.217 161.372l1.7 167.215c.943 93.32 19.782 198.303 20.725 291.62l-14.17 357.789 1.046-.01c-.23-22.678-12.388-49.245-12.617-71.923-.308-30.465 5.35-47.32 5.042-77.783-.465-46.01 5.035-101.744 4.57-147.755-.727-71.933-11.396-173.03-12.123-244.964l5.884-372.357c-.232-23.015 15.442-40.197 15.21-63.212zm61.64 0-1.046.01c1.506 149.06-22.836 263.122-21.33 412.182l7.867 423.845c.51 50.563 6.987 91.405 7.498 141.968l1.046-.01c-.21-20.715-12.35-45.318-12.558-66.033-.707-70.002 20.458-134.17 19.75-204.172l-11.632-169.178-2.673-264.46c-.347-34.346-9.942-59.432-10.29-93.778 2.632-40.658 2.278-66.372 8.098-122.993-.213-21.07 15.48-36.31 15.268-57.38zm174.977 0-1.046.01c.59 58.308-14.73 110.783-14.14 169.09.334 33.063-15.24 66.126-14.905 99.19 1.06 104.983 18.03 209.967 19.1 314.95.688 68.07-4.59 145.862-3.9 213.933.46 45.363-5.048 77.116-4.6 122.48.184 18.155 12.297 40.198 12.48 58.352l1.046-.01c-1.847-182.765-13.636-394.694-15.483-577.458-1.21-119.577 7.525-209.99 6.317-329.567-.26-25.6 15.4-45.37 15.13-70.97zm81.524 0-1.046.01c.268 26.567-15.37 47.3-15.102 73.867l.904 89.41c2.567 254.072-6.795 504.256-4.228 758.328l12.46 56.39 1.046-.01c-.61-60.265-7.183-110.808-7.792-171.073-.34-33.692 5.284-77.106 4.944-110.797l-12.123-245.002c-.603-59.62 8.737-90.075 8.134-149.696-1.035-102.42 13.837-199.007 12.802-301.427zm45.733 0-1.046.01c.278 27.542-15.35 49.25-15.072 76.793l9.107 901.202 1.046-.01c-.544-53.79-7.052-97.86-7.596-151.65l-7.003-338.303c-.537-53.14 8.868-77.115 8.33-130.254l-11.67-136.086c-.65-64.18 24.552-157.523 23.903-221.7zm64.827 4.722c16.072 104.543-23.68 298.4-26.355 474.72 59.74 171.513 2.075 348.113.506 503.276l1.046.01 2.458-109.736 5.614-169.3c1.16-114.723-2.954-227.358-1.795-342.08.498-49.258 7.02-126.624 7.518-175.882.422-41.796-.714-37.865-.292-79.66.302-29.85 12.045-71.487 12.346-101.337l-1.046-.01zm-261.676 1.11-1.046.01c24.118 65.65-8.747 100.015-13.982 146.067l-7.485 252.468 15.503 579.462 1.046-.012-1.277-126.34c-.458-45.363-16.824-67.394-17.282-112.758-.537-53.153 14.833-129.637 14.295-182.79l-1.057-293.62-3.954-202.2c-.223-22.037 15.46-38.24 15.24-60.278zm472.442 1.11c-.625 61.86-24.99 118.305-17.782 179.744 14.865 126.694 16.52 252.066-3.792 375.237l11.836 215.838-27.283 128.312 11.176 78.865 1.046.01 9.03-893.61c.304-30.073 16.515-54.313 16.82-84.386l-1.046-.01zm-683.2 1.11-1.046.01c.392 38.784-15.123 71.735-14.73 110.52.42 41.478 16.745 98.51 17.164 139.99 1.35 133.517-13.21 251.478-11.86 384.995.4 39.528-21.073 112.11-20.674 151.636.334 33.054 22.54 33.053 22.874 66.107l1.26 124.748 1.046-.01-14.579-487.32c-.44-43.413 9.064-57.66 8.626-101.073l-.875-86.533c-1.04-102.966 13.826-200.1 12.786-303.065z" fill="#fff" opacity=".06"/></g><g stroke="#000"><g stroke-width="2"><path d="m51.383 551h800m-800 100h800m-800 300h800"/><path d="m51.383 51v900"/><path d="m51.383 451h800"/><path d="m451.383 51v400"/><path d="m51.383 351h800"/><path d="m151.383 51v400"/><path d="m51.383 251h800m-800-200h800"/><path d="m351.383 51 200 200"/><path d="m51.383 151h800"/><path d="m351.383 251 200-200m-400 500v400m300-400v400"/><path d="m351.383 951 200-200"/><path d="m51.383 851h800m0-800v900"/><path d="m351.383 751 200 200"/><path d="m51.383 751h800"/><path d="m751.383 551v400"/></g><path d="m39.157 38.44h824.843v925.983h-824.843z" fill="none" stroke-linejoin="round" stroke-miterlimit="5.1" stroke-width="9.727"/></g></svg>