<svg height="160.52609mm" viewBox="0 0 159.20599 160.52609" width="159.20599mm" xmlns="http://www.w3.org/2000/svg" xmlns:xlink="http://www.w3.org/1999/xlink"><linearGradient id="a" gradientUnits="userSpaceOnUse" x1="-948.4433" x2="-942.57459" y1="21.701703" y2="13.975713"><stop offset="0" stop-color="#d69438"/><stop offset="1" stop-color="#fac74c"/></linearGradient><linearGradient id="b" gradientUnits="userSpaceOnUse" x1="-926.45316" x2="-939.67331" y1="37.810252" y2="30.689102"><stop offset="0" stop-color="#734304"/><stop offset="1" stop-color="#d47b3c"/></linearGradient><linearGradient id="c" gradientUnits="userSpaceOnUse" x1="-950.38312" x2="-950.95642" y1="45.771116" y2="51.949696"><stop offset="0" stop-color="#d69438"/><stop offset="1" stop-color="#c77439"/></linearGradient><radialGradient id="d" cx="-838.38416" cy="110.02977" gradientTransform="matrix(-.22311708 1.3680133 -1.2662154 -.20651438 -954.16871 1219.4621)" gradientUnits="userSpaceOnUse" r="31.494726"><stop offset="0" stop-color="#e7a448"/><stop offset="1" stop-color="#fac870"/></radialGradient><linearGradient id="e" gradientUnits="userSpaceOnUse" x1="-908.86841" x2="-893.97644" y1="8.639111" y2="7.990293"><stop offset="0" stop-color="#fac74c"/><stop offset="1" stop-color="#734304"/></linearGradient><linearGradient id="f" gradientTransform="matrix(-.9280038 .37257069 .37257069 .9280038 -1732.4791 242.77515)" gradientUnits="userSpaceOnUse" x1="-822.29443" x2="-809.15576" y1="80.163322" y2="86.432243"><stop offset="0" stop-color="#fac74c"/><stop offset="1" stop-color="#d69438"/></linearGradient><radialGradient id="g" cx="-1151.3984" cy="206.21085" gradientTransform="matrix(.62892403 -.42368478 .06030458 .08951702 -470.65039 -153.71498)" gradientUnits="userSpaceOnUse" r="51.982235"><stop offset="0" stop-color="#fadf9b"/><stop offset="1" stop-color="#fadf9b" stop-opacity="0"/></radialGradient><g transform="translate(1271.4913 -167.30739)"><g transform="matrix(1.650506 0 0 1.650506 320.93256377958 184.95029923624)"><path d="m-892.61563 10.517607c1.96594 39.07994-33.89507 54.375079-53.07943 49.637961 15.6071 21.463889 42.3439 19.288598 56.20984 5.264348 13.73277-13.88958 16.0317-38.484781-3.13041-54.902309z" fill="#7e8481"/><path d="m-918.38676-.20756083c-15.46487-.06239-30.05587 11.04404483-34.47208 25.81198683-1.84682 5.79564-1.95006 12.083161-.99108 18.053349 1.48873 7.827561 5.57985 15.121671 11.61124 20.352661 10.2371 9.81339 26.48762 12.22476 39.36534 6.52722 12.13853-5.155901 21.04356-17.188889 22.1256-30.373791 1.52448-14.334939-6.2539-29.099771-18.95054-35.9323708-5.68889-3.153976-12.18317-4.72745803-18.68848-4.43905503z" fill="url(#a)"/><path d="m-893.98005 8.080334c1.96595 39.236372-38.46558 47.6804-57.65002 42.924319 9.66764 22.824535 41.10552 32.407295 60.78044 12.197753 13.65267-14.023656 16.03177-38.63882-3.13042-55.122072z" fill="url(#b)"/><path d="m-951.62936 51.005143c-1.10416-2.186019-1.61857-4.769548-2.00311-6.955567l5.77854.976101c.57242 3.015361 2.17477 4.83311 3.11097 7.01688-1.85853.155109-4.36504-.361076-6.8864-1.037414z" fill="url(#c)" fill-rule="evenodd"/><ellipse cx="-917.5025" cy="36.085804" fill="url(#d)" rx="31.494726" ry="31.041592"/><ellipse cx="-916.99481" cy="36.393345" fill="none" rx="28.216059" ry="27.414209" stroke="#855d1d" stroke-linejoin="round" stroke-miterlimit="5.1" stroke-width=".979183"/><path d="m-893.81223 15.602794c-4.84936-4.37339-8.52652-8.6252211-20.05818-10.2725641l4.04189-4.80028573c3.17304.81702603 7.77102 1.17416703 15.93031 7.60644283z" fill="url(#e)" fill-rule="evenodd"/><path d="m-947.28334 25.913866c2.87082-5.86525 4.69914-11.180967 14.78681-17.006067l-5.53934-2.9487931c-2.64019 1.9403851-6.77407 3.9848852-11.94945 12.9939741z" fill="url(#f)" fill-rule="evenodd"/><ellipse cx="-917.33014" cy="36.194408" fill="none" rx="31.560736" ry="30.982956" stroke="#935600" stroke-linejoin="round" stroke-miterlimit="5.1" stroke-width=".497189"/></g><g fill="#d99b3b" transform="matrix(.79892093 0 0 .72893571 -559.10953 135.52749)"><path d="m-809.73226 192.21558c1.49571.84771 4.81619 1.65478 7.12899 2.48423 3.67022.79322 5.06577 1.74511 8.77154 2.53771 1.47049.35893.57945.8149-1.47723.28999-2.934.16637 2.79398 1.22141 3.59207 1.72653 4.63532 1.46782 9.6956 2.91991 13.70933 4.41364-1.56283-.8904-3.84627-1.79487-6.34401-2.6762-1.67213-.35403-4.34162-1.48472-1.95321-1.27719 2.41387.90477 5.46778 1.77206 8.32373 2.63155 1.99859.76296 4.75291 1.85882 8.22829 2.34157-2.0968-.97577-3.13192-2.0061-7.08484-2.94186-5.85786-1.98225-12.52281-3.92735-19.51221-5.84501-3.1752-.91487-6.26383-1.83539-9.24396-2.76154-1.46006-.2973-2.66538-.62793-4.13849-.92342zm18.08525 6.05846c2.77602.19505 3.85647 1.4694.5699.54922-.66079-.16214-3.64922-1.09056-.5699-.54922zm14.90491 4.0812c-.5275.13201-.45383-.12482-.0191-.0594zm-34.8582-9.66869c-.19188.26457 3.62371 1.41632 3.51253.99962-.78091-.34403-1.47052-.7757-3.51253-.99962zm13.13695 3.97164c-1.84472-.70772-4.08767-1.42806-6.92762-2.07368 1.168.53005 4.11495 1.6579 6.92762 2.07368zm-26.02129-2.52244c.53684.97522 5.9315 1.90688 7.59809 2.88931 3.42482.69048-.70496-.57055-1.40876-.83623-1.98798-.68721-4.02574-1.37302-6.18934-2.05306zm20.77882 1.85078c2.67757 1.15346 6.85748 2.25698 10.13374 3.3912 3.2957.39971-1.68923-.85463-2.29513-1.11999-2.43177-.73982-5.08391-1.66372-7.83861-2.27121zm-13.11027-1.75533c4.04036 1.6221 9.45874 3.20358 14.31257 4.79852.60309.12486 25.32499 7.98134 15.38342 4.39693-9.65687-3.07726-19.59504-6.14105-29.69599-9.19545zm4.73297.0539c.44852.6561 3.74719 1.29436 5.8595 1.91632 1.25224.33308 4.65457 1.19811 4.9977 1.16631-3.57882-1.03013-6.99258-2.07257-10.8572-3.08263zm-12.87262 1.05293c1.18025 1.06202 6.40588 2.06638 8.31811 3.12794 2.43638.90393 5.39488 1.80833 6.92512 2.72269 7.42329 3.59072-1.47223-.22504-6.96358-1.54502-2.81211-.61787-3.45043-1.28412-4.6969-1.91833-1.81399-.33973-2.85355-1.01338-2.28355-1.08182-3.75796.23917 2.88238 1.3095 2.92345 1.92641 1.63909.75991 5.28409 1.47869 6.12254 2.24465-2.80422-.56354-3.82243-1.26739-5.6654-1.89266-1.02945-.46663-3.62037-1.39481-4.58026-1.54939 2.984 1.0559 4.93073 2.14182 8.66451 3.17264 7.21899 2.98693 2.35532 1.01414-3.69987-.54102-1.69164-.55837-1.92297-1.33582-5.02224-1.75021 9.50164 3.98468 31.05646 10.96158 12.5541 3.50863.86856.19741 40.69573 9.18649 9.29912-.19235-3.34927-1.15427-6.38158-2.31777-9.62505-3.47516-2.47117-.0924 2.4173.9692 2.912 1.33186 23.47204 7.26535 14.64732 6.04908-2.77783.22642-4.07492-1.43981-7.91435-2.8908-12.40427-4.31528zm3.21646 1.16971c-1.58756-.10275.46593-.23556 0 0zm8.31406 1.49653c-1.05667-.0277.50525-.14536 0 0zm2.38475.74893c.99114.28795-1.28261-.23361 0 0zm9.51291 3.43256c-2.13844-.18686.16697-.44997 0 0zm-10.10164-.70138c-.0324.2085-.66671-.19551 0 0zm11.76327-3.33667c5.38246 1.95149 11.91013 3.85899 18.20838 5.76949.90119.27177 4.7447 1.28404 2.49227.51296-5.9095-1.88418-11.66696-3.78187-18.15375-5.63589-.86312-.20984-1.47296-.46519-2.5469-.64656zm-25.37521-2.08868c-.93968.35544 1.74171.10775 0 0zm34.5264 4.0856c-.24185.25368 4.43273 1.4991 2.63569.73417-.6896-.25386-1.45076-.51948-2.63569-.73417zm-35.14696-2.45658c.46377.40006.1176-.25066 0 0zm-.19052.62388c-.39759.77073 3.29554 1.69562 3.49116 2.49563 13.76404 2.67527 6.36198 1.38851-1.74406-1.67399-.57883-.27384-1.03001-.54811-1.74708-.82166zm.74157.15478c-.15415.51034 3.20027.52334 0 0zm2.08129.79747c-.50041.20036 1.2478.14925 0 0zm1.2925.51411c.99464.31657-.29638-.2197 0 0zm6.78341.93906c.36499.20922.41387-.12677 0 0zm-4.61802-.18357c1.04756.33484-.36582-.22321 0 0zm.63546.30627c-.11974.24548 1.2546.11148 0 0zm.65444.22994c-.28504.2252 1.05756.1103 0 0zm.65033.24116c-.16542.22186 1.70314.21528 0 0z" opacity=".75" stroke-width=".09552"/><path d="m-766.6022 153.3416c-2.78552 2.78665-8.36435 4.78763-12.40058 7.22208-6.11066 1.82794-8.80035 5.05359-14.96553 6.86679-2.47142.89246-1.35313 2.97247 2.1164 1.63523 4.43417 1.65384-4.99953 3.79478-6.51564 5.48667-7.97988 4.12211-16.60676 8.03727-23.64201 12.47337 2.91319-2.92889 6.94641-5.66544 11.29728-8.23844 2.77982-.80415 7.53616-4.28855 3.73345-4.3002-4.23463 2.69296-9.43591 5.02054-14.32728 7.38562-3.51395 2.28354-8.38159 5.6033-14.01671 6.2899 3.78529-3.07801 5.96293-6.73247 12.59014-9.01813 10.15625-5.70471 21.53711-10.98791 33.40321-16.05313 5.41523-2.47103 10.70005-4.99388 15.82062-7.57574 2.42064-.6562 4.46691-1.52938 6.90665-2.17402zm-31.32131 17.37321c-4.39389-.19313-6.77886 4.39535-1.18877 1.94174 1.11106-.40426 6.24572-2.99217 1.18877-1.94174zm-25.29992 10.76954c.73974.69461.77069-.33008.0624-.2249zm59.23881-25.66923c.14725 1.0953-6.38973 4.2686-5.98353 2.68525 1.39885-1.0709 2.70617-2.51433 5.98353-2.68525zm-22.5098 10.94964c3.24532-2.12141 7.11237-4.15525 11.85862-5.69354-2.10092 1.66206-7.28389 5.04025-11.85862 5.69354zm41.57726-.89076c-1.37761 3.61096-10.22745 5.38609-13.35258 8.63755-5.67415 1.51228 1.40918-1.97849 2.64492-2.77105 3.4549-1.99239 6.98578-3.96224 10.70766-5.8665zm-33.1087.0751c-4.78163 3.57028-11.85358 6.43092-17.54833 9.72099-5.31114.42503 3.08813-2.74651 4.1726-3.57121 4.16939-2.04489 8.78248-4.73054 13.37573-6.14978zm21.22064-2.33397c-7.14864 4.92654-16.40101 9.22232-24.78972 13.76418-1.00102.27903-43.5767 22.37279-26.21615 11.83405 16.63563-8.66278 33.69776-17.17671 51.00587-25.59823zm-7.33439-1.41365c-1.06165 2.39938-6.51168 3.75171-10.12171 5.44754-2.12006.86666-7.85774 3.06589-8.36936 2.82441 6.10301-2.78115 11.95826-5.6669 18.49107-8.27195zm19.27249 8.51278c-2.41944 3.72803-11.04938 5.84409-14.59818 9.31923-4.26891 2.68196-9.34381 5.18661-12.22023 8.21998-13.47784 11.42711 2.39871-.37081 11.61641-3.62387 4.6877-1.43989 6.04792-3.81365 8.32866-5.85416 2.99068-.69981 4.97432-2.96478 4.13324-3.42666 5.6647 2.21973-5.1856 4.10728-5.59636 6.4939-2.9574 2.39498-8.98723 3.94187-10.71249 6.63497 4.6449-1.23114 6.61257-3.62092 9.80883-5.42204 1.85143-1.46281 6.37251-4.18602 7.94084-4.45837-5.19955 3.08552-8.81532 6.64364-15.15789 9.37435-12.82252 9.1475-4.20586 3.13866 6.01441-.8363 2.92506-1.5927 3.71982-4.53879 8.73607-5.08832-16.90708 12.24732-54.09989 32.00452-21.34966 9.34774-1.45153.4703-67.97595 21.79043-14.24236-3.93813 5.81866-3.34301 11.15341-6.83069 16.8106-10.22218 3.86564.48798-4.27623 2.94257-5.24385 4.18409-40.31406 20.22213-26.01055 18.51594 4.15928 1.83397 7.09931-4.20532 13.84152-8.53488 21.57268-12.5382zm-5.62244 3.44865c2.5078.14478-.58641-1.07647 0 0zm-13.67322 2.972c1.64626.25465-.69782-.73899 0 0zm-4.10196 2.09649c-1.69172.78062 2.1109-.46915 0 0zm-16.61353 10.09485c3.40532.007-.004-1.80838 0 0zm15.98408.73543c-.0673.82247 1.13903-.53215 0 0zm-16.2745-17.0194c-9.40527 5.748-20.5531 10.93199-31.3486 16.20638-1.54376.74849-8.04525 3.36944-4.135 1.14135 10.18072-5.3053 20.13443-10.71535 31.18907-15.70526 1.45014-.52053 2.53506-1.30505 4.29453-1.64247zm40.33597.57563c1.25002 1.70551-2.74851-.17816 0 0zm-55.58286 4.05645c.23039 1.07014-7.68487 4.31328-4.48086 1.95297 1.20715-.75135 2.53136-1.52394 4.48086-1.95297zm55.6232 2.49572c-.94095 1.39775-.0403-1.01577 0 0zm-.0573 2.49311c.17958 3.13571-6.04061 5.4682-6.79295 8.51431-22.74762 5.68972-10.59989 3.22127 3.6341-5.91612 1.04751-.86703 1.89819-1.77979 3.15885-2.59819zm-1.23156.34804c-.0494 2.0388-5.23342.93882 0 0zm-3.66095 2.3894c.65937.95141-2.00973.15288 0 0zm-2.28419 1.55742c-1.71321.8907.58117-.75332 0 0zm-10.99713 1.3276c-.68094.69124-.56734-.63527 0 0zm7.23002.86962c-1.80516.94371.69021-.74313 0 0zm-1.15307.97421c.0464.99641-1.99894.004 0 0zm-1.13941.67026c.31302.97416-1.69422.0667 0 0zm-1.13944.71539c.13037.92013-2.74955.25365 0 0z" opacity=".5" stroke-width=".237817"/><path d="m-756.14196 136.59421c.75816-.45596 2.23734-.86626 3.31833-1.30174 1.61622-.39815 2.35417-.91373 3.98445-1.31108.65536-.18257.38603-.4491-.53488-.18098-1.14013-.13002 1.34752-.64894 1.76209-.92182 2.12964-.76384 4.426-1.51353 6.31232-2.29966-.79308.47902-1.87659.95689-3.0413 1.41911-.73494.17728-2.01556.777-1.02235.69076 1.13565-.4764 2.51979-.92376 3.8234-1.36926.94291-.40219 2.25079-.98134 3.73028-1.20806-1.02252.52015-1.6314 1.08418-3.38756 1.55861-2.71547 1.03658-5.7462 2.04223-8.90129 3.02844-1.44161.47248-2.84972.94924-4.21556 1.43048-.63949.14818-1.18357.3182-1.82793.4652zm8.37193-3.16588c1.14562-.0744 1.81891-.7745.33184-.30025-.29466.0825-1.66425.56493-.33184.30025zm6.72668-2.09847c-.18559-.0806-.20493.0642-.0189.0329zm-15.75524 4.97713c-.0262-.15077 1.71587-.74768 1.5924-.51573-.37714.18288-.73444.41598-1.5924.51573zm5.99985-2.05931c-.87098.37318-1.90338.74843-3.16002 1.07434.56701-.28217 1.95789-.87682 3.16002-1.07434zm-10.87018 1.0859c.39948-.5394 2.73057-.99344 3.58255-1.52273 1.49871-.34369-.3898.31066-.72127.45064-.9243.3599-1.86821.71839-2.86128 1.07208zm8.64917-.77558c1.28815-.61236 3.16679-1.1779 4.6904-1.77196 1.39196-.18248-.83677.45741-1.1291.59841-1.1115.3838-2.34595.86791-3.5613 1.17355zm-5.56865.81842c1.92132-.85771 4.38523-1.67535 6.62625-2.50764.26453-.0624 11.62799-4.15187 6.97768-2.26929-4.44038 1.60213-8.99054 3.19318-13.60393 4.77693zm1.90032.0293c.30365-.36179 1.74207-.67785 2.70363-.99964.56328-.17082 2.08613-.61254 2.21712-.59042-1.62466.53197-3.18575 1.07291-4.92075 1.59006zm-4.94083-.75135c.67286-.57994 2.95028-1.0768 3.91537-1.64732 1.14449-.47564 2.49757-.94499 3.28218-1.43786 3.64583-1.91774-.63064.10755-3.07407.77783-1.24025.31072-1.62159.67584-2.23971 1.01537-.78888.16748-1.33187.53171-1.11722.57719-1.45535-.18113 1.39955-.69718 1.53303-1.04215.79877-.40502 2.39079-.76179 2.87096-1.18023-1.22679.28038-1.76698.6618-2.62161.98883-.49965.24841-1.71047.73569-2.12312.81021 1.392-.55387 2.37549-1.13759 4.06218-1.66803 3.44968-1.58214 1.13303-.53837-1.5802.25654-.78151.29149-1.02141.72398-2.33774.91714 4.55059-2.11228 14.48238-5.74897 5.67925-1.80734.38431-.0996 17.99495-4.6338 3.67708.22451-1.55656.60438-2.98829 1.21791-4.50318 1.82537-1.00439.0207 1.14926-.51245 1.41562-.70935 10.75217-3.77415 6.99724-3.2038-1.06635-.16169-1.90052.75519-3.70913 1.51959-5.77247 2.26097zm1.50644-.61468c-.65347.0376.14136.1378 0 0zm3.60419-.73373c-.42725.002.17368.0887 0 0zm1.09445-.38948c.45045-.14881-.55654.11474 0 0zm4.45032-1.80292c-.88945.0778-.0187.25407 0 0zm-4.16716.26594c.0266-.11719-.30335.10113 0 0zm4.06447 2.01641c2.51978-1.02532 5.48856-2.01163 8.36627-3.00251.41146-.14088 2.13844-.65955 1.09262-.25598-2.71749.98101-5.3768 1.9715-8.31911 2.92837-.38449.10667-.67648.24205-1.13978.33012zm-10.52987.85108c-.30783-.21083.71599-.0384 0 0zm14.5633-1.85451c-.0484-.14514 2.05467-.78391 1.19187-.37807-.32356.1335-.67793.2727-1.19187.37807zm-14.502.93441c.26112-.21823-.00063.14183 0 0zm.0423-.35179c-.0125-.43664 1.63782-.90824 1.86776-1.35383 6.0043-1.32542 2.80413-.69774-1.01409.91579-.28313.1461-.51535.29404-.85363.43824zm.32553-.0774c.0353-.28775 1.37732-.25292 0 0zm.98248-.42049c-.16182-.11849.52662-.0679 0 0zm.61371-.2717c.45727-.16479-.16009.11928 0 0zm2.88712-.44072c.18547-.1126.14135.076 0 0zm-1.87902.0448c.48187-.17438-.18844.12043 0 0zm.31189-.16355c-.001-.13896.52218-.0467 0 0zm.30498-.12055c-.0711-.12973.44326-.0485 0 0zm.30546-.1269c-.0237-.12656.721-.0992 0 0z" opacity=".75" stroke-width=".045413"/><path d="m-762.67802 121.12835c-3.29795 2.65023-9.90306 4.55326-14.6818 6.86853-7.23479 1.73847-10.41928 4.80622-17.71862 6.53066-2.92607.84877-1.60204 2.82695 2.50574 1.55518 5.24988 1.57288-5.91925 3.60902-7.71427 5.21808-9.44786 3.92032-19.66176 7.64383-27.99122 11.86277 3.44911-2.78551 8.22428-5.3881 13.37554-7.83515 3.29121-.76479 8.92252-4.07862 4.42026-4.08969-5.01364 2.56112-11.17175 4.77477-16.96294 7.02407-4.16038 2.17176-9.92348 5.32901-16.59524 5.982 4.48163-2.92734 7.05988-6.4029 14.90623-8.57667 12.02462-5.42546 25.49911-10.45003 39.54812-15.2673 6.41142-2.35007 12.66844-4.74942 18.731-7.20489 2.86594-.62408 5.28863-1.45452 8.1772-2.06759zm-37.08322 16.52275c-5.20219-.18368-8.02591 4.18018-1.40745 1.84669 1.31545-.38448 7.39468-2.8457 1.40745-1.84669zm-29.95413 10.24235c.87583.6606.91248-.31392.0739-.2139zm70.13646-24.41267c.17435 1.04169-7.5652 4.05965-7.08427 2.5538 1.65619-1.01848 3.20401-2.39124 7.08427-2.5538zm-26.65073 10.41363c3.84234-2.01756 8.42077-3.95185 14.04015-5.41483-2.48742 1.5807-8.62385 4.79352-14.04015 5.41483zm49.22587-.84715c-1.63103 3.4342-12.10891 5.12242-15.80894 8.21472-6.71797 1.43825 1.66842-1.88164 3.13148-2.6354 4.09048-1.89485 8.2709-3.76829 12.67746-5.57932zm-39.19942.0714c-5.66126 3.39551-14.03418 6.11611-20.77655 9.24513-6.28817.40423 3.65623-2.61206 4.9402-3.39639 4.93639-1.94479 10.39811-4.49897 15.83635-5.84874zm25.12441-2.21971c-8.46371 4.68537-19.41816 8.77087-29.35007 13.09039-1.18515.26537-51.59312 21.27759-31.03891 11.25475 19.69595-8.23873 39.89685-16.33587 60.38898-24.34514zm-8.68364-1.34446c-1.25694 2.28193-7.70956 3.56806-11.9837 5.18088-2.51007.82424-9.30325 2.9158-9.90901 2.68615 7.22574-2.64501 14.15813-5.3895 21.89271-7.86703zm22.81789 8.09606c-2.86452 3.54554-13.08204 5.55802-17.28368 8.86304-5.05422 2.55068-11.0627 4.93272-14.46827 7.8176-15.95725 10.86771 2.83997-.35267 13.75337-3.44648 5.55005-1.36941 7.1605-3.62696 9.86081-5.56758 3.54086-.66556 5.88941-2.81965 4.8936-3.25892 6.70679 2.11108-6.13954 3.90622-6.62588 6.17601-3.50145 2.27775-10.64052 3.7489-12.68316 6.31017 5.49938-1.17087 7.82903-3.44367 11.61326-5.15662 2.19203-1.39119 7.54481-3.98111 9.40166-4.24012-6.15607 2.93447-10.43701 6.31842-17.94636 8.91545-15.18136 8.69971-4.97957 2.98502 7.12083-.79536 3.46316-1.51473 4.40413-4.3166 10.34317-4.83924-20.01732 11.64779-64.05218 30.43783-25.27718 8.89016-1.71855.44727-80.48089 20.72374-16.8624-3.74535 6.88908-3.17937 13.20521-6.49632 19.9031-9.72178 4.57677.46409-5.06288 2.79852-6.20851 3.97926-47.73028 19.23221-30.79549 17.60954 4.92442 1.7442 8.40532-3.99946 16.38783-8.11708 25.54122-11.92444zm-6.65675 3.27984c2.96914.13769-.69429-1.02377 0 0zm-16.18856 2.82652c1.94911.24218-.82619-.70282 0 0zm-4.85657 1.99385c-2.00292.74241 2.49923-.44618 0 0zm-19.66977 9.60069c4.03177.006-.005-1.71986 0 0zm18.92454.69943c-.0797.78221 1.34856-.50611 0 0zm-19.26839-16.18626c-11.13547 5.46662-24.33407 10.39685-37.11552 15.41304-1.82775.71185-9.52527 3.20449-4.89568 1.08548 12.05358-5.0456 23.83838-10.19081 36.92665-14.93646 1.71691-.49504 3.00142-1.24116 5.08455-1.56206zm47.75623.54745c1.47998 1.62202-3.25413-.16944 0 0zm-65.80795 3.85788c.27277 1.01776-9.0986 4.10213-5.30517 1.85736 1.42923-.71456 2.99703-1.44933 5.30517-1.85736zm65.85572 2.37354c-1.11406 1.32934-.0477-.96604 0 0zm-.0678 2.37108c.21263 2.9822-7.15184 5.20051-8.04258 8.0975-26.93229 5.4112-12.54987 3.06358 4.30264-5.62651 1.24021-.82458 2.24737-1.69266 3.73994-2.47099zm-1.4581.33099c-.0585 1.939-6.19617.89286 0 0zm-4.33444 2.27244c.78068.90483-2.37944.14539 0 0zm-2.70439 1.48118c-2.02836.8471.68809-.71644 0 0zm-13.02017 1.26261c-.80621.6574-.67171-.60418 0 0zm8.56007.82705c-2.13725.89751.81718-.70675 0 0zm-1.36519.92651c.055.94764-2.36668.003 0 0zm-1.34903.63746c.37061.92647-2.00589.0634 0 0zm-1.34905.68037c.15435.87508-3.25536.24124 0 0z" opacity=".5" stroke-width=".252356"/><path d="m-797.8795 107.27145c-2.04666 2.47512-5.96612 5.09667-8.85131 7.63708-4.27491 2.63406-6.27796 5.37304-10.58945 8.01034-1.73664 1.16527-1.07534 2.25849 1.36689.56762 2.95267.033-3.61285 3.65516-4.73557 5.11663-5.66957 4.57176-11.77169 9.16114-16.8103 13.71493 2.14113-2.59808 5.03942-5.33489 8.14695-8.03991 1.94335-1.18039 5.37415-4.57568 2.77144-3.68624-3.03396 2.75587-6.71138 5.50138-10.1785 8.19827-2.52008 2.31875-6.01883 5.63289-9.91097 7.41015 2.74565-2.9011 4.41964-5.79904 9.07112-8.85358 7.23882-6.11769 15.29486-12.24925 23.67216-18.35308 3.83106-2.88959 7.57546-5.7822 11.21037-8.67458 1.69002-.99913 3.13465-2.05153 4.83717-3.04763zm-22.31308 18.72321c-2.99832.91049-4.86106 4.46673-.91117 1.54726.7809-.52586 4.42575-3.42549.91117-1.54726zm-17.85988 12.99442c.47162.27864.54416-.39716.054-.16147zm41.84094-30.72133c.0459.67986-4.58833 4.29225-4.23088 3.16341 1.01132-1.02867 1.97874-2.27871 4.23088-3.16341zm-15.95883 12.45374c2.32805-2.1496 5.07733-4.38874 8.40367-6.51198-1.52159 1.57997-5.23912 5.0066-8.40367 6.51198zm28.50791-10.38903c-1.12413 2.68084-7.27161 5.92661-9.57402 8.78515-3.96026 2.32514 1.06389-1.62325 1.94963-2.4318 2.46506-2.11488 4.981-4.23297 7.62442-6.35332zm-22.66956 7.85919c-3.45243 3.45729-8.43719 6.99187-12.50067 10.48175-3.65725 1.53018 2.2518-2.52033 3.03552-3.31422 2.95682-2.31767 6.24952-5.15807 9.46515-7.16753zm14.64437-6.52858c-5.14083 4.90051-11.69024 9.88576-17.66072 14.82782-.69928.41819-30.9536 24.87603-18.54049 13.90506 11.82281-9.57605 23.93014-19.15559 36.20121-28.73288zm-4.95016.80785c-.84707 1.81584-4.64588 3.98377-7.20228 5.94175-1.4948 1.06554-5.533 3.85386-5.87114 3.817 4.31746-3.25415 8.47056-6.5181 13.07342-9.75875zm12.76694 1.00763c-1.8432 3.00297-7.85722 6.4193-10.4609 9.52371-3.05689 2.7568-6.65665 5.58803-8.77787 8.24559-9.79961 10.63464 1.6607-.80778 8.13409-5.10455 3.28134-2.04522 4.33153-3.91479 5.99517-5.78407 2.08247-1.16206 3.55399-3.1077 3.00134-3.21064 3.76671.11193-3.75588 3.90293-4.15673 5.55693-2.14467 2.26017-6.35013 4.69178-7.66624 6.85581 3.24155-1.89893 4.7084-3.92224 6.9868-5.85132 1.3408-1.39109 4.57238-4.2343 5.6597-4.78194-3.71423 3.2396-6.36792 6.41394-10.84683 9.69171-9.23671 8.99278-3.03664 3.03987 4.1593-1.9644 2.0823-1.72912 2.77408-3.83868 6.23569-5.38053-12.18833 11.97872-38.6405 33.64236-15.08432 11.13496-1.01727.64924-47.6278 30.25176-9.5527.7904 4.15097-3.55366 7.97791-7.08754 12.02076-10.63472 2.6219-.59353-3.07498 2.92853-3.79964 3.96678-28.6122 22.70325-18.73469 18.21596 2.75547.21537 5.07091-4.41832 9.90358-8.83349 15.39691-13.26909zm-4.02193 3.57628c1.70955-.49711-.34748-.56398 0 0zm-9.50949 5.16446c1.11425-.22221-.44072-.31747 0 0zm-2.91326 2.33541c-1.19725.90837 1.46863-.80403 0 0zm-11.87945 10.50516c2.33093-.79923.0877-1.17882 0 0zm10.90562-3.29076c-.0873.55247.80644-.61588 0 0zm-10.28811-7.26474c-6.72688 5.96877-14.61842 11.98064-22.27328 17.96837-1.09436.8525-5.67659 4.09614-2.88799 1.72008 7.23555-5.86289 14.32093-11.74055 22.13894-17.60382 1.01885-.68168 1.80091-1.44946 3.02233-2.08463zm27.58461-9.13951c.77025.81783-1.87266.53212 0 0zm-38.25465 15.75825c.10409.64383-5.47719 4.6269-3.16545 2.33118.86408-.77497 1.80935-1.5914 3.16545-2.33118zm37.9538-11.49299c-.71423 1.13388.0233-.65321 0 0zm-.1642 1.64007c-.0342 2.00343-4.40944 4.99252-5.07719 7.15733-15.85795 9.07816-7.41804 4.60209 2.78444-4.71707.7606-.81275 1.38873-1.6089 2.29274-2.44026zm-.86054.51758c-.13603 1.34181-3.62981 1.84705 0 0zm-2.62603 2.42251c.40368.46519-1.38351.57382 0 0zm-1.6418 1.55491c-1.21748.98525.43557-.62861 0 0zm-7.59504 3.46033c-.50082.6116-.35652-.28067 0 0zm4.90598-1.13817c-1.28311 1.04153.50981-.64763 0 0zm-.83822.90759c-.0181.63913-1.36864.47386 0 0zm-.81363.70608c.16546.56172-1.16318.44313 0 0zm-.81591.73552c.0431.56956-1.89501.81409 0 0z" opacity=".5" stroke-width=".156817"/><path d="m-770.71814 102.08128c1.05261 1.57454 3.52358 3.01683 5.21131 4.53197 2.74341 1.40588 3.7056 3.18191 6.47663 4.58552 1.09403.64181.34726 1.5386-1.18006.59728-2.29277.40432 2.01155 2.24923 2.5667 3.18995 3.40678 2.66524 7.14461 5.28791 10.06682 8.02097-1.09939-1.65364-2.75504-3.31292-4.57953-4.92166-1.25079-.62647-3.17724-2.70616-1.35352-2.38055 1.75661 1.65597 4.01355 3.22147 6.11814 4.77792 1.45271 1.39751 3.44918 3.40821 6.08035 4.22716-1.50224-1.80088-2.17555-3.73729-5.12014-5.40695-4.28945-3.61122-9.20854-7.12764-14.38228-10.58212-2.34493-1.65272-4.62212-3.31883-6.81459-4.99886-1.09364-.52446-1.98586-1.12004-3.08983-1.64063zm13.2507 11.03177c2.12543.29036 2.80346 2.69126.37295 1.03165-.49153-.29-2.69014-1.97413-.37295-1.03165zm11.03406 7.35098c-.42492.26759-.33591-.22489-.007-.11292zm-25.78998-17.42843c-.18157.5107 2.62982 2.59679 2.5956 1.80459-.56189-.63369-1.04218-1.43745-2.5956-1.80459zm9.67861 7.19406c-1.34041-1.29662-2.98764-2.60553-5.10649-3.75415.83849.9774 2.98015 3.04348 5.10649 3.75415zm-19.83651-4.04675c.2943 1.84594 4.35587 3.46515 5.52414 5.29144 2.56618 1.217-.47488-1.0684-.9868-1.55484-1.45391-1.25321-2.94654-2.50226-4.53734-3.7366zm15.86043 2.91936c1.92987 2.12295 5.02934 4.10616 7.42523 6.1747 2.50239.66571-1.2017-1.58172-1.63788-2.07034-1.79103-1.34053-3.72977-3.02597-5.78735-4.10436zm-9.93389-2.9637c2.92685 2.97735 6.92588 5.83643 10.48605 8.7379.45148.22055 18.61766 14.4888 11.36531 7.93959-7.09504-5.58942-14.40958-11.14482-21.85136-16.67749zm3.65844-.0369c.26564 1.23931 2.74063 2.36034 4.29894 3.48531.92825.59888 3.45527 2.14975 3.72495 2.07889-2.64314-1.86084-5.15693-3.75009-8.02389-5.5642zm-10.09949 2.39046c.78175 1.99263 4.70337 3.75564 6.05202 5.72575 1.77416 1.6537 3.95258 3.29284 5.02374 4.99323 5.30145 6.63568-1.11205-.38614-5.20015-2.74381-2.10074-1.09649-2.51209-2.34956-3.39838-3.5235-1.36244-.59495-2.08359-1.85031-1.63366-1.99782-2.9399.56764 2.06903 2.41479 2.02404 3.59132 1.17467 1.40231 3.90782 2.66681 4.46175 4.10432-2.10139-.993-2.80225-2.30662-4.15158-3.44588-.73909-.86041-2.62992-2.5558-3.35399-2.82256 2.17931 1.92763 3.55163 3.94323 6.31469 5.80083 5.21841 5.48901 1.69766 1.86649-2.79777-.92353-1.24048-1.01602-1.32282-2.49339-3.67126-3.19293 6.86185 7.32638 22.68499 20.009 9.28491 6.32736.64801.3512 30.37053 16.33538 7.22506-.64197-2.44992-2.10463-4.65324-4.23627-7.02086-6.35-1.90214-.10343 1.75127 1.77889 2.0892 2.45658 17.27191 13.17668 10.58959 11.11546-2.1793.51437-2.9763-2.62833-5.76886-5.28495-9.06846-7.87176zm2.34516 2.13805c-1.21659-.1492.39015-.46346 0 0zm6.25198 2.61135c-.81481-.0216.40936-.29242 0 0zm1.75349 1.35931c.73167.52046-.96416-.40807 0 0zm6.93931 6.27199c-1.63271-.29359.1853-.86399 0 0zm-7.73525-1.04054c-.0511.39898-.49196-.35356 0 0zm9.52474-6.71753c3.92514 3.56653 8.7426 7.01522 13.38203 10.47644.66403.4922 3.51437 2.31117 1.86611.90566-4.34165-3.42245-8.56389-6.8752-13.35635-10.22303-.64226-.37509-1.08272-.84456-1.89179-1.15907zm-19.39019-3.23773c-.77195.70632 1.33534.1542 0 0zm26.22814 6.77963c-.21888.49143 3.24601 2.73092 1.94963 1.32371-.50241-.46426-1.05877-.94887-1.94963-1.32371zm-26.91151-3.65136c.30932.75004.12226-.48201 0 0zm-.22522 1.19664c-.40385 1.48315 2.34092 3.13974 2.3928 4.66124 10.32563 4.70065 4.75376 2.46283-1.14216-3.14427-.41414-.50567-.72937-1.01601-1.25062-1.51698zm.55499.2736c-.18295.9788 2.41309.90452 0 0zm1.51244 1.46092c-.41245.39733.9477.2481 0 0zm.93689.94333c.73082.57495-.20216-.41069 0 0zm5.13607 1.59232c.25629.3897.33628-.25426 0 0zm-3.55328-.21401c.76953.60828-.25549-.41532 0 0zm.45392.56605c-.12324.47223.95767.1758 0 0zm.47816.41962c-.24876.43836.80523.17939 0 0zm.47359.44118c-.15573.42843 1.29208.36069 0 0z" opacity=".5" stroke-width=".115997"/><path d="m-833.21267 161.92943c-.0483 1.50058.79406 4.39226 1.14462 6.51571 1.01843 3.15581.83116 4.62174 1.86679 7.80473.37171 1.28121-.44853.78031-.94819-1.021-1.52136-2.19537.22967 2.65498.15725 3.47727.8745 4.17625 1.96197 8.67391 2.52241 12.38125.0546-1.56983-.21594-3.70132-.6073-5.98867-.47049-1.43476-.722-3.9566.21345-2.02919.33137 2.23224.99566 4.9429 1.57412 7.49765.26212 1.85387.58414 4.4269 1.7856 7.30541-.12011-2.01667.3053-3.23663-.71962-6.66884-.99268-5.32978-2.39625-11.267-3.97604-17.44329-.67908-2.8237-1.3126-5.58291-1.89033-8.26072-.42127-1.24796-.69377-2.31303-1.12276-3.57031zm3.11903 16.42978c1.12805 2.22133.50828 3.57607-.21827.66429-.16629-.57608-.7459-3.26123.21827-.66429zm3.37617 13.1676c-.36372-.35295-.10231-.40116.0435-.039zm-7.78634-30.84584c-.32363-.0398.44613 3.37479.76221 3.11859-.0619-.74314-.004-1.4517-.76221-3.11859zm2.6448 11.7589c-.23886-1.71257-.6531-3.73751-1.41301-6.19245.0788 1.11785.46281 3.85257 1.41301 6.19245zm-9.96059-21.1057c-.61013.81302 1.09377 5.35578 1.00647 7.04329.99425 2.92447.17386-.77721.0789-1.42882-.32408-1.8147-.67271-3.66722-1.08539-5.61447zm8.09827 16.78671c.23517 2.53738 1.21821 6.21331 1.75082 9.20468 1.19066 2.70593-.0362-1.65271-.0856-2.22867-.48548-2.17857-.91156-4.60244-1.66522-6.97601zm-4.59042-10.83181c.4595 3.78038 1.6004 8.60722 2.46495 13.00404.17219.51631 4.81148 22.80133 3.32137 13.66587-1.80481-8.70839-3.75329-17.62828-5.78632-26.66991zm2.16945 3.67327c-.36957.61437.61173 3.42016 1.0517 5.30408.29231 1.10227 1.12181 4.0808 1.31064 4.3325-.76631-3.1822-1.44442-6.2421-2.36234-9.63658zm-6.96019-9.49984c-.38543 1.34488 1.17506 5.78696 1.13292 7.69635.34265 2.24925.92946 4.90148.83844 6.45596.30489 7.19534-.49082-1.22778-1.89693-6.00395-.77139-2.42211-.48177-3.18704-.50533-4.40802-.54957-1.53835-.44136-2.61585-.11389-2.20412-1.97165-2.80123.19325 2.7592-.33255 3.04321.0964 1.57529 1.1688 4.6812.88483 5.64131-.81569-2.3938-.6708-3.46718-.98168-5.14467-.07-.98503-.46357-3.36342-.77664-4.16716.4649 2.73388.4174 4.67984 1.25569 7.98186.74264 6.79076.20731 2.2318-1.25514-3.07553-.2991-1.53339.27942-2.02984-.80626-4.59025.93039 8.9598 4.86323 28.44182 2.78084 11.11988.23245.7508 10.94685 35.15194 4.52594 7.09509-.54911-3.0559-.94158-5.87104-1.43836-8.8466-1.07594-1.94416.27604 2.26123.18737 2.7912 4.57607 21.07904 1.51688 13.77377-1.50127-2.05033-.63674-3.73248-1.1533-7.28787-1.99798-11.33423zm.47325 2.95975c-.65288-1.26674.42637.2631 0 0zm2.57237 7.02595c-.4705-.8265.3651.33031 0 0zm.45541 2.14603c.20988.88238-.39442-1.08502 0 0zm1.42347 8.74265c-.83662-1.72611.47576-.0553 0 0zm-4.11225-8.07973c-.19939.0602-.13957-.59429 0 0zm8.45822 7.70995c.79717 4.95046 2.16965 10.7664 3.43202 16.40658.18203.80638 1.08811 4.18547.71425 2.13246-1.10352-5.32952-2.12387-10.54727-3.52446-16.3098-.21891-.75167-.27898-1.32657-.62181-2.22924zm-10.04117-20.42987c-.7542-.57953.72068 1.3877 0 0zm12.56359 28.30628c-.33742-.0829.75197 4.03277.586 2.33358-.0987-.63582-.22062-1.33166-.586-2.33358zm-14.29351-28.11871c-.13621.52141.27654-.0118 0 0zm-.64045.1082c-.86718.009.0457 3.23588-.56952 3.714 4.08389 11.71243 1.75339 5.47584.662-2.03014-.0292-.55854.002-1.01878-.0924-1.68385zm.21063.6354c-.5231.0898 1.03673 2.68288 0 0zm.27037 1.93178c-.41142-.30409.45265 1.02365 0 0zm.15123 1.20736c.18623.8968.0553-.3185 0 0zm2.3479 5.61712c-.0139.36715.30587.26743 0 0zm-2.00104-3.63763c.19488.94509.0258-.37351 0 0zm.0271.6155c-.27297.008.4892 1.01345 0 0zm.10341.59891c-.33249-.12779.39794.86096 0 0zm.0916.60033c-.2735-.0368.6076 1.40193 0 0z" opacity=".5" stroke-width=".089258"/><path d="m-839.94168 155.27637c.60651.10417 1.65059.57822 2.45302.84802 1.12625.54631 1.73743.60714 2.87224 1.16062.46281.20959.37185-.0695-.28187-.35752-.67512-.61755 1.03109.27638 1.36958.32003 1.5535.58469 3.20713 1.25694 4.61496 1.71291-.63504-.10779-1.45135-.35484-2.31389-.64949-.51103-.25055-1.48599-.52281-.83992-.0976.84849.27277 1.84391.68052 2.78844 1.0509.70641.22271 1.69244.51961 2.68338 1.09754-.79046-.19406-1.33502-.16592-2.57092-.73591-1.99904-.71014-4.18621-1.58821-6.4455-2.53662-1.03865-.42099-2.05759-.82357-3.05143-1.20344-.4429-.22146-.83249-.38501-1.27809-.60946zm6.15443 2.20635c.73793.50468 1.36231.43037.29472-.0113-.20822-.094-1.20472-.47499-.29472.0113zm4.81561 2.02434c-.0927-.13411-.14679-.0616-.0214.01zm-11.29717-4.70633c.0274-.0977 1.29009.39637 1.1455.46851-.28894-.0766-.58006-.11544-1.1455-.46851zm4.34977 1.69961c-.65301-.20477-1.40755-.48542-2.28797-.90095.43652.11114 1.47894.43889 2.28797.90095zm-7.11226-4.57386c.40646-.11418 1.99594.74174 2.68243.84924 1.03694.52101-.33398-.0105-.58191-.0896-.68249-.23773-1.37683-.48562-2.10051-.75968zm5.63337 3.6893c.98335.26871 2.32229.84568 3.44754 1.23708.92337.56117-.65608-.14085-.87982-.20067-.80651-.31357-1.719-.62913-2.56772-1.03641zm-3.71967-2.195c1.45052.43223 3.22867 1.14605 4.8717 1.74521.18351.091 8.47678 3.20306 5.02218 2.0476-3.24188-1.21373-6.54917-2.48612-9.89388-3.79281zm1.17973.92339c.29493-.0596 1.28618.44833 1.9809.72538.40183.17227 1.48234.64942 1.55782.72442-1.17039-.47472-2.30364-.91405-3.53872-1.4498zm-2.87108-2.7824c.5892-.006 2.15753.79947 2.92672.93766.8538.27741 1.83618.65791 2.46996.75384 2.83675.65623-.42556-.24018-2.14809-1.02749-.86576-.41629-1.21027-.39194-1.69539-.49508-.54193-.28183-.98725-.33514-.86625-.20702-.85736-.79687 1.07764.27396 1.26132.14272.6171.15233 1.71618.71047 2.13799.70318-.84854-.42701-1.29711-.46928-1.92649-.69234-.38458-.0981-1.28323-.40055-1.56289-.55537 1.03128.35132 1.8158.49081 3.02453.99601 2.61661.75225.86485.2365-1.06258-.60913-.57333-.20826-.84898-.0784-1.72815-.59738 3.45898.97806 10.72552 3.66277 4.07611 1.68899.26924.12709 12.59785 5.96916 2.23394 1.88161-1.14884-.4013-2.2223-.73786-3.34598-1.11755-.63403-.46762.86747.25889 1.09122.27475 7.81942 2.99851 5.30589 1.52887-.61978-.60025-1.40774-.48024-2.76067-.91141-4.2662-1.47716zm1.1205.37157c-.41953-.29062.0484.14532 0 0zm2.46674 1.30538c-.2678-.2026.083.13289 0 0zm.79747.30222c.32489.13087-.38131-.20077 0 0zm3.30642 1.10502c-.57874-.3805-.0855.13465 0 0zm-2.68286-1.83837c.0507-.0535-.21905-.0876 0 0zm1.95561 3.07902c1.87341.62312 4.01623 1.48255 6.10343 2.29595.2982.11675 1.52871.64783.75755.37677-1.98416-.7425-3.93469-1.4519-6.0524-2.31533-.2714-.12322-.49331-.18607-.80858-.35739zm-6.83126-4.54413c-.13126-.26602.45886.31995 0 0zm9.64476 5.90196c.0119-.10511 1.51245.53757.85507.35515-.2411-.079-.50311-.16942-.85507-.35515zm-9.33912-6.39261c.22666.001-.0416.0799 0 0zm.12864-.1786c.11901-.25271 1.28793.26839 1.56115.12634 4.13935 2.11642 1.95603.94392-.90013.0335-.21948-.0525-.40765-.0798-.66105-.15974zm.22601.11162c.10565-.14576.93468.51438 0 0zm.73647.23126c-.0667-.14419.34902.21294 0 0zm.46267.13935c.3338.1251-.13473-.009 0 0zm1.93327 1.12876c.14867.0249.0661.11044 0 0zm-1.18792-.87138c.35196.13143-.15281-.0219 0 0zm.24254.0564c.0396-.0791.34005.22282 0 0zm.2257.0774c-.007-.10721.29125.18413 0 0zm.22786.0741c.022-.0828.47964.28803 0 0z" opacity=".75" stroke-width=".031853"/><path d="m-813.80353 172.03362c1.51926-1.43987 5.14928-3.02796 7.61369-4.53411 4.03601-1.60744 5.41503-3.19173 9.49213-4.80231 1.60721-.70556.47212-1.2858-1.77029-.26473-3.418.0871 2.92464-2.14781 3.72268-2.99512 4.98576-2.72747 10.46459-5.48008 14.72847-8.17515-1.58632 1.51148-3.99899 3.12651-6.66394 4.73149-1.84055.72132-4.64357 2.71912-1.94324 2.13497 2.56277-1.63044 5.87145-3.27811 8.95407-4.89142 2.11855-1.37067 5.02757-3.32606 8.91357-4.44656-2.18071 1.70037-3.12595 3.36075-7.45337 5.21389-6.27026 3.63732-13.47869 7.3115-21.06727 10.98179-3.43696 1.73277-6.77286 3.46407-9.98248 5.19136-1.60995.61215-2.91862 1.24499-4.54402 1.8559zm19.3732-11.13775c3.14962-.60988 4.08864-2.64063.52481-.88713-.72204.31832-3.94069 2.04998-.52481.88713zm16.18463-7.81462c-.63895-.13705-.49267.23876-.008.091zm-37.8214 18.46159c-.28427-.3739 3.83334-2.53455 3.80506-1.89824-.81682.60421-1.50786 1.32859-3.80506 1.89824zm14.17523-7.44815c-1.95462 1.27036-4.36473 2.60523-7.48011 3.89668 1.21795-.927 4.34114-2.95231 7.48011-3.89668zm-29.35699 6.75537c.38471-1.52084 6.37313-3.53298 8.05688-5.19404 3.77805-1.42556-.67514.93456-1.4219 1.41275-2.12448 1.25609-4.30659 2.51579-6.63499 3.78126zm23.48162-5.14975c2.80686-2.0328 7.35546-4.16296 10.85626-6.23555 3.69897-.97567-1.74041 1.47243-2.37455 1.93892-2.62286 1.38564-5.45538 3.07199-8.48171 4.29663zm-14.67496 4.12849c4.26382-2.89019 10.124-5.87745 15.33094-8.82018.66448-.25592 27.24876-14.84453 16.66-8.34188-10.38236 5.71111-21.09181 11.43429-31.99094 17.16206zm5.4366-.62281c.3594-1.0332 4.0047-2.36616 6.28793-3.53884 1.36211-.64187 5.0725-2.32607 5.47519-2.31782-3.87409 1.95149-7.55515 3.90248-11.76312 5.85666zm-15.07341-.10102c1.10475-1.72445 6.88111-3.826 8.82879-5.63361 2.58888-1.63178 5.7788-3.32404 7.32188-4.86759 7.68775-6.22365-1.64125.50538-7.64803 3.10969-3.08997 1.24672-3.66546 2.31684-4.94885 3.40867-2.00729.71617-3.043 1.84334-2.37034 1.88047-4.38411.0725 3.00533-2.28976 2.90497-3.21763 1.70537-1.32495 5.73017-2.81807 6.51223-4.06033-3.09387 1.16453-4.09778 2.33443-6.07011 3.48122-1.07367.81616-3.83464 2.50195-4.90287 2.84326 3.18304-1.92193 5.16461-3.76995 9.21694-5.74018 7.597-5.2967 2.46917-1.78741-4.13052 1.23341-1.8141 1.02932-1.8944 2.21924-5.36368 3.19437 9.98644-7.05124 33.13468-19.96082 13.61494-6.68851.95282-.39492 44.65809-18.40867 10.75298-.77737-3.58009 2.11095-6.79298 4.1994-10.25049 6.30292-2.82317.42133 2.55129-1.72726 3.0341-2.32661 25.28666-13.56088 15.41704-10.72991-3.25257-.0207-4.34723 2.62136-8.42065 5.23248-13.24937 7.87846zm3.42345-2.11885c-1.80331.33561.59288.29907 0 0zm9.21457-3.19183c-1.21002.16249.61652.15964 0 0zm2.56654-1.3939c1.07227-.54443-1.42088.4965 0 0zm10.13156-6.22631c-2.41746.52458.29986.65428 0 0zm-11.46309 2.2067c-.0873-.30822-.72084.36893 0 0zm14.34268 3.64567c5.73027-3.53684 12.78966-7.13905 19.58417-10.71944.97257-.50992 5.15569-2.46501 2.7468-1.05311-6.35321 3.49649-12.5281 6.99578-19.55323 10.51326-.94355.4129-1.5846.86485-2.77774 1.25929zm-28.71689 6.03225c-1.16701-.42423 1.97961-.36072 0 0zm38.77559-10.06879c-.33927-.35183 4.74502-2.75107 2.85899-1.40055-.7332.45894-1.54605.94355-2.85899 1.40055zm-39.87997 7.70217c.4382-.65185.19541.36161 0 0zm-.36868-.91177c-.64174-1.10826 3.38869-2.91487 3.42241-4.13448 15.20751-5.58004 6.99282-2.80658-1.60745 2.7048-.60091.4761-1.05459.9385-1.81489 1.42977zm.81682-.31659c-.29965-.74602 3.5595-1.14973 0 0zm2.20551-1.43178c-.62412-.24249 1.40098-.36627 0 0zm1.36512-.91738c1.06946-.58765-.28861.36278 0 0zm7.58561-2.18228c.37016-.35491.50687.14237 0 0zm-5.27321.8037c1.12601-.62106-.36782.37587 0 0zm.65838-.53109c-.19665-.3536 1.41785-.31054 0 0zm.69848-.41905c-.3821-.30434 1.19127-.2862 0 0zm.6911-.43534c-.24349-.31313 1.90945-.51725 0 0z" opacity=".75" stroke-width=".126376"/><path d="m-825.20069 106.72499c1.71921.008 5.01025-.91181 7.43325-1.31932 3.58933-1.10292 5.27213-.95507 8.89216-2.07592 1.45819-.40601.90394.42745-1.14673.97535-2.47788 1.57992 3.0344-.30092 3.97757-.2506 4.76105-.98644 9.88509-2.19442 14.11662-2.8543-1.79864-.0124-4.23272.31531-6.84242.768-1.63168.5089-4.51313.82808-2.3283-.15889 2.548-.39123 5.63596-1.12815 8.54743-1.77507 2.11642-.311848 5.05483-.702886 8.32238-1.981332-2.30615.17424-3.71291-.218283-7.61854.898547-6.079 1.135565-12.84384 2.698225-19.87827 4.443485-3.21703.75474-6.3613 1.46221-9.41369 2.11171-1.41896.45467-2.63201.7557-4.06146 1.21834zm18.73796-3.55949c2.51683-1.1874 4.08246-.60419.76569.20037-.65568.18172-3.71642.8333-.76569-.20037zm14.99692-3.728942c-.39557.373112-.45691.113065-.0457-.04253zm-35.134 8.612762c-.038.32461 3.85347-.53666 3.55271-.84577-.8494.0818-1.66203.0425-3.55271.84577zm13.4012-2.95993c-1.95519.28479-4.26391.75331-7.05684 1.57896 1.27802-.10883 4.4001-.56617 7.05684-1.57896zm-23.93114 10.52477c.94517.58813 6.10638-1.23733 8.04053-1.19539 3.32503-1.07253-.89393-.15293-1.63776-.0405-2.07012.37274-4.18297.77104-6.40277 1.23591zm19.02983-8.54695c2.89963-.30326 7.08529-1.38477 10.49774-1.99759 3.07021-1.26302-1.8914.0806-2.54968.14544-2.48295.54387-5.24814 1.03494-7.94806 1.85215zm-12.2941 4.88011c4.31753-.56092 9.8172-1.83116 14.83102-2.81358.58711-.18601 25.99331-5.42262 15.56871-3.68753-9.92826 2.03823-20.0953 4.22577-30.39973 6.50111zm4.15478-2.26752c.71208.35296 3.90154-.70343 6.0482-1.19388 1.25518-.32184 4.64595-1.23112 4.9297-1.42666-3.62546.85158-7.11296 1.6117-10.9779 2.62054zm-10.7135 7.21345c1.54885.3492 6.59817-1.33018 8.78528-1.33934 2.56723-.40297 5.59011-1.06087 7.37204-1.01162 8.23107-.49808-1.39423.52366-6.82968 2.05768-2.75507.83623-3.63767.56724-5.03507.62359-1.74843.59075-2.98464.51151-2.52091.17307-3.161 2.04635 3.15459-.26732 3.4921.25071 1.80134-.1387 5.33227-1.29422 6.4382-1.03612-2.72163.87977-3.95398.76375-5.86732 1.1196-1.12615.0964-3.84004.5538-4.75292.88837 3.11922-.53822 5.34833-.543 9.1093-1.46975 7.75759-.92484 2.55041-.2672-3.49186 1.33741-1.74863.3402-2.3306-.22482-5.23665.92933 10.2366-1.1708 32.45011-5.62586 12.66638-3.07877.85415-.25255 39.9901-11.88806 8.01728-4.71527-3.48593.63104-6.69991 1.09902-10.09508 1.6756-2.2007 1.12788 2.5825-.33671 3.19136-.2623 24.0269-5.14102 15.73457-1.88644-2.31229 1.55593-4.25854.73682-8.31713 1.34874-12.93016 2.30188zm3.37764-.55262c-1.43503.68673.29123-.43332 0 0zm7.98395-2.76039c-.93526.49255.36963-.37387 0 0zm2.44639-.51293c1.00536-.23352-1.23302.42346 0 0zm9.97644-1.65791c-1.95668.88275-.0744-.47415 0 0zm-9.15436 4.32814c.0737.19772-.67716.1555 0 0zm8.62905-8.66299c5.64929-.92992 12.27599-2.45825 18.70405-3.87176.91898-.20365 4.76659-1.20024 2.42478-.77134-6.07609 1.24637-12.02616 2.4066-18.59106 3.96158-.85549.23905-1.51231.31454-2.53777.68152zm-23.15547 10.58718c-.64584.76956 1.57194-.75775 0 0zm32.11432-13.32047c-.0869.33955 4.59964-.86009 2.65806-.64852-.72566.1158-1.51949.25633-2.65806.64852zm-31.85898 15.04488c.60017.12217-.02-.27615 0 0zm.1389.63736c.0301.86672 3.7038-.13255 4.26566.46961 13.31424-4.39738 6.22838-1.9-2.33991-.60729-.63881.0442-1.16649.0256-1.92574.13766zm.72254-.22763c.11511.52054 3.04743-1.10852 0 0zm2.20543-.32219c-.33851.41948 1.16141-.48002 0 0zm1.37883-.18362c1.0224-.21027-.36597-.0467 0 0zm6.37619-2.49813c.42068.004.29901-.31297 0 0zm-4.11794 2.09819c1.0775-.22021-.42824-.0158 0 0zm.70407-.0436c.0156.27268 1.14887-.51629 0 0zm.68329-.11947c-.1385.33583.97642-.42096 0 0zm.6852-.10767c-.0358.27442 1.59088-.64509 0 0z" opacity=".5" stroke-width=".09552"/><path d="m-789.19967 97.279555c1.40265.99415 4.62487 2.1318 6.84229 3.190135 3.57157 1.15912 4.86407 2.24683 8.47108 3.40891 1.42682.50533.49436.86915-1.49893.13962-2.93583-.13021 2.65663 1.4968 3.39974 2.0798 4.46377 1.92756 9.35191 3.8823 13.19465 5.77298-1.46513-1.04338-3.64577-2.1734-6.04196-3.30201-1.62793-.52077-4.16986-1.91477-1.81453-1.46756 2.31038 1.14347 5.26132 2.31417 8.01609 3.45714 1.91151.96052 4.54135 2.32842 7.95037 3.15902-1.98776-1.18216-2.91377-2.31157-6.75224-3.641-5.62822-2.56259-12.06317-5.16958-18.82368-7.78197-3.06683-1.23025-6.04694-2.457395-8.91854-3.679205-1.42266-.44296-2.58851-.8934-4.02434-1.33586zm17.38249 7.850495c2.74222.47387 3.68872 1.85063.51164.60386-.64109-.22791-3.52072-1.45282-.51164-.60386zm14.41764 5.56274c-.53812.0782-.43895-.16992-.013-.061zm-33.70612-13.132955c-.21758.24388 3.46249 1.77436 3.39388 1.34857-.74226-.42098-1.38485-.91997-3.39388-1.34857zm12.66972 5.275545c-1.76399-.89005-3.92291-1.8328-6.68332-2.76139 1.10862.64508 3.92688 2.06422 6.68332 2.76139zm-25.63452-5.132395c.4358 1.02436 5.70909 2.495025 7.26817 3.640435 3.33778 1.03216-.64386-.6387-1.3173-.97397-1.90859-.884085-3.86685-1.771795-5.95088-2.666445zm20.48645 3.935745c2.54767 1.41747 6.59506 2.93668 9.74032 4.39535 3.23862.72987-1.59449-1.02054-2.17056-1.34562-2.34482-.98116-4.89032-2.16767-7.56976-3.04973zm-12.86658-3.067825c3.85629 2.021075 9.08767 4.140635 13.75602 6.216695.58743.18501 24.39154 10.49332 14.86189 5.92511-9.29752-4.03495-18.87627-8.08485-28.61791-12.141805zm4.70343.53067c.38011.69797 3.59765 1.665465 5.63651 2.497165 1.21229.45761 4.5101 1.66117 4.85469 1.66411-3.45677-1.38561-6.74807-2.76683-10.4912-4.161275zm-12.91319-.24992c1.06719 1.175565 6.16498 2.701525 7.96047 3.950425 2.33286 1.14491 5.18514 2.34289 6.61542 3.40684 7.02356 4.32067-1.44205-.37228-6.77239-2.23904-2.7355-.89817-3.30342-1.62537-4.47962-2.38198-1.77051-.52084-2.73687-1.29585-2.16288-1.30648-3.76293-.14083 2.73572 1.59335 2.7144 2.21126 1.55414.92126 5.10813 2.00377 5.86511 2.85034-2.73315-.84332-3.67522-1.64622-5.44578-2.45406-.97717-.56802-3.46135-1.75262-4.40077-2.00317 2.86238 1.35129 4.68974 2.6279 8.3006 4.02982 6.88116 3.69936 2.2411 1.24638-3.62649-.91119-1.62675-.72604-1.77854-1.52284-4.82025-2.24752 9.05161 4.92211 29.79342 14.03609 12.13651 4.75616.84423.28394 39.56253 13.24161 9.27115.74592-3.21587-1.48597-6.11547-2.94919-9.22576-4.42761-2.44927-.34098 2.3073 1.20792 2.76293 1.61859 22.62019 9.59421 13.96301 7.49465-2.78651-.0547-3.90904-1.84321-7.58267-3.6738-11.90614-5.543585zm3.08218 1.487945c-1.56912-.26224.48731-.18739 0 0zm8.12088 2.32693c-1.04849-.1341.51732-.0937 0 0zm2.29711.98548c.95708.38639-1.25253-.3617 0 0zm9.11849 4.37393c-2.10872-.40145.21147-.43084 0 0zm-9.9795-1.716c-.0533.20418-.64361-.26172 0 0zm12.03968-2.134c5.15835 2.48408 11.46051 5.03981 17.53411 7.57542.86921.36122 4.59111 1.75574 2.42787.76155-5.68949-2.47023-11.22634-4.93857-17.49322-7.43699-.83757-.29577-1.41857-.61129-2.46876-.89998zm-25.03546-4.635725c-.97072.25891 1.72198.28276 0 0zm33.93876 7.544865c-.26619.22801 4.25906 1.93826 2.54827.99609-.66051-.32207-1.39101-.66306-2.54827-.99609zm-34.72035-5.98669c.42108.44477.14227-.23753 0 0zm-.25244.60149c-.47325.72674 3.10785 2.01917 3.22184 2.83482 13.42429 4.04898 6.18962 2.02269-1.56645-1.84126-.54828-.33079-.96952-.64914-1.65537-.99357zm.72219.22874c-.2048.49221 3.13123.84325 0 0zm1.99031 1.0032c-.51805.1489 1.22641.27426 0 0zm1.23411.64177c.95766.41521-.27274-.24846 0 0zm6.65421 1.61801c.34204.24493.42453-.0844 0 0zm-4.576-.64812c1.00847.43873-.34146-.25893 0 0zm.60135.36877c-.14387.23216 1.23698.23737 0 0zm.62793.29473c-.30629.19532 1.04106.21633 0 0zm.62271.30548c-.18694.20406 1.67277.38586 0 0z" opacity=".5" stroke-width=".09552"/><path d="m-837.05243 125.40182c-.27846 1.07972-1.41624 3.06451-2.07952 4.54947-1.30542 2.15593-1.48742 3.22508-2.8095 5.39869-.50313.87957.12731.60487.81996-.63405 1.43054-1.41648-.69521 1.87803-.81826 2.47441-1.42339 2.90157-3.04994 6.01149-4.1748 8.60937.28872-1.12996.90221-2.62888 1.62551-4.22705.59829-.97941 1.28007-2.75988.28134-1.47526-.67336 1.56484-1.65937 3.43822-2.55806 5.20874-.55083 1.30094-1.28848 3.11084-2.65433 5.04939.49314-1.43211.47137-2.3495 1.83797-4.70272 1.73726-3.71564 3.86387-7.82424 6.15305-12.086 1.01883-1.95282 1.99507-3.86414 2.91869-5.72287.52813-.85066.92293-1.58556 1.45795-2.44211zm-5.39325 11.44792c-1.18312 1.47538-1.06424 2.50922.003.49816.22569-.39557 1.15202-2.25936-.003-.49816zm-4.88566 9.08507c.30657-.2155.14851-.27684-.0198-.0324zm11.36619-21.29483c.2162.005-.9828 2.37141-1.13307 2.15551.19302-.52593.30166-1.0394 1.13307-2.15551zm-4.12508 8.15106c.50673-1.20212 1.19062-2.61 2.18533-4.29042-.28123.79256-1.09205 2.71191-2.18533 4.29042zm10.75454-14.09572c.22441.64486-1.80761 3.72389-2.09955 4.94151-1.24217 1.9927.0486-.57449.24398-1.03147.58257-1.26653 1.18873-2.55765 1.85557-3.91003zm-8.66687 11.19319c-.67449 1.79326-2.06443 4.32534-3.02373 6.41329-1.3233 1.81604.36417-1.18002.5147-1.58749.76135-1.51062 1.53512-3.203 2.50903-4.8258zm5.18425-7.28763c-1.07504 2.66056-2.80383 6.00077-4.26632 9.06132-.21716.35216-7.7951 15.838-4.9532 9.44757 2.95605-6.05228 6.04806-12.24132 9.21952-18.50889zm-2.15187 2.40856c.11078.47792-1.09857 2.38696-1.76991 3.6912-.41519.75953-1.56263 2.80782-1.73589 2.96874 1.14883-2.20066 2.21576-4.32277 3.5058-6.65994zm6.43249-6.0907c-.0297 1.00276-1.94878 4.02439-2.31552 5.39629-.68413 1.57588-1.6083 3.41535-1.87042 4.53807-1.68002 5.12231.56868-.82909 2.45746-4.10583.99531-1.65573.96694-2.23329 1.23392-3.10539.6705-1.0455.82319-1.82834.52782-1.56701 1.84489-1.80425-.6933 1.95644-.41397 2.21376-.38687 1.1184-1.71667 3.23305-1.73221 3.94982 1.01797-1.63092 1.14623-2.41457 1.69202-3.58419.24812-.69834.99166-2.36149 1.35862-2.90506-.86266 1.91044-1.23349 3.30908-2.45328 5.5882-1.87792 4.78768-.59356 1.57725 1.44098-2.07416.50848-1.06762.23909-1.48249 1.46491-3.20507-2.44594 6.32198-8.99174 19.87263-4.0807 7.67945-.30424.51391-14.28549 24.05508-4.37208 4.61784.98319-2.13246 1.81607-4.10856 2.74906-6.18883 1.09248-1.28219-.6438 1.59129-.69611 1.97996-7.28858 14.62855-3.81579 9.70982 1.38771-1.31464 1.17906-2.60808 2.24436-5.10163 3.6218-7.91321zm-.91462 2.07137c.68087-.84036-.3283.14472 0 0zm-3.10232 4.76858c.47283-.54375-.30312.19861 0 0zm-.73531 1.49038c-.31688.61049.47727-.7367 0 0zm-2.71805 6.11593c.8937-1.15057-.29436-.0883 0 0zm4.30931-5.3655c.11577.0636.21228-.41136 0 0zm-7.02605 4.65517c-1.53338 3.464-3.61501 7.48891-5.5896 11.39922-.28331.5589-1.56257 2.88626-.89886 1.45413 1.80844-3.70409 3.54038-7.33664 5.62904-11.32042.29574-.51593.4529-.92155.85942-1.53293zm10.66693-13.60341c.60423-.33778-.74939.92005 0 0zm-13.91257 18.98623c.23393-.0247-1.31504 2.81135-.85792 1.61133.19461-.44527.41645-.93116.85792-1.61133zm14.98564-18.67456c-.02.38741-.17529-.0368 0 0zm.38928.14313c.55555.095-.69676 2.31298-.40002 2.7185-5.04036 7.97028-2.25628 3.74228-.007-1.52191.13397-.39707.20901-.72989.40672-1.19658zm-.26642.43351c.31765.11795-1.21963 1.81532 0 0zm-.57219 1.3559c.32713-.1756-.50205.68679 0 0zm-.34623.84927c-.30465.62322.0302-.23379 0 0zm-2.66748 3.78252c-.0668.26439-.25173.16019 0 0zm2.03627-2.4003c-.32016.65694.0604-.27016 0 0zm-.14434.43808c.17377.0337-.52343.67572 0 0zm-.18999.41835c.24003-.0574-.43332.57587 0 0zm-.18266.42059c.18339.002-.67964.94185 0 0z" opacity=".75" stroke-width=".061932"/></g><path d="m-1211.2419 206.29665c1.3187.20467 4.0074-.088 5.9395-.10608 2.9499-.39221 4.2161-.0894 7.1928-.49122 1.191-.12855.619.41743-1.052.58133-2.1803.8699 2.383.13062 3.0984.27652 3.8291-.17147 7.9759-.46309 11.3411-.45673-1.3789-.21709-3.3055-.25872-5.389-.22915-1.3423.18381-3.611.0842-1.7599-.38552 2.0252.008 4.5259-.17402 6.8751-.31084 1.68.0165 4.005.0701 6.7387-.48788-1.8014-.13914-2.8127-.58913-6.0079-.22331-4.8673.1282-10.3365.48974-16.0446.95372-2.6028.1804-5.1415.33464-7.5995.45708-1.1695.16871-2.1538.24875-3.3327.42208zm15.0136-.4385c2.1412-.57807 3.241.0299.5528.23518-.5354.0572-3.0001.18018-.5528-.23518zm12.1709-.99519c-.3693.22736-.3707.0299-.027-.0366zm-28.4916 2.24127c-.086.2332 3.0533.0528 2.8767-.20825-.6666-.0384-1.2837-.16108-2.8767.20825zm10.8105-.61685c-1.5514-.0176-3.4065.0583-5.6962.33968 1.0005.0681 3.4782.0944 5.6962-.33968zm-20.2252 4.93626c.6224.53978 4.9062-.19951 6.384.0548 2.7416-.40054-.6595-.21531-1.2504-.21906-1.6551.0334-3.3474.0806-5.1336.16423zm16.1141-4.05537c2.2798.11337 5.6839-.19423 8.4118-.24817 2.5795-.56943-1.4665-.15971-1.9833-.18839-2.0021.11094-4.2118.15063-6.4285.43656zm-10.2977 2.15033c3.4138.0887 7.86-.20505 11.8825-.34432.4836-.0683 20.9123-.96327 12.6027-.89874-7.9817.34379-16.173.76922-24.4852 1.24306zm3.5887-1.17923c.4848.34068 3.1195-.0637 4.854-.17449 1.0204-.0904 3.7838-.36386 4.036-.47417-2.9335.20408-5.745.35716-8.89.64866zm-9.494 4.041c1.1279.4347 5.3003-.21065 6.9813.0356 2.0421.002 4.4788-.13007 5.8384.11204 6.4079.58726-1.1626.22207-5.6058.71634-2.2624.29347-2.8929-.005-3.9758-.1258-1.4464.23021-2.3817.0292-1.9661-.16487-2.7868 1.1323 2.4692.16914 2.6374.58733 1.4075.1068 4.3219-.33069 5.1257-.0138-2.2445.32923-3.1703.10178-4.702.14098-.8817-.0597-3.046-.0387-3.8057.10062 2.4897-.0332 4.2021.22105 7.2529-.0224 6.1193.22015 2.0054.0993-2.9163.57512-1.4024.0468-1.7501-.43406-4.1842.0746 8.066.3268 25.9057-.3653 10.267-.78877.7002-.0861 32.7958-4.07704 6.9847-2.52424-2.7876.0588-5.3378.0297-8.0461.0591-1.888.57103 2.0422.0522 2.4966.17704 19.3527-.98449 12.4135.43878-2.0489.87146-3.3994.0469-6.6235.0255-10.3331.18964zm2.6907-.0139c-1.2226.3367.2998-.28353 0 0zm6.6156-1.09724c-.8047.25243.3496-.23091 0 0zm1.9686-.0925c.813-.0547-1.0212.16737 0 0zm7.9519-.0598c-1.6576.41987.026-.35566 0 0zm-7.7898 2.10939c.021.15342-.5473.0355 0 0zm8.1482-5.34308c4.5012-.0274 9.8582-.37971 15.0424-.67097.7415-.0428 3.871-.32734 1.9974-.28419-4.8845.20962-9.6572.37078-14.9715.74981-.6988.076-1.2165.0553-2.0683.20535zm-19.6406 5.07166c-.6311.48858 1.3401-.37285 0 0zm27-6.03628c-.1264.2385 3.683-.0976 2.155-.16733-.5776.00085-1.2118.0119-2.155.16733zm-27.1069 7.32799c.4393.15882.033-.20443 0 0zm-.01.48258c-.1292.63789 2.8673.3313 3.1929.83701 10.9962-1.679 5.1164-.67044-1.69-.71508-.4983-.0415-.9002-.11619-1.5029-.12193zm.5948-.0831c0 .39432 2.5348-.45898 0 0zm1.7501.0192c-.3336.26791.9762-.21704 0 0zm1.091.0251c.822-.0357-.2728-.0765 0 0zm5.335-1.09118c.3224.0516.2846-.19449 0 0zm-3.5306 1.05955c.866-.0365-.3261-.0611 0 0zm.5482.0495c-.036.20142.9729-.24502 0 0zm.5457-.008c-.1653.22979.8237-.19521 0 0zm.5451.00043c-.076.19674 1.3349-.2882 0 0z" fill="#d99b3b" opacity=".5" stroke-width=".072894"/><ellipse cx="-1172.8158" cy="365.9628" fill="url(#g)" rx="27.178534" ry="26.787498" transform="matrix(.99253212 .12198356 -.12198356 .99253212 0 0)"/><g stroke-width=".349292" transform="matrix(.78514631 0 0 .78514631 95.157915 381.77531)"><path d="m-1638.2664-136.9936c-3.6073 1.10492-7.4134-1.94946-2.1568-3.62763 8.8167-2.68538 18.1811.42374 22.8341-2.25419 2.6849-8.38914 5.8098-27.20579 2.6166-24.57976-17.3991 1.67032-27.5845-1.45225-36.9918 5.7508-5.782-.14195-5.6545-9.4899.3642-9.1095 11.5286-5.13455 30.6065-3.78505 38.8156-6.96283.5577-1.81508-.3495-2.86166 1.0563-3.43628.9889-.40417 2.5386-.1373 3.5252.18423.906.29527.1256 3.11005.4106 3.60902 6.6717 3.17941 23.9942-6.02401 23.2702-1.30197-1.7491 4.24044-3.3582 6.72733-6.3894 10.36344-.1407 2.12112-11.1865.80367-17.2176.88323-1.9919 10.79598-1.1008 23.37679-5.2979 29.51097-5.8704 2.78506-19.4761.79078-24.8393.97047zm-29.6163-4.57475c-.9331-7.90514 1.3691-18.11448-.1591-21.80633-1.8879.0302-4.3913-.53483-5.3992.38864-4.3425 3.97869-1.3954 14.6265-3.2308 19.91017-.789 3.84586-8.6564 6.54325-7.0757.62523 1.9301-7.46678 5.1822-16.13151 1.5739-22.67185-1.5515-1.11599-2.0307-3.16841.2934-3.53325 4.7684-.73996 14.6636.17885 14.9173-2.38783.6557-6.6327 1.5907-12.30635.5085-11.87144-3.6664-.58836-10.0695 2.45278-14.9913 2.91632-5.4816.76608-5.9888-5.15154-1.476-7.19134 4.5272-1.96874 5.2866-6.80838 5.5367-11.15107-.1336-2.66319 1.2425-11.00093 4.7796-8.1306 2.2725 4.38837-1.0421 9.4181-1.2075 14.91908 1.7623-.27361 7.0436-.0431 8.7677-1.08575 1.1076-5.19143.2786-11.85955 3.8422-15.64035 5.8528-2.87477 5.2254 4.89717 3.5962 8.49632-4.2877 18.99049-2.6774 40.52434-3.4041 57.90751-1.5526 5.13109-4.6881 5.92829-6.8718.30654zm21.7466-9.38126c-5.737-.89142-4.8625-9.49764.9177-8.73329 6.3707-.2534 12.7631-.61332 19.1353-.31028 4.4325 2.24739-3.7008 5.38379-5.9034 6.10227-3.5645 2.01799-10.5872 4.00357-14.1496 2.9413zm-3.5111-25.3566c-3.5478-.5471-10.1279-12.00536-2.7846-9.11733 4.5385 1.75877 9.5221-1.83657 13.5574-3.65407-.8108-1.9189.4754-5.95254-.5296-7.12697-.4692-.54833-3.6407 1.19183-4.6273 1.98499-4.0397 1.64899-9.0159-2.09573-8.2448-6.38433-1.1927-5.87592 4.1124-2.83065 6.5809-2.3339 11.5549-3.71958 25.0448-7.56923 36.2159-8.38219 3.7063-2.26544 9.0127 2.34926 5.4318 5.8256-3.7666 4.20868 2.6958 8.69614.4484 12.98986-13.5472 4.92059-28.6019 8.88599-40.7777 15.5964-1.6286.77901-3.5083.95691-5.2704.60194zm23.1694-16.85771c.5407-1.62729.8868-5.66239 0-6.6661-1.38-.0688-5.9482.93638-6.8776 1.83245-.3839.53719-1.8592 6.45909.01 7.34286 1.4438.3635 5.938-1.47919 6.8686-2.50921zm15.6962-4.47121c.1561-1.72365-.9807-6.34672-.7395-7.39698-2.6182-.0228-9.5191 1.7281-10.5896 3.09239.5335 1.58975.4904 5.82692.5248 7.51942 1.8499.42393 9.3147-2.751 10.8043-3.21483z" fill="#fff"/><path d="m-1639.4664-137.56427c-3.6074 1.10491-7.4134-1.94946-2.1569-3.62763 8.8167-2.68538 18.1812.42374 22.8341-2.25419 2.6849-8.38914 5.8098-27.2058 2.6166-24.57977-17.3991 1.67032-27.5845-1.45225-36.9918 5.75081-5.782-.14195-5.6544-9.4899.3642-9.10951 11.5286-5.13454 30.6066-3.78505 38.8156-6.96283.5578-1.81508-.3495-2.86166 1.0564-3.43628.9888-.40416 2.5385-.13729 3.5252.18423.9059.29527.1255 3.11005.4106 3.60902 6.6716 3.17942 23.9941-6.02401 23.2702-1.30196-1.7492 4.24044-3.3583 6.72733-6.3895 10.36344-.1407 2.12111-11.1865.80366-17.2176.88322-1.9919 10.79599-1.1008 23.3768-5.2979 29.51098-5.8704 2.78506-19.4761.79077-24.8392.97047zm-29.6164-4.57475c-.9331-7.90514 1.3691-18.11448-.1591-21.80634-1.8878.0302-4.3913-.53482-5.3992.38864-4.3425 3.9787-1.3954 14.62651-3.2307 19.91018-.7891 3.84586-8.6565 6.54324-7.0758.62523 1.9301-7.46678 5.1822-16.13151 1.5739-22.67185-1.5515-1.116-2.0307-3.16842.2934-3.53326 4.7684-.73996 14.6636.17885 14.9174-2.38783.6557-6.63269 1.5907-12.30635.5085-11.87143-3.6665-.58837-10.0695 2.45278-14.9914 2.91631-5.4816.76608-5.9887-5.15154-1.476-7.19134 4.5272-1.96874 5.2867-6.80838 5.5367-11.15107-.1336-2.66317 1.2425-11.00092 4.7796-8.13059 2.2726 4.38837-1.042 9.41809-1.2074 14.91907 1.7622-.27361 7.0436-.0431 8.7676-1.08575 1.1076-5.19143.2787-11.85953 3.8422-15.64033 5.8528-2.87477 5.2255 4.89716 3.5962 8.49632-4.2876 18.99047-2.6774 40.52433-3.404 57.9075-1.5526 5.13108-4.6882 5.92829-6.8719.30654zm21.7467-9.38127c-5.7371-.89141-4.8626-9.49763.9176-8.73328 6.3707-.2534 12.7632-.61332 19.1354-.31028 4.4325 2.24739-3.7009 5.38379-5.9035 6.10227-3.5644 2.01799-10.5872 4.00357-14.1495 2.94129zm-3.5112-25.3566c-3.5478-.54709-10.1278-12.00536-2.7846-9.11733 4.5385 1.75877 9.5221-1.83657 13.5575-3.65407-.8109-1.9189.4753-5.95254-.5297-7.12697-.4691-.54833-3.6407 1.19183-4.6272 1.98499-4.0398 1.64899-9.0159-2.09573-8.2448-6.38431-1.1928-5.87593 4.1123-2.83066 6.5808-2.33391 11.5549-3.71958 25.0448-7.56923 36.216-8.38219 3.7062-2.26543 9.0126 2.34927 5.4317 5.8256-3.7666 4.20869 2.6958 8.69613.4485 12.98985-13.5472 4.92059-28.6019 8.88599-40.7778 15.59641-1.6285.779-3.5083.95691-5.2704.60193zm23.1694-16.85771c.5408-1.62729.8868-5.66239 0-6.66609-1.38-.0688-5.9482.93638-6.8776 1.83244-.384.53719-1.8593 6.45909.01 7.34286 1.4437.3635 5.9379-1.47919 6.8686-2.50921zm15.6963-4.47121c.1561-1.72365-.9808-6.3467-.7396-7.39697-2.6182-.0228-9.5191 1.72811-10.5896 3.0924.5335 1.58974.4904 5.8269.5248 7.5194 1.8499.42393 9.3147-2.751 10.8044-3.21483z" fill="#1e1e1a"/></g></g></svg>