<svg height="160.52609mm" viewBox="0 0 159.20599 160.52609" width="159.20599mm" xmlns="http://www.w3.org/2000/svg" xmlns:xlink="http://www.w3.org/1999/xlink"><radialGradient id="a" cx="-1164.4655" cy="183.22083" gradientTransform="matrix(1.0928658 .12059494 -.1839198 .57949894 602.51041 430.3835)" gradientUnits="userSpaceOnUse" r="51.982235"><stop offset="0" stop-color="#ffdac0"/><stop offset="1" stop-color="#ffd086" stop-opacity="0"/></radialGradient><linearGradient id="b" gradientUnits="userSpaceOnUse" x1="-863.72858" x2="-858.22321" y1="97.588837" y2="89.665787"><stop offset="0" stop-color="#ca8231"/><stop offset="1" stop-color="#fb984d"/></linearGradient><radialGradient id="c" cx="-844.40564" cy="122.50025" gradientTransform="matrix(-.24517112 .98197283 -1.5171415 -.3787878 -847.11888 992.87803)" gradientUnits="userSpaceOnUse" r="31.494726"><stop offset="0" stop-color="#d4874f"/><stop offset="1" stop-color="#eba97a"/></radialGradient><linearGradient id="d" gradientUnits="userSpaceOnUse" x1="-842.101771" x2="-855.321921" y1="113.500327" y2="106.379177"><stop offset="0" stop-color="#523321"/><stop offset="1" stop-color="#d47b3c"/></linearGradient><linearGradient id="e" gradientUnits="userSpaceOnUse" x1="-866.03174" x2="-866.60504" y1="121.46119" y2="127.63977"><stop offset="0" stop-color="#ca8231"/><stop offset="1" stop-color="#c77439"/></linearGradient><linearGradient id="f" gradientUnits="userSpaceOnUse" x1="-824.51703" x2="-809.62506" y1="84.329185" y2="83.680367"><stop offset="0" stop-color="#fb984d"/><stop offset="1" stop-color="#523321"/></linearGradient><linearGradient id="g" gradientTransform="matrix(-.92800381 .37257069 .37257069 .92800381 -1648.1278 318.46523)" gradientUnits="userSpaceOnUse" x1="-822.29443" x2="-809.15576" y1="80.163322" y2="86.432243"><stop offset="0" stop-color="#fb984d"/><stop offset="1" stop-color="#ca8231"/></linearGradient><g transform="matrix(1.650506 0 0 1.650506 1453.201439 -107.284012)"><path d="m-808.26427 86.207681c1.96594 39.079939-33.89507 54.375079-53.07943 49.637959 15.6071 21.46389 42.3439 19.2886 56.20984 5.26435 13.73277-13.88958 16.0317-38.48478-3.13041-54.902309z" fill="#7e8481"/><path d="m-834.0354 75.482513c-15.46487-.06239-30.05587 11.044045-34.47208 25.811987-1.84682 5.79564-1.95006 12.08316-.99108 18.05335 1.48873 7.82756 5.57985 15.12167 11.61124 20.35266 10.2371 9.81339 26.48762 12.22476 39.36534 6.52722 12.13853-5.1559 21.04356-17.18889 22.1256-30.37379 1.52448-14.33494-6.2539-29.099772-18.95054-35.932372-5.68889-3.153976-12.18317-4.727458-18.68848-4.439055z" fill="url(#b)"/><path d="m-809.62869 83.770408c1.96595 39.236372-38.35303 47.686452-57.53747 42.930372 8.94017 23.15039 40.99297 32.40124 60.66789 12.1917 13.65267-14.02366 16.03177-38.63882-3.13042-55.122072z" fill="url(#d)"/><path d="m-867.28643 126.697c-1.10416-2.18602-1.61014-4.77133-1.99468-6.95735l5.77854.9761c.57242 3.01536 2.15384 4.86447 3.09004 7.04824-1.85853.15511-4.35254-.39065-6.8739-1.06699z" fill="url(#e)" fill-rule="evenodd"/><ellipse cx="-833.15118" cy="111.77588" fill="url(#c)" rx="31.494726" ry="31.04159"/><ellipse cx="-832.64349" cy="112.08342" fill="none" rx="28.216059" ry="27.414209" stroke="#7f5130" stroke-linejoin="round" stroke-miterlimit="5.1" stroke-width=".979182"/><path d="m-809.46087 91.292868c-4.84936-4.37339-8.52652-8.625221-20.05818-10.272564l4.04189-4.800286c3.17304.817026 7.77102 1.174167 15.93031 7.606443z" fill="url(#f)" fill-rule="evenodd"/><path d="m-862.93198 101.60394c2.87082-5.86525 4.69914-11.180967 14.78681-17.006067l-5.53934-2.948793c-2.64019 1.940385-6.77407 3.984885-11.94945 12.993974z" fill="url(#g)" fill-rule="evenodd"/><ellipse cx="-832.97882" cy="111.88448" fill="none" rx="31.560734" ry="30.982956" stroke="#935600" stroke-linejoin="round" stroke-miterlimit="5.1" stroke-width=".49719"/></g><g fill="#d48759" transform="matrix(.99004283 0 0 .94551898 879.234789 -51.815918)"><path d="m-822.70159 167.12782c1.17435.66558 3.78141 1.29925 5.5973 1.95049 2.88166.62279 3.97737 1.37016 6.88694 1.99247 1.15455.28181.45495.63981-1.15984.22768-2.30362.13063 2.19368.95899 2.8203 1.35558 3.6394 1.15246 7.61246 2.29256 10.76383 3.46536-1.22705-.6991-3.01989-1.40924-4.98098-2.10121-1.31287-.27797-3.40881-1.16573-1.53356-1.00278 1.89525.71037 4.29301 1.39132 6.53535 2.06615 1.56919.59903 3.73173 1.45944 6.46041 1.83847-1.64629-.76612-2.45901-1.57508-5.56263-2.30979-4.59928-1.55635-9.83224-3.08354-15.31994-4.58919-2.493-.7183-4.91803-1.44105-7.25786-2.16821-1.14636-.23342-2.09272-.49302-3.24932-.72502zm14.19956 4.75678c2.17958.15314 3.0279 1.15369.44746.43122-.51882-.12731-2.86517-.85625-.44746-.43122zm11.70254 3.20434c-.41417.10365-.35633-.098-.015-.0466zm-27.36879-7.59134c-.15065.20773 2.84514 1.11202 2.75785.78485-.61313-.27011-1.15457-.60904-2.75785-.78485zm10.31443 3.11832c-1.44838-.55566-3.20942-1.12124-5.4392-1.62814.91705.41616 3.23084 1.30169 5.4392 1.62814zm-20.43052-1.98048c.4215.76569 4.65709 1.49718 5.96561 2.26853 2.68899.54212-.5535-.44797-1.10608-.65657-1.56086-.53956-3.1608-1.07802-4.85954-1.61195zm16.31441 1.45313c2.10229.90563 5.38413 1.77206 7.95647 2.66259 2.58761.31383-1.32629-.67101-1.80201-.87936-1.9093-.58087-3.99161-1.30626-6.15446-1.78323zm-10.29348-1.37819c3.17228 1.27358 7.4265 2.51528 11.23746 3.76754.47352.098 19.88383 6.26652 12.07824 3.45223-7.58206-2.4161-15.38497-4.82162-23.3157-7.21977zm3.71608.0423c.35215.51513 2.94209 1.01626 4.60056 1.50459.98319.26152 3.65452.94069 3.92393.91572-2.8099-.8088-5.4902-1.62727-8.52449-2.42031zm-10.10689.8267c.92667.83384 5.02955 1.62241 6.53093 2.45589 1.91291.70972 4.23577 1.41981 5.43723 2.13771 5.82837 2.81924-1.15591-.17669-5.46743-1.21306-2.20791-.48512-2.70909-1.00823-3.68775-1.50617-1.42425-.26674-2.24045-.79566-1.79292-.84939-2.95055.18778 2.26309 1.02815 2.29533 1.51251 1.28693.59664 4.14879 1.16099 4.80709 1.76238-2.20172-.44246-3.00116-.99509-4.44816-1.48601-.80827-.36638-2.84252-1.09513-3.59618-1.2165 2.34288.82903 3.87135 1.68164 6.80291 2.49098 5.66796 2.34518 1.84927.79625-2.90494-.42478-1.32818-.4384-1.50981-1.04881-3.94319-1.37417 7.46018 3.12856 24.38386 8.60645 9.8568 2.75479.68195.155 31.9521 7.21274 7.30117-.15102-2.62966-.90627-5.01047-1.81979-7.55707-2.72851-1.94023-.0725 1.89793.76096 2.28635 1.0457 18.42898 5.70437 11.50029 4.74942-2.18101.17778-3.19941-1.13046-6.21392-2.2697-9.73916-3.38813zm2.52539.9184c-1.24647-.0807.36582-.18495 0 0zm6.52775 1.17499c-.82964-.0217.3967-.11413 0 0zm1.87238.58802c.77819.22608-1.00704-.18342 0 0zm7.46903 2.69506c-1.67899-.14671.13109-.35329 0 0zm-7.93127-.55068c-.0254.1637-.52346-.15351 0 0zm9.23589-2.61978c4.22602 1.53221 9.35119 3.02987 14.29624 4.5299.70757.21337 3.72528 1.00815 1.9568.40274-4.63983-1.47935-9.16027-2.96932-14.25335-4.42499-.67768-.16476-1.15649-.36525-1.99969-.50765zm-19.92325-1.63992c-.73779.27907 1.36749.0846 0 0zm27.10827 3.2078c-.18989.19917 3.48034 1.17701 2.0694.57643-.54143-.19932-1.13906-.40787-2.0694-.57643zm-27.5955-1.92878c.36412.31411.0923-.1968 0 0zm-.14959.48984c-.31217.60513 2.58748 1.33131 2.74107 1.95943 10.80679 2.10048 4.99509 1.09019-1.36934-1.31432-.45447-.21501-.80871-.43035-1.37172-.64513zm.58224.12152c-.12103.40069 2.51268.4109 0 0zm1.63412.62613c-.3929.15732.9797.11719 0 0zm1.0148.40366c.78094.24855-.2327-.1725 0 0zm5.32597.73729c.28657.16427.32495-.0995 0 0zm-3.62582-.14412c.82248.26289-.28723-.17526 0 0zm.49893.24046c-.094.19274.98504.0875 0 0zm.51383.18054c-.2238.17681.83034.0866 0 0zm.5106.18934c-.12988.1742 1.33722.16903 0 0z" opacity=".75" stroke-width=".074998"/><path d="m-788.83819 136.60606c-2.18704 2.18793-6.56724 3.75899-9.73627 5.67039-4.79776 1.4352-6.90956 3.96781-11.75013 5.39143-1.94042.70072-1.0624 2.33383 1.66169 1.2839 3.48147 1.29851-3.92537 2.97946-5.11573 4.30784-6.26538 3.23646-13.03874 6.31043-18.56244 9.79342 2.28728-2.29961 5.45395-4.4482 8.87002-6.46838 2.18256-.63138 5.91698-3.36714 2.9313-3.37629-3.3248 2.11437-7.40857 3.94186-11.24901 5.79879-2.75896 1.79292-6.58077 4.39941-11.00517 4.93849 2.97201-2.41668 4.68177-5.28597 9.8851-7.08055 7.97415-4.47903 16.90979-8.62711 26.22641-12.60405 4.25175-1.94012 8.40111-3.92093 12.4215-5.94807 1.90056-.51521 3.50718-1.20078 5.42273-1.70692zm-24.59181 13.64051c-3.44984-.15163-5.32239 3.45099-.93336 1.52455.87235-.3174 4.90381-2.34929.93336-1.52455zm-19.86414 8.45567c.58081.54537.60511-.25917.049-.17658zm46.51114-20.15411c.11561.85998-5.01688 3.35148-4.69795 2.10832 1.0983-.84081 2.12474-1.97412 4.69795-2.10832zm-17.67349 8.59707c2.54805-1.66561 5.58425-3.26248 9.31075-4.47026-1.64953 1.30496-5.71892 3.95734-9.31075 4.47026zm32.64423-.69937c-1.08162 2.83513-8.03004 4.22887-10.48373 6.78174-4.45503 1.18736 1.10642-1.55341 2.07665-2.17568 2.7126-1.56432 5.48486-3.11094 8.40708-4.60606zm-25.99517.059c-3.75428 2.80319-9.3068 5.04921-13.77801 7.6324-4.17002.33371 2.42464-2.15641 3.2761-2.80392 3.27358-1.60554 6.89554-3.71417 10.50191-4.82848zm16.66131-1.83251c-5.61273 3.86806-12.8772 7.24087-19.46356 10.8069-.78595.21908-34.21409 17.56591-20.58351 9.29146 13.0614-6.80155 26.45767-13.48623 40.04707-20.09836zm-5.75857-1.10992c-.83355 1.88387-5.11263 2.94564-7.94703 4.27712-1.66455.68045-6.16947 2.40717-6.57117 2.21757 4.79176-2.18361 9.38898-4.44934 14.5182-6.49469zm15.13172 6.68378c-1.89961 2.92705-8.67538 4.58847-11.46171 7.31696-3.35172 2.10573-7.33625 4.07225-9.59466 6.45389-10.58208 8.97195 1.88333-.29114 9.12058-2.84527 3.68053-1.13053 4.7485-2.99428 6.53921-4.59637 2.34812-.54946 3.90557-2.32779 3.2452-2.69043 4.44762 1.74281-4.07145 3.22481-4.39396 5.09866-2.32199 1.88041-7.05629 3.09494-8.41087 5.20942 3.64692-.96663 5.19183-2.84295 7.70136-4.2571 1.45365-1.14852 5.00336-3.28663 6.23473-3.50047-4.08241 2.42259-6.92132 5.21623-11.90117 7.36024-10.06755 7.18212-3.30221 2.46431 4.7222-.65662 2.2966-1.2505 2.9206-3.56361 6.85909-3.99508-13.27453 9.61594-42.47633 25.12824-16.76261 7.33935-1.13966.36925-53.37106 17.10867-11.18233-3.09201 4.5685-2.62475 8.75705-5.36309 13.19878-8.02591 3.03509.38314-3.35747 2.31035-4.11719 3.28513-31.65244 15.87733-20.42209 14.53772 3.26564 1.43993 5.574-3.30179 10.86762-6.70113 16.93771-9.84432zm-4.41444 2.70769c1.96899.11368-.46042-.84518 0 0zm-10.73548 2.33346c1.29256.19994-.54789-.58022 0 0zm-3.22063 1.64605c-1.32825.6129 1.65736-.36835 0 0zm-13.04406 7.92593c2.67368.005-.003-1.41984 0 0zm12.54985.57742c-.0528.64576.8943-.41781 0 0zm-12.77787-13.36271c-7.38451 4.51302-16.13719 8.58321-24.61324 12.72438-1.21207.58767-6.31669 2.6455-3.24658.89612 7.99336-4.16543 15.80848-8.41312 24.48799-12.33092 1.13857-.4087 1.99039-1.02466 3.37183-1.28958zm31.66964.45195c.98145 1.33907-2.15798-.13988 0 0zm-43.64068 3.18491c.18089.84021-6.03374 3.38655-3.51813 1.53336.94779-.58992 1.98749-1.19651 3.51813-1.53336zm43.67235 1.9595c-.73878 1.09744-.0316-.79753 0 0zm-.045 1.95746c.141 2.46199-4.74276 4.29333-5.33346 6.68498-17.86021 4.46726-8.32246 2.52917 2.8533-4.64502.82245-.68075 1.49036-1.3974 2.48016-2.03996zm-.96695.27326c-.0388 1.60076-4.109.73711 0 0zm-2.87438 1.87603c.5177.74699-1.57793.12003 0 0zm-1.79343 1.2228c-1.34512.69933.45631-.59147 0 0zm-8.63435 1.04236c-.53464.54273-.44545-.49878 0 0zm5.67662.68278c-1.41731.74095.54192-.58347 0 0zm-.90533.7649c.0364.78233-1.56946.003 0 0zm-.8946.52625c.24577.76486-1.33021.0524 0 0zm-.89463.56169c.10236.72243-2.1588.19915 0 0z" opacity=".5" stroke-width=".186721"/><path d="m-780.62537 123.45691c.59527-.358 1.75664-.68014 2.60538-1.02206 1.26897-.3126 1.84836-.71741 3.12837-1.02939.51456-.14334.30309-.35261-.41996-.14209-.89517-.10209 1.058-.50952 1.3835-.72377 1.67208-.59972 3.47506-1.18834 4.9561-1.80557-.62269.3761-1.4734.7513-2.38787 1.11421-.57703.13919-1.58251.61006-.80269.54235.89165-.37404 1.9784-.72529 3.00193-1.07507.74032-.31578 1.76719-.77049 2.92881-.9485-.80283.40839-1.28089.85124-2.65973 1.22373-2.13204.81387-4.51161 1.60345-6.98881 2.37777-1.13188.37097-2.23745.74529-3.30984 1.12314-.50209.11634-.92927.24983-1.43519.36525zm6.57319-2.48568c.89948-.0584 1.42811-.6081.26054-.23574-.23135.0648-1.30668.44355-.26054.23574zm5.28143-1.64761c-.14572-.0633-.1609.0504-.0148.0258zm-12.37017 3.90778c-.0206-.11838 1.34721-.58704 1.25027-.40492-.29611.14358-.57664.3266-1.25027.40492zm4.71076-1.61686c-.68385.293-1.49443.58763-2.48108.84351.44519-.22154 1.53723-.68843 2.48108-.84351zm-8.53468.85259c.31365-.42351 2.1439-.78 2.81283-1.19557 1.1767-.26984-.30605.24392-.56631.35382-.72571.28258-1.46682.56404-2.24652.84174zm6.79086-.60894c1.01139-.4808 2.4864-.92483 3.68265-1.39125 1.0929-.14328-.65698.35913-.88651.46984-.87269.30134-1.84191.68143-2.79614.92141zm-4.3722.64257c1.50852-.67342 3.44305-1.31539 5.20257-1.96886.2077-.049 9.12968-3.25982 5.4785-1.78172-3.48634 1.2579-7.05889 2.50711-10.68107 3.75058zm1.49203.023c.23841-.28406 1.36778-.53221 2.12274-.78486.44226-.13412 1.63792-.48094 1.74077-.46357-1.2756.41767-2.50128.84239-3.86351 1.24843zm-3.87928-.58992c.5283-.45534 2.3164-.84545 3.07414-1.29339.89859-.37344 1.96096-.74195 2.57699-1.12893 2.86251-1.5057-.49514.0844-2.41359.61071-.97378.24396-1.27319.53064-1.7585.79722-.61939.13149-1.04571.41747-.87718.45318-1.14267-.14222 1.09885-.54739 1.20365-.81824.62715-.318 1.87712-.59812 2.25412-.92666-.96321.22014-1.38733.51961-2.05834.77638-.3923.19504-1.34297.57762-1.66696.63613 1.09292-.43487 1.8651-.89317 3.1894-1.30965 2.70851-1.24221.8896-.4227-1.24069.20143-.6136.22886-.80195.56843-1.83546.72008 3.57287-1.65844 11.37078-4.51378 4.45904-1.41902.30174-.0782 14.12867-3.63821 2.88704.17627-1.22212.47453-2.34624.95624-3.53565 1.43318-.78859.0163.90234-.40234 1.11147-.55694 8.44202-2.96326 5.49385-2.51545-.83724-.12695-1.49219.59293-2.91221 1.1931-4.53224 1.77519zm1.18278-.48261c-.51307.0295.11099.10819 0 0zm2.82982-.57609c-.33546.002.13636.0696 0 0zm.8593-.3058c.35367-.11684-.43697.0901 0 0zm3.49415-1.41555c-.69835.0611-.0147.19948 0 0zm-3.27183.2088c.0209-.092-.23817.0794 0 0zm3.1912 1.58317c1.9784-.80502 4.30933-1.57942 6.56875-2.3574.32306-.11062 1.67899-.51785.85787-.20099-2.13363.77024-4.22158 1.54792-6.53172 2.2992-.30188.0837-.53114.19005-.8949.25919zm-8.26748.66823c-.2417-.16554.56215-.0302 0 0zm11.43432-1.45606c-.038-.11396 1.61321-.61549.93579-.29684-.25404.10481-.53227.2141-.93579.29684zm-11.38619.73364c.20501-.17134-.0005.11136 0 0zm.0332-.2762c-.01-.34283 1.28593-.7131 1.46646-1.06296 4.71426-1.04065 2.20165-.54783-.79621.71903-.2223.11471-.40462.23087-.67022.34408zm.25559-.0608c.0277-.22593 1.08139-.19858 0 0zm.77139-.33015c-.12706-.093.41347-.0533 0 0zm.48185-.21332c.35902-.12939-.1257.0936 0 0zm2.26681-.34603c.14562-.0884.11098.0597 0 0zm-1.47531.0352c.37834-.13691-.14795.0946 0 0zm.24488-.12841c-.00078-.1091.40999-.0367 0 0zm.23946-.0947c-.0558-.10186.34802-.0381 0 0zm.23983-.0996c-.0186-.0994.56609-.0779 0 0z" opacity=".75" stroke-width=".035656"/><path d="m-785.75713 111.31395c-2.58937 2.08081-7.77535 3.57497-11.52736 5.3928-5.68037 1.36495-8.18066 3.77358-13.91171 5.12752-2.29739.66641-1.25784 2.21957 1.96737 1.22104 4.12192 1.23494-4.64748 2.83361-6.05683 4.09696-7.41795 3.07802-15.43736 6.00152-21.9772 9.31401 2.70805-2.18703 6.45726-4.23045 10.50175-6.15174 2.58408-.60047 7.00549-3.20231 3.47055-3.211-3.93644 2.01085-8.77145 3.74889-13.31839 5.51492-3.2665 1.70515-7.79138 4.18405-13.02969 4.69674 3.51874-2.29839 5.54304-5.02721 11.70357-6.73394 9.44109-4.25978 20.02054-8.2048 31.05106-11.98706 5.03391-1.84515 9.94658-3.72899 14.70658-5.65689 2.25018-.49 4.15235-1.14201 6.4203-1.62336zm-29.11575 12.97277c-4.08449-.14421-6.30152 3.28205-1.10506 1.44992 1.03282-.30187 5.80591-2.23429 1.10506-1.44992zm-23.51838 8.04174c.68766.51867.71643-.24647.058-.16794zm55.06738-19.16751c.13689.81788-5.93979 3.18742-5.56219 2.0051 1.30036-.79965 2.51562-1.87747 5.56219-2.0051zm-20.92472 8.17622c3.0168-1.58408 6.61154-3.10278 11.02357-4.25143-1.95299 1.24108-6.77098 3.76361-11.02357 4.25143zm38.64951-.66514c-1.2806 2.69635-9.50727 4.02185-12.41233 6.44976-5.27459 1.12924 1.30995-1.47736 2.45867-2.06917 3.21163-1.48774 6.49387-2.95866 9.95366-4.38059zm-30.77728.0561c-4.44492 2.66598-11.01888 4.80204-16.31263 7.25878-4.93713.31738 2.87068-2.05085 3.87878-2.66666 3.87579-1.52695 8.16404-3.53235 12.43385-4.59212zm19.72634-1.74279c-6.64525 3.6787-15.2461 6.88641-23.0441 10.27787-.93052.20835-40.50815 16.70602-24.37009 8.83662 15.46421-6.46861 31.32487-12.82605 47.41419-19.11449zm-6.81793-1.0556c-.98688 1.79165-6.05313 2.80145-9.40896 4.06775-1.97077.64715-7.30441 2.28933-7.78002 2.10902 5.67326-2.07672 11.1162-4.23155 17.18898-6.17677zm17.91538 6.35659c-2.24906 2.78377-10.27131 4.36386-13.57021 6.95878-3.96831 2.00266-8.68584 3.87291-11.35971 6.13796-12.52878 8.53274 2.22979-.27689 10.7984-2.70599 4.35761-1.07519 5.62204-2.84769 7.74218-4.37136 2.7801-.52257 4.62405-2.21384 3.84219-2.55873 5.26582 1.6575-4.82043 3.06695-5.20228 4.84907-2.74915 1.78837-8.35437 2.94343-9.95814 4.95441 4.31782-.91931 6.14694-2.70379 9.11811-4.04871 1.72107-1.09228 5.92378-3.12575 7.38168-3.32911-4.83342 2.30399-8.19458 4.96088-14.09052 6.99993-11.91959 6.83055-3.90969 2.34368 5.5909-.62447 2.71908-1.18929 3.45788-3.38916 8.1209-3.79951-15.71653 9.14522-50.29034 23.89815-19.84629 6.98007-1.34931.35118-63.18927 16.27117-13.23945-2.94064 5.40894-2.49627 10.36802-5.10057 15.62685-7.63302 3.59343.36437-3.9751 2.19724-4.87459 3.1243-37.47525 15.1001-24.17897 13.82606 3.86639 1.36945 6.5994-3.14016 12.86684-6.3731 20.05359-9.36243zm-5.22652 2.57515c2.33121.10811-.54512-.80381 0 0zm-12.71039 2.21924c1.53034.19014-.64868-.55182 0 0zm-3.81312 1.56546c-1.57258.5829 1.96227-.35032 0 0zm-15.44364 7.53795c3.16553.005-.004-1.35035 0 0zm14.85853.54915c-.0626.61415 1.05882-.39737 0 0zm-15.12851-12.70858c-8.74297 4.2921-19.1058 8.16305-29.14111 12.10149-1.43505.55891-7.47873 2.51599-3.84382.85226 9.46382-3.96153 18.71661-8.00128 28.99282-11.72731 1.34802-.38867 2.35655-.97449 3.99211-1.22644zm37.49563.42983c1.162 1.27352-2.55497-.13304 0 0zm-51.66887 3.029c.21417.79909-7.14373 3.22077-4.16533 1.4583 1.12215-.56104 2.35311-1.13794 4.16533-1.4583zm51.70638 1.86357c-.8747 1.04373-.0375-.75848 0 0zm-.0532 1.86165c.16694 2.34146-5.61525 4.08316-6.31461 6.35772-21.14578 4.24858-9.85348 2.40536 3.37821-4.41763.97374-.64742 1.76451-1.32899 2.9364-1.94009zm-1.14483.25987c-.0459 1.5224-4.8649.70103 0 0zm-3.40317 1.7842c.61295.71043-1.8682.11415 0 0zm-2.12334 1.16294c-1.59256.6651.54025-.56251 0 0zm-10.22274.99134c-.63299.51615-.52739-.47437 0 0zm6.72091.64935c-1.67805.70468.64161-.5549 0 0zm-1.07187.72745c.0432.74404-1.85819.002 0 0zm-1.05919.5005c.29098.72741-1.57492.0498 0 0zm-1.0592.53419c.12119.68706-2.55593.18941 0 0z" opacity=".5" stroke-width=".198136"/><path d="m-813.39544 100.43425c-1.60693 1.94333-4.68428 4.00163-6.94958 5.99623-3.35643 2.06812-4.92911 4.21862-8.31426 6.28929-1.36352.9149-.8443 1.77324 1.0732.44566 2.31828.0259-2.83661 2.86984-3.71811 4.0173-4.45144 3.5895-9.2425 7.19284-13.19855 10.76823 1.6811-2.03987 3.95669-4.18867 6.39655-6.31251 1.52582-.92677 4.2195-3.59257 2.17599-2.89423-2.38211 2.16376-5.26942 4.31938-7.99161 6.43684-1.97864 1.82056-4.72567 4.42264-7.78157 5.81805 2.15574-2.27779 3.47007-4.55309 7.12216-6.95136 5.68353-4.80328 12.0087-9.61745 18.58611-14.40985 3.00794-2.26875 5.94784-4.53987 8.80178-6.81081 1.32691-.78447 2.46116-1.61075 3.79789-2.39284zm-17.51904 14.70046c-2.35412.71487-3.81664 3.50704-.7154 1.21483.61312-.41288 3.47486-2.68951.7154-1.21483zm-14.02261 10.20252c.37029.21877.42724-.31183.0424-.12678zm32.85125-24.12074c.036.53379-3.60251 3.37005-3.32186 2.48374.79404-.80765 1.55361-1.78912 3.32186-2.48374zm-12.53001 9.77801c1.82786-1.68775 3.98645-3.4458 6.59811-5.11286-1.19467 1.24051-4.11348 3.93092-6.59811 5.11286zm22.38288-8.15691c-.88261 2.10485-5.70928 4.65326-7.51701 6.89763-3.10938 1.82558.83531-1.27449 1.53075-1.90932 1.93543-1.66049 3.91081-3.3235 5.98628-4.98828zm-17.79892 6.17062c-2.71067 2.71447-6.62443 5.48964-9.81486 8.2297-2.87147 1.20142 1.76799-1.97882 2.38333-2.60214 2.32154-1.81971 4.90679-4.04984 7.43153-5.62756zm11.49797-5.12589c-4.0363 3.84761-9.17855 7.76176-13.86625 11.642-.54904.32834-24.3031 19.53133-14.557 10.91751 9.28264-7.5186 18.78866-15.03994 28.42325-22.55951zm-3.8866.63428c-.66507 1.4257-3.6477 3.12784-5.65484 4.66514-1.17364.8366-4.34422 3.02584-4.60971 2.9969 3.38984-2.55498 6.65063-5.11766 10.26455-7.66204zm10.02392.79113c-1.44719 2.35777-6.16907 5.04009-8.21334 7.47751-2.40011 2.16449-5.22645 4.38742-6.89191 6.47399-7.69413 8.34975 1.30389-.63422 6.38645-4.00782 2.57633-1.60579 3.40088-3.07368 4.70708-4.54134 1.63505-.91238 2.79041-2.44 2.35649-2.52082 2.95742.0879-2.94891 3.06437-3.26364 4.363-1.68388 1.77457-4.98578 3.68374-6.01912 5.38282 2.54509-1.49094 3.69679-3.07953 5.48566-4.59414 1.05273-1.09221 3.58999-3.32455 4.4437-3.75453-2.91622 2.54356-4.99975 5.03589-8.51635 7.60941-7.25217 7.06065-2.38421 2.38675 3.26566-1.54234 1.63491-1.35761 2.17805-3.01392 4.89593-4.2245-9.56963 9.40505-30.33845 26.41417-11.8434 8.74257-.79871.50975-37.39479 23.75206-7.50027.62058 3.25912-2.79014 6.26383-5.56475 9.43806-8.34981 2.05857-.46601-2.41431 2.29933-2.98328 3.1145-22.46476 17.82538-14.70947 14.3022 2.16345.1691 3.98141-3.46903 7.77576-6.93558 12.08883-10.41818zm-3.15781 2.80791c1.34225-.39031-.27282-.44281 0 0zm-7.46634 4.05485c.87485-.17446-.34603-.24926 0 0zm-2.28733 1.83364c-.94002.7132 1.15309-.63128 0 0zm-9.32711 8.24809c1.83012-.62751.0689-.92555 0 0zm8.56251-2.58373c-.0685.43377.63317-.48355 0 0zm-8.07767-5.70388c-5.28159 4.68635-11.4776 9.40655-17.48779 14.1078-.85923.66933-4.45695 3.21607-2.26749 1.35051 5.68096-4.60323 11.24402-9.21805 17.3823-13.82157.79995-.53522 1.41398-1.13804 2.37298-1.63674zm21.65795-7.17586c.60476.64212-1.47031.4178 0 0zm-30.0355 12.37254c.0817.5055-4.30039 3.63279-2.48534 1.83031.67843-.60846 1.42061-1.24948 2.48534-1.83031zm29.79929-9.02368c-.56078.89026.0183-.51287 0 0zm-.12892 1.28769c-.0268 1.57299-3.46206 3.91986-3.98634 5.61955-12.45081 7.12769-5.82425 3.61332 2.18619-3.70359.59719-.63812 1.09036-1.26322 1.80014-1.91596zm-.67565.40638c-.10681 1.05352-2.84993 1.4502 0 0zm-2.06182 1.90202c.31695.36525-1.08626.45054 0 0zm-1.28905 1.22084c-.9559.77356.34198-.49356 0 0zm-5.96322 2.71686c-.39322.4802-.27992-.22037 0 0zm3.85191-.89363c-1.00743.81775.40028-.50848 0 0zm-.65812.71259c-.0142.50181-1.07459.37205 0 0zm-.63882.55438c.12991.44103-.91327.34792 0 0zm-.64061.57749c.0338.44719-1.48786.63918 0 0z" opacity=".5" stroke-width=".123124"/><path d="m-792.0698 96.359209c.82645 1.236244 2.76652 2.368653 4.09164 3.558259 2.15398 1.103822 2.90944 2.498262 5.0851 3.600302.85897.50392.27265 1.20803-.92652.46895-1.80016.31745 1.57936 1.76598 2.01524 2.50458 2.67482 2.09261 5.60956 4.15179 7.90392 6.29764-.86318-1.29835-2.16311-2.60113-3.5956-3.86423-.98205-.49187-2.4946-2.12473-1.06271-1.86908 1.3792 1.30018 3.15122 2.52933 4.80364 3.75137 1.14059 1.09725 2.70811 2.67594 4.77396 3.31894-1.17948-1.41396-1.70813-2.93432-4.02006-4.24525-3.36785-2.83533-7.23005-5.59624-11.29219-8.30851-1.84112-1.29763-3.62904-2.605767-5.35045-3.924837-.85867-.411777-1.55919-.879395-2.42597-1.288134zm10.40374 8.661551c1.66877.22798 2.20112 2.11304.29282.81-.38593-.22769-2.11216-1.54998-.29282-.81zm8.66335 5.7716c-.33363.21009-.26374-.17657-.005-.0887zm-20.24891-13.68387c-.14256.400974 2.06479 2.03886 2.03793 1.416867-.44117-.49754-.81827-1.128609-2.03793-1.416867zm7.59912 5.64839c-1.05241-1.01804-2.34573-2.04572-4.00934-2.947558.65834.767398 2.33986 2.389578 4.00934 2.947558zm-15.57456-3.177292c.23107 1.449332 3.42 2.720652 4.33726 4.154552 2.01483.95553-.37285-.83885-.77478-1.22077-1.14153-.98396-2.31347-1.96464-3.56248-2.933782zm12.45276 2.292122c1.51523 1.66683 3.94877 3.22394 5.82989 4.84805 1.96474.52268-.94351-1.24189-1.28597-1.62552-1.40622-1.05252-2.92842-2.37583-4.54392-3.22253zm-7.79956-2.326935c2.29801 2.337655 5.43783 4.582455 8.23309 6.860525.35447.17317 14.61758 11.37583 8.92343 6.23374-5.57065-4.38851-11.31363-8.75031-17.15652-13.094265zm2.87241-.02897c.20857.973035 2.1518 1.853215 3.3753 2.736475.72881.47021 2.71289 1.68787 2.92463 1.63223-2.07525-1.46103-4.04894-2.94437-6.29993-4.368705zm-7.92957 1.876855c.61378 1.56451 3.69283 2.94873 4.75172 4.49556 1.39297 1.29839 3.10335 2.58536 3.94437 3.92041 4.16241 5.20998-.87312-.30317-4.08288-2.15429-1.64939-.86091-1.97236-1.84475-2.66823-2.76646-1.06971-.46713-1.63592-1.45277-1.28266-1.56858-2.30825.44568 1.62449 1.89596 1.58917 2.81971.92229 1.10102 3.06821 2.09383 3.50313 3.22249-1.6499-.77965-2.20018-1.81104-3.2596-2.70552-.58029-.67555-2.06487-2.00668-2.63337-2.21612 1.71107 1.51347 2.78855 3.09601 4.95795 4.5545 4.09722 4.30967 1.33291 1.46546-2.19666-.72511-.97396-.79772-1.0386-1.95768-2.88247-2.50692 5.38755 5.75228 17.81103 15.71 7.29001 4.96791.50878.27574 23.84531 12.82566 5.67273-.50404-1.92355-1.65245-3.65348-3.3261-5.5124-4.98568-1.49346-.0812 1.375 1.39669 1.64032 1.92877 13.56098 10.34562 8.31438 8.72726-1.71107.40386-2.33683-2.06363-4.52939-4.14946-7.12006-6.18049zm1.84129 1.67869c-.9552-.11715.30633-.36389 0 0zm4.90872 2.05029c-.63975-.017.32141-.22959 0 0zm1.37675 1.06726c.57446.40863-.75701-.3204 0 0zm5.44837 4.92442c-1.28192-.23051.14549-.67835 0 0zm-6.0733-.81697c-.0401.31326-.38626-.2776 0 0zm7.47831-5.27425c3.08181 2.80025 6.86422 5.50798 10.50685 8.22554.52136.38645 2.7593 1.81461 1.46517.71108-3.40883-2.68713-6.72391-5.39804-10.48669-8.02658-.50427-.2945-.85009-.6631-1.48533-.91004zm-15.22414-2.54209c-.60609.55457 1.04844.12107 0 0zm20.59293 5.323c-.17185.38585 2.54859 2.14418 1.53075 1.03931-.39447-.36451-.83129-.745-1.53075-1.03931zm-21.12947-2.86685c.24286.58889.096-.37845 0 0zm-.17683.93954c-.31708 1.16449 1.83796 2.46516 1.8787 3.65976 8.10713 3.69069 3.73239 1.93368-.89677-2.46872-.32516-.39702-.57266-.79771-.98192-1.19105zm.43575.21482c-.14365.7685 1.89463.71018 0 0zm1.18748 1.14703c-.32383.31196.74409.1948 0 0zm.7356.74065c.5738.45142-.15873-.32245 0 0zm4.03257 1.25021c.20122.30597.26402-.19963 0 0zm-2.78985-.16803c.60419.47759-.2006-.32609 0 0zm.35639.44443c-.0968.37077.75192.13803 0 0zm.37543.32946c-.19531.34418.63222.14085 0 0zm.37184.3464c-.12227.33638 1.01447.28319 0 0z" opacity=".5" stroke-width=".091075"/><path d="m-841.13715 143.34876c-.0379 1.17818.62345 3.44857.89869 5.11579.79962 2.47777.65258 3.62874 1.46571 6.12785.29184 1.00594-.35217.61266-.74447-.80163-1.19449-1.72369.18032 2.08455.12346 2.73016.68661 3.27897 1.54044 6.81029 1.98046 9.7211.0429-1.23255-.16954-2.90608-.47682-4.70198-.3694-1.1265-.56687-3.10651.16759-1.59322.26018 1.75264.78174 3.8809 1.23592 5.88676.2058 1.45556.45863 3.47576 1.40196 5.73581-.0943-1.58338.2397-2.54123-.56501-5.23601-.7794-4.18466-1.88141-8.84625-3.12178-13.69554-.53317-2.21702-1.03058-4.3834-1.48418-6.48587-.33076-.97983-.54471-1.81607-.88153-2.80322zm2.44889 12.89978c.88569 1.74407.39908 2.80774-.17137.52157-.13056-.45231-.58564-2.56054.17137-.52157zm2.65079 10.3385c-.28557-.27712-.0803-.31497.0341-.0306zm-6.11342-24.2185c-.25409-.0312.35028 2.6497.59845 2.44855-.0486-.58348-.003-1.1398-.59845-2.44855zm2.07656 9.23246c-.18754-1.34462-.51278-2.9345-1.10942-4.86198.0619.87767.36337 3.02483 1.10942 4.86198zm-7.82052-16.57107c-.47904.63834.85877 4.20507.79023 5.53002.78063 2.29613.1365-.61023.0619-1.12184-.25445-1.4248-.52817-2.8793-.85219-4.40818zm6.35833 13.18003c.18464 1.99221.95647 4.87835 1.37465 7.22702.93484 2.12455-.0284-1.29762-.0672-1.74983-.38118-1.7105-.71571-3.61359-1.30744-5.47719zm-3.60416-8.50456c.36078 2.96815 1.25655 6.75793 1.93535 10.21008.1352.40537 3.77772 17.90238 2.60776 10.7297-1.41704-6.83736-2.94688-13.84078-4.54311-20.93978zm1.70334 2.88406c-.29017.48237.4803 2.68532.82574 4.16447.2295.86545.88078 3.20403 1.02904 3.40165-.60166-2.49849-1.13408-4.90096-1.85478-7.56612zm-5.46477-7.45877c-.30262 1.05593.9226 4.54361.88951 6.04276.26903 1.76599.72976 3.84838.6583 5.06888.23938 5.64939-.38537-.96399-1.48937-4.71398-.60565-1.90171-.37826-2.5023-.39676-3.46094-.43149-1.20783-.34653-2.05383-.0894-1.73056-1.54803-2.19938.15173 2.16637-.2611 2.38936.0757 1.23684.91768 3.67543.69472 4.42926-.64043-1.87949-.52667-2.72225-.77076-4.03932-.055-.77339-.36397-2.64078-.60977-3.27183.36501 2.14649.32772 3.67436.9859 6.26693.58308 5.33174.16276 1.75229-.98547-2.41474-.23484-1.20394.21938-1.59373-.63304-3.60402.7305 7.03475 3.81835 22.33099 2.18337 8.73073.18251.58949 8.59488 27.59942 3.55353 5.57068-.43114-2.39932-.73928-4.60962-1.12933-6.94587-.84477-1.52645.21673 1.7754.14712 2.1915 3.59288 16.55013 1.19097 10.81442-1.17872-1.60981-.49993-2.93054-.90551-5.72204-1.56871-8.89903zm.37157 2.32384c-.5126-.99458.33477.20657 0 0zm2.01969 5.5164c-.36941-.64893.28666.25934 0 0zm.35756 1.68494c.16479.6928-.30967-.8519 0 0zm1.11764 6.86426c-.65687-1.35525.37354-.0434 0 0zm-3.22872-6.34377c-.15655.0473-.10958-.4666 0 0zm6.64094 6.05344c.62589 3.88684 1.70349 8.4532 2.69464 12.88157.14292.63312.85432 3.2862.56079 1.67429-.86643-4.18445-1.66755-8.28115-2.76722-12.80558-.17188-.59017-.21904-1.04155-.48821-1.75028zm-7.88379-16.04043c-.59216-.45502.56584 1.08954 0 0zm9.86426 22.22457c-.26493-.0651.5904 3.16631.46009 1.8322-.0775-.49921-.17322-1.04555-.46009-1.8322zm-11.2225-22.0773c-.10694.40938.21712-.009 0 0zm-.50285.085c-.68086.007.0359 2.54064-.44715 2.91603 3.20645 9.19597 1.37666 4.29934.51976-1.59396-.0229-.43853.002-.79989-.0725-1.32206zm.16538.49888c-.41071.0705.81398 2.10645 0 0zm.21228 1.51673c-.32303-.23876.3554.80371 0 0zm.11874.94795c.14621.70412.0434-.25006 0 0zm1.84344 4.41027c-.0109.28826.24015.20997 0 0zm-1.57111-2.85608c.15301.74204.0203-.29326 0 0zm.0213.48326c-.21432.006.38409.79571 0 0zm.0812.47023c-.26105-.10033.31244.67598 0 0zm.0719.47135c-.21474-.0289.47706 1.10072 0 0z" opacity=".5" stroke-width=".07008"/><path d="m-846.42041 138.12514c.4762.0818 1.29596.45398 1.92598.66582.88427.42893 1.36414.47669 2.25513.91125.36337.16456.29196-.0546-.22131-.2807-.53007-.48487.80956.217 1.07532.25127 1.21973.45907 2.51807.98688 3.62342 1.34488-.4986-.0846-1.13952-.2786-1.81674-.50994-.40124-.19672-1.16672-.41048-.65946-.0766.66619.21416 1.44774.53431 2.18933.82511.55464.17486 1.32881.40797 2.10685.86173-.62063-.15237-1.04819-.13027-2.01855-.5778-1.56954-.55756-3.28679-1.24698-5.06066-1.99162-.81549-.33054-1.61551-.64662-2.39582-.94487-.34774-.17388-.65363-.30229-1.00349-.47852zm4.83213 1.7323c.57938.39625 1.06961.33791.2314-.009-.16349-.0738-.94588-.37293-.2314.009zm3.78096 1.58941c-.0728-.1053-.11525-.0484-.0168.008zm-8.86993-3.69516c.0215-.0767 1.01291.31121.89938.36785-.22686-.0601-.45543-.0906-.89938-.36785zm3.4152 1.33444c-.51271-.16077-1.10513-.38112-1.79639-.70737.34273.0873 1.16119.34459 1.79639.70737zm-5.58416-3.59115c.31913-.0896 1.5671.58238 2.1061.66678.81415.40907-.26223-.008-.45689-.0703-.53585-.18665-1.08101-.38128-1.6492-.59646zm4.42302 2.89664c.77207.21098 1.82333.66399 2.70682.97129.72498.4406-.51512-.11059-.69079-.15755-.63323-.2462-1.34966-.49396-2.01603-.81374zm-2.92049-1.72339c1.13887.33936 2.53498.89981 3.825 1.37024.14408.0714 6.65551 2.51487 3.94315 1.60767-2.54535-.95296-5.14206-1.95197-7.76815-2.97791zm.92626.72499c.23157-.0468 1.00984.35201 1.5553.56953.31549.13526 1.16385.50989 1.22312.56878-.91893-.37273-1.8087-.71766-2.77842-1.13831zm-2.25422-2.18459c.46261-.005 1.69398.6277 2.29791.7362.67036.21781 1.44167.51656 1.93928.59188 2.22726.51523-.33413-.18858-1.68657-.80673-.67975-.32685-.95024-.30773-1.33113-.38871-.42549-.22128-.77513-.26314-.68013-.16254-.67315-.62566.84611.2151.99032.11205.48452.1196 1.34745.55783 1.67864.5521-.66623-.33526-1.01842-.36845-1.51258-.54359-.30195-.077-1.00752-.31449-1.2271-.43604.80971.27583 1.42567.38535 2.3747.78201 2.05442.59063.67904.18569-.83428-.47826-.45015-.16351-.66657-.0616-1.35685-.46903 2.71581.76792 8.4211 2.87581 3.20034 1.32611.2114.0998 9.89116 4.68666 1.75397 1.47734-.90201-.31508-1.74483-.57933-2.62708-.87744-.49781-.36715.68109.20326.85677.21572 6.13938 2.35426 4.1659 1.20038-.48662-.47129-1.10528-.37706-2.16753-.71559-3.34959-1.15979zm.87976.29174c-.32939-.22818.038.1141 0 0zm1.93675 1.02491c-.21026-.15907.0652.10434 0 0zm.62613.23729c.25509.10275-.29938-.15763 0 0zm2.59603.8676c-.4544-.29875-.0671.10572 0 0zm-2.10644-1.44339c.0398-.042-.17199-.0688 0 0zm1.53544 2.41748c1.4709.48925 3.15333 1.16402 4.79208 1.80266.23414.0917 1.20027.50864.59479.29582-1.55785-.58297-3.0893-1.13995-4.75202-1.81787-.21309-.0968-.38732-.14609-.63485-.28061zm-5.36354-3.5678c-.10306-.20887.36027.25121 0 0zm7.57255 4.6339c.009-.0825 1.18749.42207.67135.27884-.1893-.062-.39501-.13301-.67135-.27884zm-7.33258-5.01913c.17796.00078-.0327.0627 0 0zm.101-.14023c.0934-.19842 1.01122.21072 1.22574.0992 3.24999 1.6617 1.53576.74112-.70674.0263-.17232-.0412-.32006-.0627-.51902-.12542zm.17745.0876c.083-.11445.73387.40386 0 0zm.57824.18157c-.0524-.11321.27403.16719 0 0zm.36327.10941c.26208.0982-.10579-.007 0 0zm1.5179.88624c.11672.0196.0519.0867 0 0zm-.9327-.68416c.27634.10319-.11997-.0172 0 0zm.19043.0443c.0311-.0621.26699.17495 0 0zm.17721.0608c-.005-.0842.22867.14457 0 0zm.1789.0582c.0173-.065.37659.22615 0 0z" opacity=".75" stroke-width=".025009"/><path d="m-825.89814 151.28203c1.19284-1.13051 4.04294-2.37739 5.97786-3.55994 3.16886-1.26208 4.25159-2.50597 7.45271-3.77052 1.2619-.55396.37069-1.00954-1.38993-.20785-2.68363.0684 2.29627-1.68634 2.92285-2.3516 3.91455-2.14147 8.21623-4.30267 11.564-6.41869-1.24549 1.18673-3.13979 2.45476-5.23217 3.71491-1.4451.56634-3.64588 2.13491-1.52573 1.67626 2.01215-1.28013 4.60995-2.57379 7.03026-3.84048 1.66337-1.07617 3.94738-2.61144 6.99846-3.4912-1.71218 1.33504-2.45433 2.63868-5.85199 4.09367-4.92307 2.85583-10.58274 5.7406-16.54089 8.62231-2.69852 1.36048-5.31769 2.7198-7.83771 4.07598-1.26404.48062-2.29154.9775-3.56772 1.45715zm15.2108-8.74476c2.47291-.47885 3.21018-2.07328.41205-.69653-.56691.24993-3.09402 1.60953-.41205.69653zm12.7073-6.13562c-.50167-.10761-.38682.18746-.006.0714zm-29.69533 14.49505c-.22319-.29357 3.00973-1.99 2.98753-1.4904-.64133.47439-1.18389 1.04314-2.98753 1.4904zm11.12963-5.84789c-1.53466.99742-3.42695 2.04549-5.87298 3.05946.95627-.72783 3.40843-2.31799 5.87298-3.05946zm-23.04953 5.30395c.30205-1.19408 5.00384-2.7739 6.32583-4.07808 2.96632-1.11927-.53009.73377-1.1164 1.10922-1.66803.98621-3.38131 1.97526-5.20944 2.96884zm18.4365-4.0433c2.2038-1.59605 5.77512-3.26854 8.52376-4.89582 2.90423-.76605-1.36648 1.15607-1.86437 1.52233-2.05933 1.08793-4.28327 2.41196-6.65939 3.37349zm-11.52199 3.24146c3.34773-2.26922 7.94882-4.61465 12.03703-6.92513.52172-.20093 21.39427-11.65513 13.08054-6.54959-8.15167 4.48405-16.56016 8.97759-25.11757 13.47472zm4.26853-.48899c.28218-.81122 3.14427-1.85778 4.93694-2.77851 1.06946-.50396 3.98266-1.82631 4.29883-1.81983-3.04173 1.53221-5.9319 3.06402-9.23577 4.59834zm-11.83483-.0793c.86739-1.35394 5.40268-3.00397 6.93189-4.42321 2.03265-1.28118 4.5372-2.60985 5.74875-3.82177 6.036-4.88647-1.28863.3968-6.00483 2.44156-2.42607.97886-2.87792 1.81906-3.88557 2.67631-1.57601.5623-2.3892 1.44729-1.86106 1.47644-3.44217.0569 2.35962-1.79779 2.28083-2.52631 1.33896-1.04028 4.49902-2.21259 5.11305-3.18795-2.42914.91433-3.21736 1.83287-4.76593 2.73327-.84298.6408-3.01075 1.96439-3.84947 2.23237 2.49916-1.50899 4.05498-2.95996 7.23665-4.50688 5.96476-4.15868 1.93866-1.40338-3.24306.96841-1.42434.80817-1.48738 1.74243-4.21128 2.50805 7.84082-5.53626 26.01558-15.67217 10.68972-5.25146.74811-.31007 35.06314-14.4535 8.44267-.61035-2.8109 1.6574-5.33349 3.29714-8.04814 4.94871-2.2166.33081 2.00314-1.35615 2.38221-1.82673 19.85373-10.64727 12.10464-8.42455-2.55374-.0163-3.41321 2.05815-6.61144 4.10826-10.40269 6.18574zm2.68791-1.66361c-1.41587.26351.46549.23482 0 0zm7.23478-2.50605c-.95004.12758.48406.12534 0 0zm2.01511-1.09441c.84189-.42746-1.1156.38982 0 0zm7.95476-4.88857c-1.89806.41187.23543.51371 0 0zm-9.0002 1.73258c-.0686-.24199-.56597.28967 0 0zm11.2611 2.86239c4.4991-2.77694 10.04175-5.6052 15.37644-8.41633.76361-.40036 4.04797-1.93539 2.15664-.82685-4.9882 2.74526-9.83639 5.49271-15.35215 8.25445-.74082.32419-1.24414.67903-2.18093.98873zm-22.54696 4.7362c-.91628-.33309 1.55428-.28322 0 0zm30.44451-7.90548c-.26638-.27623 3.72553-2.15999 2.24472-1.09963-.57566.36033-1.21387.74082-2.24472 1.09963zm-31.31161 6.04733c.34405-.51179.15342.28392 0 0zm-.28947-.71587c-.50386-.87015 2.66062-2.2886 2.68709-3.24617 11.94012-4.38115 5.49039-2.20358-1.26208 2.12366-.4718.37381-.82801.73686-1.42495 1.12258zm.64132-.24857c-.23527-.58573 2.79473-.90271 0 0zm1.73165-1.12416c-.49002-.19039 1.09998-.28757 0 0zm1.07182-.72027c.83968-.46139-.2266.28483 0 0zm5.95581-1.71341c.29063-.27866.39797.11178 0 0zm-4.14024.63102c.88409-.48762-.28879.29511 0 0zm.51693-.41698c-.1544-.27763 1.11322-.24382 0 0zm.54841-.32902c-.30001-.23895.93532-.22471 0 0zm.54261-.3418c-.19117-.24586 1.4992-.40612 0 0z" opacity=".75" stroke-width=".099224"/><path d="m-834.84658 100.0052c1.34984.006 3.93378-.715904 5.83619-1.035859 2.81815-.865953 4.1394-.749869 6.98165-1.629901 1.14489-.318777.70973.335611-.90035.765793-1.9455 1.240468 2.38245-.236266 3.12297-.196758 3.73812-.7745 7.76125-1.722941 11.08362-2.241043-1.4122-.0097-3.32331.247565-5.3723.602992-1.28111.399561-3.54347.650164-1.82806-.124751 2.00055-.307173 4.42505-.885763 6.71098-1.39369 1.6617-.244846 3.96878-.551868 6.53429-1.555636-1.81067.136804-2.91518-.171384-5.98167.705491-4.7729.891585-10.08429 2.118502-15.60735 3.488786-2.52584.592581-4.99455 1.148049-7.39112 1.658001-1.1141.356983-2.06652.593335-3.18885.956575zm14.71204-2.79472c1.97608-.932283 3.20533-.474377.60118.15732-.5148.142677-2.91793.654262-.60118-.15732zm11.77478-2.927765c-.31058.292948-.35874.08877-.0359-.03339zm-27.58533 6.762275c-.0298.25487 3.02554-.42135 2.7894-.66405-.66691.0642-1.30494.0334-2.7894.66405zm10.5219-2.323975c-1.53511.223602-3.34779.591459-5.54065 1.239715 1.00343-.08545 3.45472-.444526 5.54065-1.239715zm-18.78944 8.263485c.74209.46177 4.7944-.97149 6.31299-.93856 2.61063-.84209-.70187-.12007-1.28588-.0318-1.62535.29265-3.28424.60537-5.02711.97037zm14.9412-6.71061c2.27663-.2381 5.56299-1.087244 8.24226-1.568397 2.41056-.991656-1.48503.06328-2.00187.114192-1.94948.427017-4.12056.812579-6.24039 1.454205zm-9.65267 3.8316c3.38989-.4404 7.70794-1.43772 11.64452-2.20907.46097-.14604 20.40855-4.257548 12.22372-2.895249-7.79514 1.600309-15.77775 3.317849-23.86824 5.104319zm3.26211-1.78033c.55909.27712 3.06328-.5523 4.74872-.93737.9855-.25269 3.64775-.96661 3.87054-1.12014-2.84652.66862-5.58472 1.26542-8.61926 2.05751zm-8.41166 5.66361c1.21607.27418 5.18053-1.04438 6.89773-1.05158 2.01565-.31639 4.38905-.83293 5.78813-.79427 6.46259-.39106-1.09468.41115-5.3623 1.61558-2.16313.65657-2.8561.44537-3.95327.48961-1.37277.46383-2.34338.40161-1.97928.13589-2.48185 1.60668 2.47681-.20989 2.74181.19684 1.41431-.1089 4.18661-1.01615 5.05493-.8135-2.13688.69075-3.10446.59965-4.60671.87905-.88419.0757-3.01499.43481-3.73174.6975 2.44905-.42258 4.19923-.42634 7.15214-1.15397 6.09084-.72614 2.00244-.20979-2.74162 1.05006-1.37293.26711-1.82986-.17652-4.11154.72966 8.03723-.91925 25.47808-4.41712 9.94496-2.41728.67063-.19829 31.39808-9.33387 6.29474-3.70218-2.73697.49546-5.26041.86289-7.92611 1.31559-1.72788.88555 2.02764-.26437 2.50568-.20594 18.86463-4.03646 12.35394-1.48113-1.81549 1.22163-3.34357.57851-6.53016 1.05896-10.15206 1.80731zm2.65194-.43389c-1.12671.53919.22866-.34021 0 0zm6.26857-2.16731c-.73432.38673.29021-.29354 0 0zm1.92077-.40272c.78936-.18335-.9681.33248 0 0zm7.83297-1.3017c-1.53628.69309-.0584-.37228 0 0zm-7.18752 3.39822c.0579.15524-.53167.12209 0 0zm6.77507-6.80171c4.43552-.730127 9.63845-1.93009 14.68542-3.039902.72153-.159895 3.74247-.942364 1.9038-.605615-4.77062.978583-9.44229 1.889534-14.5967 3.11042-.67168.18769-1.18738.24696-1.99252.535097zm-18.18043 8.31248c-.50708.60422 1.2342-.59494 0 0zm25.21444-10.458516c-.0682.266596 3.61139-.675297 2.08696-.509183-.56974.09092-1.19302.201256-2.08696.509183zm-25.01396 11.812436c.47122.0959-.0157-.21682 0 0zm.10905.50042c.0236.6805 2.90803-.10407 3.34917.36871 10.45363-3.45259 4.89019-1.49178-1.83717-.47681-.50156.0347-.91586.0201-1.51199.10808zm.5673-.17873c.0904.4087 2.39268-.87035 0 0zm1.73159-.25296c-.26578.32935.91188-.37689 0 0zm1.08258-.14417c.80274-.16509-.28734-.0367 0 0zm5.00625-1.9614c.33029.003.23476-.24573 0 0zm-3.23319 1.64739c.84599-.1729-.33623-.0124 0 0zm.5528-.0342c.0122.21409.90203-.40537 0 0zm.53648-.0938c-.10874.26368.76663-.33051 0 0zm.53798-.0845c-.0281.21546 1.24908-.50649 0 0z" opacity=".5" stroke-width=".074998"/><path d="m-806.58051 92.589152c1.10129.780553 3.6312 1.673775 5.3722 2.504723 2.80421.910079 3.81901 1.76409 6.65104 2.676493 1.12026.396758.38814.68241-1.17688.109622-2.30506-.102234 2.08584 1.175207 2.66929 1.632947 3.50472 1.513413 7.34262 3.048173 10.35973 4.532633-1.15034-.8192-2.86246-1.70644-4.74382-2.59256-1.27816-.40888-3.27395-1.503374-1.42467-1.15225 1.81399.89779 4.13091 1.81696 6.2938 2.71436 1.50082.75415 3.56563 1.82815 6.24221 2.48029-1.56069-.92816-2.28774-1.81492-5.3015-2.85871-4.41898-2.01201-9.47135-4.05888-14.77934-6.109988-2.40791-.965926-4.74774-1.929415-7.00236-2.888714-1.117-.347789-2.03236-.70145-3.1597-1.048846zm13.6478 6.163787c2.15304.372058 2.89619 1.453011.40171.474119-.50335-.178943-2.76428-1.140676-.40171-.474119zm11.31996 4.367561c-.42251.0614-.34464-.13341-.0102-.0479zm-26.46424-10.311287c-.17083.191481 2.71856 1.393132 2.66469 1.058825-.58278-.330531-1.08731-.722311-2.66469-1.058825zm9.94759 4.142075c-1.38499-.69882-3.08006-1.439017-5.24739-2.168096.87043.506483 3.08318 1.620715 5.24739 2.168096zm-20.12685-4.029681c.34216.804272 4.48247 1.958959 5.70657 2.858274 2.62065.810396-.50552-.501473-1.03427-.764709-1.49852-.694136-3.03604-1.391118-4.67231-2.09355zm16.08486 3.090135c2.00029 1.112922 5.17808 2.305724 7.64757 3.450993 2.54279.573055-1.2519-.801273-1.7042-1.056508-1.84103-.770355-3.83962-1.701939-5.94337-2.394485zm-10.10215-2.408691c3.02775 1.586839 7.13515 3.251004 10.80049 4.881015.46122.14526 19.15093 8.238794 11.66876 4.652074-7.29992-3.168022-14.82064-6.347786-22.46925-9.533089zm3.69288.416653c.29844.548009 2.82468 1.307634 4.42549 1.96064.95182.359291 3.54108 1.304262 3.81164 1.30657-2.71407-1.087906-5.29822-2.172366-8.23713-3.26721zm-10.13874-.196223c.8379.92299 4.84041 2.121092 6.25013 3.101661 1.83164.898922 4.07109 1.839512 5.19407 2.674868 5.51453 3.39236-1.13222-.292294-5.31731-1.757974-2.14777-.705195-2.59367-1.276153-3.51716-1.870203-1.39011-.408935-2.14884-1.017432-1.69818-1.025778-2.95445-.110572 2.14794 1.251013 2.1312 1.736163 1.22023.723324 4.01063 1.573253 4.60497 2.237934-2.14592-.66213-2.88558-1.292524-4.27573-1.926796-.76722-.445979-2.71767-1.376063-3.45525-1.572782 2.24739 1.060961 3.68213 2.063286 6.51719 3.163999 5.40271 2.904537 1.75959.97859-2.84733-.715418-1.27724-.570048-1.39641-1.195652-3.7846-1.764632 7.10684 3.864577 23.39219 11.020387 9.52893 3.734282.66285.222935 31.06238 10.396605 7.27921.585655-2.52492-1.166703-4.80153-2.315545-7.24357-3.476321-1.92303-.267719 1.81157.948394 2.16931 1.27083 17.76016 7.532861 10.963 5.884401-2.18782-.04295-3.06917-1.44719-5.95351-2.884471-9.34806-4.352526zm2.41996 1.168254c-1.23199-.205897.38261-.147128 0 0zm6.37608 1.826981c-.82322-.105288.40617-.07357 0 0zm1.80357.773746c.75144.303372-.98342-.283988 0 0zm7.15934 3.434178c-1.65565-.3152.16604-.33828 0 0zm-7.83536-1.347314c-.0419.160311-.50533-.205489 0 0zm9.45291-1.675503c4.05006 1.950367 8.99817 3.956987 13.76684 5.947817.68246.28361 3.60469 1.37851 1.90623.59792-4.46708-1.93949-8.81432-3.8775-13.73474-5.839121-.65761-.232222-1.11378-.479952-1.93833-.706616zm-19.6565-3.639722c-.76216.203282 1.352.222008 0 0zm26.64689 5.923819c-.209.17903 3.34399 1.52182 2.00076.78208-.51859-.25287-1.09214-.5206-2.00076-.78208zm-27.26055-4.700424c.33061.34921.1117-.186495 0 0zm-.19821.472258c-.37157.570597 2.44012 1.585344 2.52962 2.225748 10.54003 3.179038 4.85976 1.588108-1.22989-1.445658-.43048-.259719-.76122-.50967-1.29971-.780098zm.56703.179594c-.1608.386457 2.45847.662075 0 0zm1.56268.787659c-.40674.116908.96291.215334 0 0zm.96896.503883c.7519.326001-.21414-.195077 0 0zm5.22453 1.270375c.26855.192306.33332-.06627 0 0zm-3.59283-.508869c.79179.344467-.2681-.203298 0 0zm.47215.289538c-.11296.18228.97121.186371 0 0zm.49301.231407c-.24048.153354.81739.16985 0 0zm.48892.239846c-.14677.160217 1.31337.302957 0 0z" opacity=".5" stroke-width=".074998"/><path d="m-844.15192 114.66924c-.21864.84774-1.11196 2.40609-1.63273 3.572-1.02495 1.69272-1.16784 2.53216-2.20587 4.23877-.39503.69059.1.47491.64379-.49783 1.12318-1.11214-.54584 1.47453-.64246 1.94278-1.11757 2.27815-2.39465 4.7199-3.27782 6.75961.22668-.88718.70836-2.06405 1.27626-3.31885.46974-.76898 1.00504-2.16691.22089-1.1583-.52868 1.22863-1.30285 2.69951-2.00845 4.08963-.43248 1.02143-1.01165 2.44246-2.08404 3.96451.38719-1.12442.3701-1.8447 1.44308-3.69233 1.364-2.91732 3.0337-6.14317 4.83104-9.48927.79993-1.53325 1.56642-3.03392 2.2916-4.49329.41466-.6679.72464-1.2449 1.14471-1.91742zm-4.2345 8.9883c-.92892 1.15839-.83558 1.9701.002.39113.1772-.31059.9045-1.77393-.002-.39113zm-3.83595 7.13311c.2407-.1692.1166-.21736-.0156-.0254zm8.92412-16.71956c.16975.004-.77164 1.8619-.88963 1.69239.15155-.41293.23685-.81608.88963-1.69239zm-3.23879 6.39977c.39785-.94384.93481-2.04923 1.7158-3.3686-.22081.62227-.85742 2.12924-1.7158 3.3686zm8.44388-11.0672c.1762.50631-1.41923 2.9238-1.64845 3.87981-.97528 1.56456.0382-.45106.19156-.80986.4574-.99441.93333-2.00813 1.45689-3.06994zm-6.80476 8.78829c-.52957 1.40797-1.62088 3.39603-2.37407 5.03537-1.03898 1.42586.28593-.92648.40412-1.24641.59777-1.18606 1.20529-2.51482 1.96995-3.78896zm4.0704-5.72185c-.84406 2.08893-2.20142 4.71148-3.34969 7.11446-.1705.2765-6.12029 12.43515-3.88898 7.41772 2.32093-4.75192 4.74861-9.61122 7.23867-14.53218zm-1.68953 1.89107c.087.37524-.86254 1.87411-1.38964 2.89813-.32599.59634-1.2269 2.20455-1.36293 2.3309.902-1.72784 1.7397-3.39401 2.75257-5.22903zm5.05044-4.78209c-.0233.78731-1.53008 3.15973-1.81802 4.23688-.53714 1.23729-1.26275 2.68154-1.46855 3.56304-1.31907 4.02177.44649-.65095 1.92946-3.22367.78147-1.29999.75919-1.75346.96881-2.43819.52644-.82087.64632-1.43551.41442-1.23033 1.4485-1.4166-.54435 1.53609-.32503 1.73813-.30375.8781-1.34784 2.53841-1.36004 3.10118.79926-1.28051.89996-1.89579 1.32848-2.81411.19481-.5483.7786-1.85412 1.06672-2.2809-.67732 1.49998-.96847 2.59811-1.92618 4.38756-1.47445 3.75902-.46604 1.23837 1.13138-1.62852.39923-.83824.18772-1.16398 1.15016-2.51645-1.92042 4.96368-7.05983 15.60292-3.20394 6.02949-.23888.40349-11.2162 18.88676-3.43272 3.62568.77194-1.67429 1.42588-3.22582 2.15841-4.85914.85776-1.0067-.50548 1.2494-.54655 1.55456-5.7226 11.48555-2.99595 7.62363 1.08956-1.03218.92573-2.04773 1.76215-4.00553 2.84364-6.21303zm-.71811 1.62633c.53458-.65981-.25776.11362 0 0zm-2.43577 3.74403c.37124-.42692-.238.15594 0 0zm-.57733 1.17017c-.2488.47932.37473-.57842 0 0zm-2.13407 4.8019c.70169-.90337-.23111-.0693 0 0zm3.38344-4.21271c.0909.0499.16667-.32297 0 0zm-5.51648 3.65499c-1.20392 2.71975-2.83831 5.87989-4.38865 8.95006-.22244.43882-1.22684 2.26613-.70574 1.1417 1.41989-2.90825 2.77972-5.76033 4.41962-8.88818.2322-.40508.3556-.72355.67477-1.20358zm8.37511-10.68066c.4744-.26521-.58839.72237 0 0zm-10.92341 14.90696c.18367-.0194-1.0325 2.20733-.67359 1.26513.1528-.3496.32697-.73109.67359-1.26513zm11.76592-14.66226c-.0157.30418-.13763-.0289 0 0zm.30564.11238c.43619.0746-.54705 1.81603-.31407 2.13442-3.95742 6.25784-1.77151 2.93824-.006-1.19492.10519-.31176.16411-.57307.31934-.93949zm-.20917.34037c.2494.0926-.95759 1.42529 0 0zm-.44926 1.06458c.25685-.13787-.39418.53923 0 0zm-.27184.6668c-.23919.48932.0237-.18356 0 0zm-2.09436 2.96983c-.0524.20759-.19765.12577 0 0zm1.59877-1.88458c-.25137.51579.0474-.21212 0 0zm-.11333.34395c.13644.0265-.41097.53054 0 0zm-.14917.32847c.18846-.0451-.34022.45214 0 0zm-.14341.33022c.14398.002-.53362.73949 0 0z" opacity=".75" stroke-width=".048626"/></g><ellipse cx="-681.85846" cy="407.65219" fill="url(#a)" opacity=".6" rx="29.428188" ry="43.539673" transform="matrix(.94025021 .34048428 -.40155214 .91583616 865.118799 -75.275537)"/><g fill="#ae1d04" transform="matrix(.46655066 0 0 .46655066 446.02614 -114.40373)"><path d="m-829.61183 475.78473c-13.62941-11.50441 6.25233-53.62055-7.76625-51.41971-5.63382 2.10081-8.39789 9.9038-15.21891 9.9038-5.88266 1.40054-12.98118 1.50057-13.36135-6.30242-4.56307-3.20122-4.39921-14.00536 2.23893-10.10387 6.7345 2.50096 14.10309-1.40054 19.9406-4.00153 4.56309-5.60215 15.34793-10.50403 14.20008-18.10694-5.8692-5.50211-15.08462-2.30088-22.29214-2.10081-4.98061.90035-14.47744 5.70219-13.16211-3.4013-1.18366-6.90265-.76287-15.80606 8.35615-13.60522 7.46969-.10003 15.22645-2.00076 21.67209-5.5021 5.23503.30011 10.92623-17.80683 13.27125-7.70296-.46983 7.50288 9.62942 7.80299 14.60572 8.40322 5.0711.40016 15.99198 6.70257 8.77819 11.70449-3.49961 8.10311-15.38196 1.50057-20.50939 7.3028-5.45225 5.80222-4.62511 12.70487 2.85179 14.00537 4.45171 4.40168 15.77259 7.70295 20.46172 12.0046-.75544 5.70218-9.6696 12.10464-14.68813 8.30318-23.9788-13.50518-11.43285 54.02071-19.37824 50.6194zm107.89685-6.40245c-8.40856-1.90073-14.26962-1.3005-22.06951-4.60177-6.90256-2.50095-19.41015-.60023-26.72068-1.10042-6.19147 2.40092-11.85092 5.70219-18.65874 6.30242-4.24288 1.3005-12.92599 1.20046-8.28789-5.30203 4.90637-5.60215 13.13657-8.00307 13.79367-16.70641-1.5011-19.10732 9.01366-42.41625 5.01297-57.62208-.43233-6.40246-13.03159-15.80606-7.32107-21.70832 5.60611-3.30127 12.7768-1.80069 19.08014-2.70104 16.36758-.60023 32.74852.10004 49.09266 1.00038 4.23512 3.40131 13.04115-4.80184 13.93433 2.80108-2.39779 7.10272-9.21176 13.00498-9.4806 21.60828-8.05682 19.40744-4.08195 46.71791-3.06829 65.52512 2.84167 4.90187 2.4368 12.10463-5.30699 12.50479zm-7.69122-23.70909c1.04745-4.40169 1.64781-9.60368-1.8373-11.50441-6.58207-4.7018-40.84262-1.20046-37.63306 1.90073-1.59784 1.50058-1.48784 5.40207-1.3582 8.70334 2.59173 3.30126 32.76848 7.80299 40.82856.90034zm-.70441-23.30893c.73535-2.00077-.43048-8.30319 3.04578-11.70449-6.13738-5.80222-44.92668-2.20084-39.72651-1.60061.094 4.80184-1.27811 7.60291-1.42373 12.50479 10.8585 1.3005 15.16938 3.4013 38.10446.80031zm4.79053-28.91108c2.42258.10003 4.96266-6.90265 2.82911-10.30395-10.13952.30011-35.0645 1.40053-43.89483-.40016.60169 5.30204.46611 8.20315-1.54344 13.90533 12.58622-.90034 35.92726 2.90111 42.60916-3.20122z" fill="#fff" stroke-width=".585231"/><path d="m-831.97703 473.99903c-13.62941-11.57738 6.25233-53.60305-7.76625-51.47766-5.63382 2.09689-8.39789 9.91902-15.21891 9.94879-5.88266 1.43625-12.98118 1.53672-13.36135-6.26229-4.56307-3.24635-4.39921-14.09912 2.23893-10.18465 6.7345 2.48928 14.10309-1.3696 19.9406-4.00885 4.56309-5.5082 15.34793-10.41653 14.20008-18.06333-5.8692-5.45455-15.08462-2.33609-22.29214-2.04599-4.98061.81982-14.47744 5.66209-13.16211-3.47487-1.18366-6.9171-.76287-15.74662 8.35615-13.61354 7.46969-.1044 15.22645-1.90853 21.67209-5.49473 5.23503.36302 10.92623-17.73831 13.27125-7.70325-.46983 7.56505 9.62942 7.86637 14.60572 8.44352 5.0711.43708 15.99198 6.64679 8.77819 11.6835-3.49961 8.10051-15.38196 1.53346-20.50939 7.30809-5.45225 5.76331-4.62511 12.74096 2.85179 14.01736 4.45171 4.33924 15.77259 7.6576 20.46172 11.98277-.75544 5.69913-9.6696 12.12494-14.68813 8.29336-23.9788-13.53288-11.43285 54.01543-19.37824 50.65177zm107.89685-6.39847c-8.40856-1.89324-14.26962-1.33472-22.06951-4.59951-6.90256-2.58592-19.41015-.66481-26.72068-1.15462-6.19147 2.36367-11.85092 5.73008-18.65874 6.32614-4.24288 1.29564-12.92599 1.21387-8.28789-5.31511 4.90637-5.57338 13.13657-8.04819 13.79367-16.67088-1.5011-19.15546 9.01366-42.38818 5.01297-57.57828-.43233-6.40656-13.03159-15.82934-7.32107-21.74143 5.60611-3.32176 12.7768-1.81426 19.08014-2.67974 16.36758-.64813 32.74852.0389 49.09266.93871 4.23512 3.38878 13.04115-4.74623 13.93433 2.8261-2.39779 7.11332-9.21176 13.04563-9.4806 21.55807-8.05682 19.44562-4.08195 46.72173-3.06829 65.57027 2.84167 4.86135 2.4368 12.1262-5.30699 12.52028zm-7.69122-23.72297c1.04745-4.44196 1.64781-9.63743-1.8373-11.54476-6.58207-4.70393-40.84262-1.17687-37.63306 1.91261-1.59784 1.51937-1.48784 5.37559-1.3582 8.69104 2.59173 3.33688 32.76848 7.83737 40.82856.94112zm-.70441-23.36805c.73535-1.99732-.43048-8.26269 3.04578-11.69703-6.13738-5.80006-44.92668-2.10432-39.72651-1.57099.094 4.82308-1.27811 7.65623-1.42373 12.5284 10.8585 1.24592 15.16938 3.36737 38.10446.73962zm4.79053-28.84511c2.42258.11832 4.96266-6.9279 2.82911-10.29926-10.13952.2942-35.0645 1.4043-43.89483-.44651.60169 5.387.46611 8.19406-1.54344 13.95374 12.58622-.90771 35.92726 2.84206 42.60916-3.20797z" fill="#ae1d04" stroke-width=".585119"/></g></svg>