<?xml version="1.0" encoding="UTF-8" standalone="no"?>
<svg
   xmlns:dc="http://purl.org/dc/elements/1.1/"
   xmlns:cc="http://creativecommons.org/ns#"
   xmlns:rdf="http://www.w3.org/1999/02/22-rdf-syntax-ns#"
   xmlns:svg="http://www.w3.org/2000/svg"
   xmlns="http://www.w3.org/2000/svg"
   xmlns:xlink="http://www.w3.org/1999/xlink"
   xmlns:sodipodi="http://sodipodi.sourceforge.net/DTD/sodipodi-0.dtd"
   xmlns:inkscape="http://www.inkscape.org/namespaces/inkscape"
   inkscape:version="1.0 (4035a4fb49, 2020-05-01)"
   sodipodi:docname="bN.svg"
   id="svg2354"
   viewBox="0 0 50 50"
   version="1.1"
   text-rendering="geometricPrecision"
   shape-rendering="geometricPrecision"
   image-rendering="optimizeQuality"
   fill-rule="evenodd"
   clip-rule="evenodd"
   height="50mm"
   width="50mm">
  <sodipodi:namedview
     inkscape:current-layer="svg2354"
     inkscape:window-maximized="1"
     inkscape:window-y="46"
     inkscape:window-x="0"
     inkscape:cy="94.488189"
     inkscape:cx="94.488189"
     inkscape:zoom="2.8310417"
     showgrid="false"
     id="namedview2356"
     inkscape:window-height="720"
     inkscape:window-width="1362"
     inkscape:pageshadow="2"
     inkscape:pageopacity="0"
     guidetolerance="10"
     gridtolerance="10"
     objecttolerance="10"
     borderopacity="1"
     bordercolor="#666666"
     pagecolor="#ffffff" />
  <defs
     id="defs2330">
    <linearGradient
       id="linearGradient2362"
       x1="-15.796"
       x2="15.796"
       y1="316.7"
       y2="316.7"
       gradientTransform="matrix(1.0125 0 0 .9819 -59.002 -94.528)"
       gradientUnits="userSpaceOnUse">
      <stop
         style="stop-color:#969696;stop-opacity:1"
         stop-color="#969696"
         offset="0"
         id="stop2358" />
      <stop
         style="stop-color:#171a21;stop-opacity:1"
         stop-color="#171a21"
         offset="1"
         id="stop2360" />
    </linearGradient>
    <linearGradient
       xlink:href="#linearGradient2362"
       gradientUnits="userSpaceOnUse"
       gradientTransform="matrix(0.99989,0,0,1.0089,121.48,-293.01)"
       y2="315.70999"
       y1="315.70999"
       x2="-78.432999"
       x1="-115.84"
       id="linearGradient4543" />
    <linearGradient
       gradientUnits="userSpaceOnUse"
       gradientTransform="matrix(1.0125 0 0 .9819 -59.002 -94.528)"
       y2="316.7"
       y1="316.7"
       x2="15.796"
       x1="-15.796"
       id="linearGradient4563">
      <stop
         id="stop2324"
         offset="0"
         stop-color="#969696" />
      <stop
         id="stop2326"
         offset="1"
         stop-color="#171a21" />
    </linearGradient>
    <linearGradient
       xlink:href="#linearGradient2362"
       gradientUnits="userSpaceOnUse"
       gradientTransform="matrix(0.99989,0,0,1.0089,121.48,-293.01)"
       y2="299.97"
       y1="299.89999"
       x2="-78.639"
       x1="-116.32"
       id="linearGradient4545" />
  </defs>
  <metadata
     id="metadata2332">
    <rdf:RDF>
      <cc:Work
         rdf:about="">
        <dc:format>image/svg+xml</dc:format>
        <dc:type
           rdf:resource="http://purl.org/dc/dcmitype/StillImage" />
        <dc:title />
      </cc:Work>
    </rdf:RDF>
  </metadata>
  <path
     style="fill-opacity:1.0"
     id="path2334"
     stroke-width=".79998"
     stroke-linejoin="round"
     stroke-linecap="round"
     stroke-dashoffset="1.852"
     stroke="#000"
     shape-rendering="geometricPrecision"
     image-rendering="optimizeQuality"
     fill-rule="evenodd"
     fill="url(#linearGradient4543)"
     clip-rule="evenodd"
     d="m12.476 33.891c2.6134 2.2428 3.4642-0.99141 4.3884-3.1825 1.477-3.3209 6.2775-2.0307 8.2049-5.9937 2.4355 9.8074-7.435 7.8207-7.9074 18.88h25.218c1.7316-20.595-4.5283-34.868-23.498-32.88-1.8861-2.0277-4.5194-3.3154-4.5194-3.3154-1.0224 1.9425-0.91643 4.3949 0.60366 5.3316 0.39749 0.3736-3.193 1.9366-2.7117 7.3533 0 0-2.8902 4.9546-4.5762 8.2106-0.78809 1.6343-0.013798 3.8037 1.3522 4.9897 0.37286 0.58288 2.7538 1.3964 2.7538 1.1498" />
  <path
     id="path2336"
     stroke-width=".99997"
     stroke-linejoin="round"
     stroke-linecap="round"
     stroke="#040404"
     fill="none"
     d="m14.986 19.616s0.46521-2.3569 2.8288-2.7526" />
  <ellipse
     id="ellipse2338"
     style="paint-order:markers fill stroke"
     ry="1.0418"
     rx="1.0906"
     cy="21.907"
     cx="12.588"
     transform="matrix(.97288 -.23132 .19884 .98003 0 0)" />
  <g
     id="g2350"
     stroke-linecap="round"
     stroke="#000">
    <g
       id="g2346"
       stroke-linejoin="round">
      <path
         id="path2340"
         stroke-width="1.2"
         fill="#fff"
         d="m10.046 30.128s-0.049195-0.54526 0.6464-1.2575" />
      <path
         id="path2342"
         stroke-width=".79998"
         fill="none"
         d="m25.068 24.71s0.67393-1.2673 0.92759-2.5186c0.25366-1.2513 0.16103-2.4948 0.16103-2.4948" />
      <path
         id="path2344"
         style="paint-order:markers fill stroke;fill-opacity:1.0"
         stroke-width=".79998"
         fill="url(#linearGradient4545)"
         d="m18.865 11.989s0.59058-3.8601 3.531-4.517c0 0 2.0915 0.82649 1.027 5.5616" />
    </g>
    <path
       id="path2348"
       stroke-width=".79998"
       fill="none"
       d="m14.116 31.914c-0.27747 0.49027-1.3144 1.6275-2.3315 2.5169" />
  </g>
  <path
     id="path2352"
     stroke-width=".99997"
     shape-rendering="geometricPrecision"
     opacity=".2"
     image-rendering="optimizeQuality"
     fill-rule="evenodd"
     clip-rule="evenodd"
     d="m23.255 11.592c15.478 0.59833 17.487 13.912 15.945 31.993h3.1746c1.5873-18.878-3.5428-32.443-19.021-33.041z" />
</svg>
