<svg clip-rule="evenodd" fill-rule="evenodd" height="50mm" image-rendering="optimizeQuality" shape-rendering="geometricPrecision" text-rendering="geometricPrecision" viewBox="0 0 50 50" width="50mm" xmlns="http://www.w3.org/2000/svg" xmlns:xlink="http://www.w3.org/1999/xlink"><linearGradient id="a" gradientTransform="matrix(1.0555 0 0 1.0121 255.51 -290.29)" gradientUnits="userSpaceOnUse" x1="-234.85" x2="-201.95" y1="313.98" y2="313.98"><stop offset="0" stop-color="#969696"/><stop offset="1" stop-color="#171a21"/></linearGradient><g stroke="#000" stroke-linecap="round" stroke-linejoin="round" stroke-width=".79999"><path d="m21.485 27.099-5.5499-17.334-.39066 18.381-8.1633-15.685 3.006 18.724 3.1099 3.8256-2.3726 6.0778c6.7915 3.4264 20.685 3.2958 27.747.002l-.098897-.20944-2.2737-5.8684 3.1099-3.8256 3.0057-18.724-8.163 15.685-.39066-18.382-5.5504 17.334-3.5124-17.868z" fill="url(#a)"/><g fill="none"><path d="m39.484 31.184c-1.7223.19286-1.2925-1.5922-1.8114-2.4758 0 0-2.5383 1.9303-3.8245 1.6138-1.2966-.31896-2.3557-2.7469-2.3557-2.7469s-2.0126 2.3202-3.2201 2.2131c-1.4041-.12449-3.3364-3.1138-3.3364-3.1138s-1.9323 2.9894-3.3364 3.1138c-1.2075.10706-3.2201-2.2131-3.2201-2.2131s-1.0564 2.4392-2.3557 2.7469c-1.2141.28744-3.5836-1.6138-3.5836-1.6138-.39145 1.5847-.76929 2.6599-2.0524 2.4758"/><path d="m11.134 41.086c6.9341-3.4983 20.803-3.4983 27.737 0"/><path d="m13.497 35.009c6.9677-2.344 16.09-2.3737 22.99 0"/></g><ellipse cx="7.3808" cy="12.462" fill="#545559" rx="2.4743" ry="2.2787"/></g><path d="m42.614 12.462c-1.1343 4.7171-3.9738 13.507-5.257 18.189l-3.651 3.7228 2.2332 5.5587 2.9318 1.1583-2.3725-6.0779 2.9114-3.5815z" opacity=".2" stroke-width=".99998"/><g fill="#545559" stroke="#000" stroke-linecap="round" stroke-linejoin="round" stroke-width=".79999"><ellipse cx="15.935" cy="9.7585" rx="2.4743" ry="2.2787"/><ellipse cx="24.997" cy="8.1666" rx="2.4743" ry="2.2787"/><ellipse cx="34.06" cy="9.7685" rx="2.4743" ry="2.2787"/><ellipse cx="42.614" cy="12.462" rx="2.4743" ry="2.2787"/></g></svg>