<svg clip-rule="evenodd" fill-rule="evenodd" height="50mm" image-rendering="optimizeQuality" shape-rendering="geometricPrecision" text-rendering="geometricPrecision" viewBox="0 0 50 50" width="50mm" xmlns="http://www.w3.org/2000/svg" xmlns:xlink="http://www.w3.org/1999/xlink"><linearGradient id="a"><stop offset="0" stop-color="#fffefc"/><stop offset="1" stop-color="#e0e0e0"/></linearGradient><linearGradient id="b" gradientTransform="matrix(1.0267 0 0 1.027 73.282 -298.2)" gradientUnits="userSpaceOnUse" x1="-66.027" x2="-28.022" xlink:href="#a" y1="319.14" y2="319.14"/><linearGradient id="c" gradientTransform="matrix(1.0267 0 0 1.027 73.282 -298.2)" gradientUnits="userSpaceOnUse" x1="-51.119" x2="-42.93" xlink:href="#a" y1="306.88" y2="306.88"/><g stroke="#000" stroke-linecap="round" stroke-linejoin="round" stroke-width=".79998"><path d="m6.6718 19.615c-3.4364 6.8998 5.7255 11.5 5.7281 11.501l1.6897 4.1641-2.3017 5.7233c-.04446.71975 6.9075 2.5911 13.454 2.5911s13.498-1.8714 13.454-2.5911l-2.3028-5.7233 1.2121-4.1641s9.1649-4.6007 5.7281-11.501c-3.4368-7.476-14.32-4.0254-18.331 4.6005-3.6033-6.9792-14.511-12.497-18.331-4.6005z" fill="url(#b)" fill-rule="evenodd"/><g fill="none"><path d="m11.788 41.008c6.7267-3.6053 20.18-3.6053 26.907 0"/><path d="m14.089 35.277c6.7594-2.4157 15.608-2.4463 22.303 0"/><path d="m12.4 31.118c6.3011-3.4503 18.903-3.4503 25.204 0"/></g><path d="m25.001 11.882v-6.4753m-2.8641 2.3003h5.7282m-2.864 20.827s5.1553-10.325 3.437-13.776c0 0-1.1458-2.8754-3.437-2.8754-2.2913 0-3.4368 2.8754-3.4368 2.8754-1.7185 3.4504 3.4369 13.776 3.4369 13.776" fill="url(#c)" fill-rule="evenodd"/></g><path d="m25.001 11.882c-.63141 0-1.1725.2223-1.6299.53867 5.5558.5914 2.9179 12.263 1.92 15.511 1.2665-1.0394 2.8027-7.5847 3.1271-8.5196.02023-.80437.2869-4.1182.01968-4.6547 0 0-1.1457-2.8754-3.437-2.8754zm11.718 3.6375c-.46995.01386-.94847.06891-1.4304.15762 7.4111 2.6519 7.6018 10.817-.28304 14.325l-1.7114 4.3611 1.9013 5.2481 3.4983 1.3984-2.3027-5.7238 1.2123-4.164s9.1648-4.6005 5.728-11.501c-1.3474-2.931-3.8389-4.1821-6.6124-4.1003zm-24.234.2282c-.48511.0092-.95893.06593-1.4182.16931 5.7933 1.0135 11.727 7.4038 12.389 9.0121-.24009-.94653-2.2454-4.654-2.308-5.4871-1.3263-1.7226-6.6954-4.0273-8.6633-3.6944z" fill-rule="evenodd" opacity=".2" stroke-width=".99997"/></svg>