<?xml version="1.0" encoding="UTF-8" standalone="no"?>
<svg
   xmlns:dc="http://purl.org/dc/elements/1.1/"
   xmlns:cc="http://creativecommons.org/ns#"
   xmlns:rdf="http://www.w3.org/1999/02/22-rdf-syntax-ns#"
   xmlns:svg="http://www.w3.org/2000/svg"
   xmlns="http://www.w3.org/2000/svg"
   xmlns:xlink="http://www.w3.org/1999/xlink"
   xmlns:sodipodi="http://sodipodi.sourceforge.net/DTD/sodipodi-0.dtd"
   xmlns:inkscape="http://www.inkscape.org/namespaces/inkscape"
   inkscape:version="1.0 (4035a4fb49, 2020-05-01)"
   sodipodi:docname="wK.svg"
   id="svg1805"
   viewBox="0 0 50 50"
   version="1.1"
   text-rendering="geometricPrecision"
   shape-rendering="geometricPrecision"
   image-rendering="optimizeQuality"
   fill-rule="evenodd"
   clip-rule="evenodd"
   height="50mm"
   width="50mm">
  <sodipodi:namedview
     inkscape:current-layer="svg1805"
     inkscape:window-maximized="0"
     inkscape:window-y="46"
     inkscape:window-x="0"
     inkscape:cy="-282.23258"
     inkscape:cx="70.248104"
     inkscape:zoom="0.27268174"
     showgrid="false"
     id="namedview1807"
     inkscape:window-height="720"
     inkscape:window-width="1362"
     inkscape:pageshadow="2"
     inkscape:pageopacity="0"
     guidetolerance="10"
     gridtolerance="10"
     objecttolerance="10"
     borderopacity="1"
     bordercolor="#666666"
     pagecolor="#ffffff" />
  <defs
     id="defs1785">
    <linearGradient
       id="linearGradient3257">
      <stop
         id="stop1778"
         offset="0"
         stop-color="#fffefc" />
      <stop
         id="stop1780"
         offset="1"
         stop-color="#e0e0e0" />
    </linearGradient>
    <linearGradient
       xlink:href="#linearGradient3257"
       gradientUnits="userSpaceOnUse"
       gradientTransform="matrix(1.0267,0,0,1.027,73.282,-298.2)"
       y2="319.14"
       y1="319.14"
       x2="-28.022"
       x1="-66.027"
       id="linearGradient3149-6" />
    <linearGradient
       xlink:href="#linearGradient3257"
       gradientUnits="userSpaceOnUse"
       gradientTransform="matrix(1.0267,0,0,1.027,73.282,-298.2)"
       y2="306.88"
       y1="306.88"
       x2="-42.93"
       x1="-51.119"
       id="linearGradient3279-2" />
  </defs>
  <metadata
     id="metadata1787">
    <rdf:RDF>
      <cc:Work
         rdf:about="">
        <dc:format>image/svg+xml</dc:format>
        <dc:type
           rdf:resource="http://purl.org/dc/dcmitype/StillImage" />
        <dc:title />
      </cc:Work>
    </rdf:RDF>
  </metadata>
  <path
     id="path1789"
     stroke-width=".79998"
     stroke-linejoin="round"
     stroke-linecap="round"
     stroke="#000"
     fill-rule="evenodd"
     fill="url(#linearGradient3149-6)"
     d="m6.6718 19.615c-3.4364 6.8998 5.7255 11.5 5.7281 11.501l1.6897 4.1641-2.3017 5.7233c-0.04446 0.71975 6.9075 2.5911 13.454 2.5911s13.498-1.8714 13.454-2.5911l-2.3028-5.7233 1.2121-4.1641s9.1649-4.6007 5.7281-11.501c-3.4368-7.476-14.32-4.0254-18.331 4.6005-3.6033-6.9792-14.511-12.497-18.331-4.6005z" />
  <g
     id="g1797"
     stroke-width=".79998"
     stroke-linejoin="round"
     stroke-linecap="round"
     stroke="#000"
     fill="none">
    <path
       id="path1791"
       d="m11.788 41.008c6.7267-3.6053 20.18-3.6053 26.907 0" />
    <path
       id="path1793"
       d="m14.089 35.277c6.7594-2.4157 15.608-2.4463 22.303 0" />
    <path
       id="path1795"
       d="m12.4 31.118c6.3011-3.4503 18.903-3.4503 25.204 0" />
  </g>
  <path
     id="path1799"
     stroke-width=".79998"
     stroke-linejoin="round"
     stroke-linecap="round"
     stroke="#000"
     fill-rule="evenodd"
     fill="url(#linearGradient3279-2)"
     d="m25.001 11.882v-6.4753m-2.8641 2.3003h5.7282m-2.864 20.827s5.1553-10.325 3.437-13.776c0 0-1.1458-2.8754-3.437-2.8754-2.2913 0-3.4368 2.8754-3.4368 2.8754-1.7185 3.4504 3.4369 13.776 3.4369 13.776" />
  <path
     id="path1803"
     stroke-width=".99997"
     opacity=".2"
     fill-rule="evenodd"
     d="m25.001 11.882c-0.63141 0-1.1725 0.2223-1.6299 0.53867 5.5558 0.5914 2.9179 12.263 1.92 15.511 1.2665-1.0394 2.8027-7.5847 3.1271-8.5196 0.02023-0.80437 0.2869-4.1182 0.01968-4.6547 0 0-1.1457-2.8754-3.437-2.8754zm11.718 3.6375c-0.46995 0.01386-0.94847 0.06891-1.4304 0.15762 7.4111 2.6519 7.6018 10.817-0.28304 14.325l-1.7114 4.3611 1.9013 5.2481 3.4983 1.3984-2.3027-5.7238 1.2123-4.164s9.1648-4.6005 5.728-11.501c-1.3474-2.931-3.8389-4.1821-6.6124-4.1003zm-24.234 0.2282c-0.48511 0.0092-0.95893 0.06593-1.4182 0.16931 5.7933 1.0135 11.727 7.4038 12.389 9.0121-0.24009-0.94653-2.2454-4.654-2.308-5.4871-1.3263-1.7226-6.6954-4.0273-8.6633-3.6944z" />
</svg>
