<svg clip-rule="evenodd" fill-rule="evenodd" height="50mm" image-rendering="optimizeQuality" shape-rendering="geometricPrecision" text-rendering="geometricPrecision" viewBox="0 0 50 50" width="50mm" xmlns="http://www.w3.org/2000/svg" xmlns:xlink="http://www.w3.org/1999/xlink"><linearGradient id="a"><stop offset="0" stop-color="#fffefc"/><stop offset="1" stop-color="#e0e0e0"/></linearGradient><linearGradient id="b" gradientTransform="matrix(.99989 0 0 1.0089 121.48 -293.01)" gradientUnits="userSpaceOnUse" x1="-115.84" x2="-78.433" xlink:href="#a" y1="315.71" y2="315.71"/><linearGradient id="c" gradientTransform="matrix(.99989 0 0 1.0089 121.48 -293.01)" gradientUnits="userSpaceOnUse" x1="-116.32" x2="-78.639" xlink:href="#a" y1="299.9" y2="299.97"/><path d="m12.476 33.891c2.6134 2.2428 3.4642-.99141 4.3884-3.1825 1.477-3.3209 6.2775-2.0307 8.2049-5.9937 2.4355 9.8074-7.435 7.8207-7.9074 18.88h25.218c1.7316-20.595-4.5283-34.868-23.498-32.88-1.8861-2.0277-4.5194-3.3154-4.5194-3.3154-1.0224 1.9425-.91643 4.3949.60366 5.3316.39749.3736-3.193 1.9366-2.7117 7.3533 0 0-2.8902 4.9546-4.5762 8.2106-.78809 1.6343-.013798 3.8037 1.3522 4.9897.37286.58288 2.7538 1.3964 2.7538 1.1498" style="clip-rule:evenodd;fill-rule:evenodd;image-rendering:optimizeQuality;shape-rendering:geometricPrecision;stroke:#000;stroke-dashoffset:1.852;stroke-linecap:round;stroke-linejoin:round;stroke-width:.79998;fill:url(#b)"/><path d="m14.986 19.616s.46521-2.3569 2.8288-2.7526" fill="none" stroke="#040404" stroke-linecap="round" stroke-linejoin="round" stroke-width=".99997"/><ellipse cx="12.588" cy="21.907" rx="1.0906" ry="1.0418" transform="matrix(.97288 -.23132 .19884 .98003 0 0)"/><g stroke="#000" stroke-linecap="round"><g stroke-linejoin="round"><path d="m10.046 30.128s-.049195-.54526.6464-1.2575" fill="#fff" stroke-width="1.2"/><g stroke-width=".79998"><path d="m25.068 24.71s.67393-1.2673.92759-2.5186.16103-2.4948.16103-2.4948" fill="none"/><path d="m18.865 11.989s.59058-3.8601 3.531-4.517c0 0 2.0915.82649 1.027 5.5616" fill="url(#c)"/></g></g><path d="m14.116 31.914c-.27747.49027-1.3144 1.6275-2.3315 2.5169" fill="none" stroke-width=".79998"/></g><path d="m23.255 11.592c15.478.59833 17.487 13.912 15.945 31.993h3.1746c1.5873-18.878-3.5428-32.443-19.021-33.041z" style="clip-rule:evenodd;fill-rule:evenodd;image-rendering:optimizeQuality;opacity:.2;shape-rendering:geometricPrecision;stroke-width:.99997"/></svg>