<?xml version="1.0" encoding="UTF-8" standalone="no"?>
<svg
   xmlns:dc="http://purl.org/dc/elements/1.1/"
   xmlns:cc="http://creativecommons.org/ns#"
   xmlns:rdf="http://www.w3.org/1999/02/22-rdf-syntax-ns#"
   xmlns:svg="http://www.w3.org/2000/svg"
   xmlns="http://www.w3.org/2000/svg"
   xmlns:xlink="http://www.w3.org/1999/xlink"
   xmlns:sodipodi="http://sodipodi.sourceforge.net/DTD/sodipodi-0.dtd"
   xmlns:inkscape="http://www.inkscape.org/namespaces/inkscape"
   inkscape:version="1.0 (4035a4fb49, 2020-05-01)"
   sodipodi:docname="wP.svg"
   id="svg676"
   viewBox="0 0 50 50"
   version="1.1"
   text-rendering="geometricPrecision"
   shape-rendering="geometricPrecision"
   image-rendering="optimizeQuality"
   fill-rule="evenodd"
   clip-rule="evenodd"
   height="50mm"
   width="50mm">
  <metadata
     id="metadata680">
    <rdf:RDF>
      <cc:Work
         rdf:about="">
        <dc:format>image/svg+xml</dc:format>
        <dc:type
           rdf:resource="http://purl.org/dc/dcmitype/StillImage" />
        <dc:title></dc:title>
      </cc:Work>
    </rdf:RDF>
  </metadata>
  <sodipodi:namedview
     inkscape:current-layer="svg676"
     inkscape:window-maximized="1"
     inkscape:window-y="46"
     inkscape:window-x="0"
     inkscape:cy="94.276354"
     inkscape:cx="94.565805"
     inkscape:zoom="2.8310417"
     showgrid="false"
     id="namedview678"
     inkscape:window-height="720"
     inkscape:window-width="1362"
     inkscape:pageshadow="2"
     inkscape:pageopacity="0"
     guidetolerance="10"
     gridtolerance="10"
     objecttolerance="10"
     borderopacity="1"
     bordercolor="#666666"
     pagecolor="#ffffff" />
  <defs
     id="defs664">
    <linearGradient
       id="linearGradient1612">
      <stop
         style="stop-color:#fffefc;stop-opacity:1"
         stop-color="#fffefc"
         offset="0"
         id="stop1608" />
      <stop
         style="stop-color:#e0e0e0;stop-opacity:1"
         stop-color="#e0e0e0"
         offset="1"
         id="stop1610" />
    </linearGradient>
    <linearGradient
       id="linearGradient3257">
      <stop
         id="stop657"
         offset="0"
         stop-color="#fffefc" />
      <stop
         id="stop659"
         offset="1"
         stop-color="#e0e0e0" />
    </linearGradient>
    <linearGradient
       xlink:href="#linearGradient1612"
       gradientUnits="userSpaceOnUse"
       gradientTransform="matrix(.98261 0 0 .99826 400.72 -33.772)"
       y2="69.058"
       y1="69.058"
       x2="-368.87"
       x1="-395.88"
       id="linearGradient4088" />
    <linearGradient
       xlink:href="#linearGradient1612"
       gradientUnits="userSpaceOnUse"
       gradientTransform="matrix(0.9842,0,0,1.0447,399.48,14.278)"
       y2="4.6090999"
       y1="4.6090999"
       x2="-372.34"
       x1="-388.64999"
       id="linearGradient4090" />
  </defs>
  <path
     id="path666"
     style="fill:url(#linearGradient4088);stroke-linejoin:round;stroke-width:.8;stroke:#000000"
     d="m21.549 26.733c0 8.6924-10.487 9.7905-8.7009 16.867h24.298c1.7865-7.0768-8.7009-8.1749-8.7009-16.867h-3.448z" />
  <path
     id="path668"
     style="fill:#000000;opacity:.2"
     d="m21.549 26.733c-0.46496 8.1864 17.383 9.7905 15.597 16.867 2.0733-6.3995-9.2229-9.0333-8.7009-16.867z" />
  <path
     id="path670"
     style="fill:url(#linearGradient4090);stroke-width:0.8;stroke:#000000;fill-opacity:1.0"
     d="m24.997 10.9c-3.5565 2.5e-5 -6.4394 2.7302-6.4394 6.0986 0 2.0245 1.0625 3.9169 2.8334 5.0507 0 0-3.2322 0.87127-3.7606 2.9643-0.1603 0.635 0.07417 2.2474 0.07417 2.2474h14.585s0.23403-1.6124 0.07367-2.2474c-0.52837-2.093-3.7601-2.9643-3.7601-2.9643 1.7709-1.1339 2.8329-3.0262 2.8329-5.0507 0-3.3683-2.8829-6.0985-6.4394-6.0986z" />
  <path
     id="path672"
     style="fill:#000000;opacity:.2"
     d="m24.997 10.9c-0.53866 4.4e-5 -1.0618 0.06334-1.5619 0.18139 6.6532-0.12226 7.7528 7.6264 2.0436 10.968 0 0 4.2733 0.87127 4.8017 2.9643 0.16031 0.635-0.07367 2.2722-0.07367 2.2722h2.0837s0.23356-1.6372 0.07327-2.2722c-0.52838-2.093-3.7601-2.9643-3.7601-2.9643 1.7709-1.1339 2.8329-3.0262 2.8329-5.0507 0-3.3682-2.8826-6.0983-6.4389-6.0986z" />
  <path
     id="path674"
     style="fill:none;stroke-width:.8;stroke:#000000"
     d="m28.73 22.049c-1.2178 0.11044-2.4408 0.16126-3.6695 0.15896-1.2284 0-2.4514-0.04802-3.6692-0.15866" />
</svg>
