<svg clip-rule="evenodd" fill-rule="evenodd" height="50mm" image-rendering="optimizeQuality" shape-rendering="geometricPrecision" text-rendering="geometricPrecision" viewBox="0 0 50 50" width="50mm" xmlns="http://www.w3.org/2000/svg" xmlns:xlink="http://www.w3.org/1999/xlink"><linearGradient id="a"><stop offset="0" stop-color="#fffefc"/><stop offset="1" stop-color="#e0e0e0"/></linearGradient><linearGradient id="b" gradientTransform="matrix(.98261 0 0 .99826 400.72 -33.772)" gradientUnits="userSpaceOnUse" x1="-395.88" x2="-368.87" xlink:href="#a" y1="69.058" y2="69.058"/><linearGradient id="c" gradientTransform="matrix(.9842 0 0 1.0447 399.48 14.278)" gradientUnits="userSpaceOnUse" x1="-388.64999" x2="-372.34" xlink:href="#a" y1="4.6091" y2="4.6091"/><path d="m21.549 26.733c0 8.6924-10.487 9.7905-8.7009 16.867h24.298c1.7865-7.0768-8.7009-8.1749-8.7009-16.867h-3.448z" fill="url(#b)" stroke="#000" stroke-linejoin="round" stroke-width=".8"/><path d="m21.549 26.733c-.46496 8.1864 17.383 9.7905 15.597 16.867 2.0733-6.3995-9.2229-9.0333-8.7009-16.867z" opacity=".2"/><path d="m24.997 10.9c-3.5565.000025-6.4394 2.7302-6.4394 6.0986 0 2.0245 1.0625 3.9169 2.8334 5.0507 0 0-3.2322.87127-3.7606 2.9643-.1603.635.07417 2.2474.07417 2.2474h14.585s.23403-1.6124.07367-2.2474c-.52837-2.093-3.7601-2.9643-3.7601-2.9643 1.7709-1.1339 2.8329-3.0262 2.8329-5.0507 0-3.3683-2.8829-6.0985-6.4394-6.0986z" fill="url(#c)" stroke="#000" stroke-width=".8"/><path d="m24.997 10.9c-.53866.000044-1.0618.06334-1.5619.18139 6.6532-.12226 7.7528 7.6264 2.0436 10.968 0 0 4.2733.87127 4.8017 2.9643.16031.635-.07367 2.2722-.07367 2.2722h2.0837s.23356-1.6372.07327-2.2722c-.52838-2.093-3.7601-2.9643-3.7601-2.9643 1.7709-1.1339 2.8329-3.0262 2.8329-5.0507 0-3.3682-2.8826-6.0983-6.4389-6.0986z" opacity=".2"/><path d="m28.73 22.049c-1.2178.11044-2.4408.16126-3.6695.15896-1.2284 0-2.4514-.04802-3.6692-.15866" fill="none" stroke="#000" stroke-width=".8"/></svg>