<?xml version="1.0" encoding="UTF-8" standalone="no"?>
<svg
   xmlns:dc="http://purl.org/dc/elements/1.1/"
   xmlns:cc="http://creativecommons.org/ns#"
   xmlns:rdf="http://www.w3.org/1999/02/22-rdf-syntax-ns#"
   xmlns:svg="http://www.w3.org/2000/svg"
   xmlns="http://www.w3.org/2000/svg"
   xmlns:sodipodi="http://sodipodi.sourceforge.net/DTD/sodipodi-0.dtd"
   xmlns:inkscape="http://www.inkscape.org/namespaces/inkscape"
   width="50mm"
   height="50mm"
   clip-rule="evenodd"
   fill-rule="evenodd"
   image-rendering="optimizeQuality"
   shape-rendering="geometricPrecision"
   text-rendering="geometricPrecision"
   version="1.1"
   viewBox="0 0 50 50"
   id="svg2587"
   sodipodi:docname="wQ.svg"
   inkscape:version="1.0 (4035a4fb49, 2020-05-01)">
  <sodipodi:namedview
     inkscape:document-rotation="0"
     pagecolor="#ffffff"
     bordercolor="#666666"
     borderopacity="1"
     objecttolerance="10"
     gridtolerance="10"
     guidetolerance="10"
     inkscape:pageopacity="0"
     inkscape:pageshadow="2"
     inkscape:window-width="1362"
     inkscape:window-height="720"
     id="namedview2589"
     showgrid="false"
     inkscape:zoom="2.8310417"
     inkscape:cx="65.320925"
     inkscape:cy="91.256149"
     inkscape:window-x="0"
     inkscape:window-y="46"
     inkscape:window-maximized="1"
     inkscape:current-layer="svg2587" />
  <defs
     id="defs2557">
    <linearGradient
       id="linearGradient4101"
       x1="-234.85"
       x2="-201.95"
       y1="313.98"
       y2="313.98"
       gradientTransform="matrix(1.0555 0 0 1.0121 255.51 -290.29)"
       gradientUnits="userSpaceOnUse">
      <stop
         stop-color="#fffefc"
         offset="0"
         id="stop2552" />
      <stop
         stop-color="#e0e0e0"
         offset="1"
         id="stop2554" />
    </linearGradient>
  </defs>
  <metadata
     id="metadata2559">
    <rdf:RDF>
      <cc:Work
         rdf:about="">
        <dc:format>image/svg+xml</dc:format>
        <dc:type
           rdf:resource="http://purl.org/dc/dcmitype/StillImage" />
        <dc:title />
      </cc:Work>
    </rdf:RDF>
  </metadata>
  <path
     d="m21.485 27.099-5.5499-17.334-0.39066 18.381-8.1633-15.685 3.006 18.724 3.1099 3.8256-2.3726 6.0778c6.7915 3.4264 20.685 3.2958 27.747 2e-3v0l-0.098897-0.20944-2.2737-5.8684 3.1099-3.8256 3.0057-18.724-8.163 15.685-0.39066-18.382-5.5504 17.334-3.5124-17.868z"
     fill="url(#linearGradient4101)"
     stroke="#000"
     stroke-linecap="round"
     stroke-linejoin="round"
     stroke-width=".79999"
     id="path2561" />
  <g
     fill="none"
     stroke="#000"
     stroke-linecap="round"
     stroke-linejoin="round"
     stroke-width=".79999"
     id="g2569">
    <path
       d="m39.484 31.184c-1.7223 0.19286-1.2925-1.5922-1.8114-2.4758 0 0-2.5383 1.9303-3.8245 1.6138-1.2966-0.31896-2.3557-2.7469-2.3557-2.7469s-2.0126 2.3202-3.2201 2.2131c-1.4041-0.12449-3.3364-3.1138-3.3364-3.1138s-1.9323 2.9894-3.3364 3.1138c-1.2075 0.10706-3.2201-2.2131-3.2201-2.2131s-1.0564 2.4392-2.3557 2.7469c-1.2141 0.28744-3.5836-1.6138-3.5836-1.6138-0.39145 1.5847-0.76929 2.6599-2.0524 2.4758"
       id="path2563" />
    <path
       d="m11.134 41.086c6.9341-3.4983 20.803-3.4983 27.737 0"
       id="path2565" />
    <path
       d="m13.497 35.009c6.9677-2.344 16.09-2.3737 22.99 0"
       id="path2567" />
  </g>
  <ellipse
     cx="7.3808"
     cy="12.462"
     rx="2.4743"
     ry="2.2787"
     fill="#f8f1cb"
     stroke="#000"
     stroke-linecap="round"
     stroke-linejoin="round"
     stroke-width=".79999"
     style="paint-order:normal;fill:#f5f5f3;fill-opacity:1"
     id="ellipse2571" />
  <path
     d="m42.372 12.922c-1.1343 4.7171-3.7319 13.043-5.015 17.723l-3.651 3.7228 2.2332 5.5587 2.9318 1.1583-2.3725-6.0779 3.1099-3.8257z"
     opacity=".2"
     stroke-width=".99998"
     id="path2575" />
  <g
     stroke="#000"
     stroke-linecap="round"
     stroke-linejoin="round"
     stroke-width=".79999"
     id="g2585">
    <ellipse
       cx="15.935"
       cy="9.7585"
       rx="2.4743"
       ry="2.2787"
       fill="#f1eac0"
       style="paint-order:normal;fill:#f5f5f3;fill-opacity:1"
       id="ellipse2577" />
    <ellipse
       cx="24.997"
       cy="8.1666"
       rx="2.4743"
       ry="2.2787"
       fill="#eae1b2"
       style="paint-order:normal;fill:#f5f5f3;fill-opacity:1"
       id="ellipse2579" />
    <ellipse
       cx="34.06"
       cy="9.7685"
       rx="2.4743"
       ry="2.2787"
       fill="#e3d8a5"
       style="paint-order:normal;fill:#f5f5f3;fill-opacity:1"
       id="ellipse2581" />
    <ellipse
       cx="42.614"
       cy="12.462"
       rx="2.4743"
       ry="2.2787"
       fill="#ddd19a"
       style="paint-order:normal;fill:#f5f5f3;fill-opacity:1"
       id="ellipse2583" />
  </g>
</svg>
