<svg clip-rule="evenodd" fill-rule="evenodd" height="50mm" image-rendering="optimizeQuality" shape-rendering="geometricPrecision" text-rendering="geometricPrecision" viewBox="0 0 50 50" width="50mm" xmlns="http://www.w3.org/2000/svg" xmlns:xlink="http://www.w3.org/1999/xlink"><linearGradient id="a" gradientUnits="userSpaceOnUse" x1="9.747" x2="40.25336" y1="26.0027" y2="26.0027"><stop offset="0" stop-color="#fffefc"/><stop offset="1" stop-color="#e0e0e0"/></linearGradient><g clip-rule="evenodd" fill-rule="evenodd" image-rendering="optimizeQuality" shape-rendering="geometricPrecision"><path d="m12.949 39.284h24.168m-24.174-4.1049h24.114m-19.753-3.8049h15.392m-15.306-11.914h15.22m-20.192-4.1899h25.164m-25.164-6.8649v6.865l4.972 4.19-.08581 11.914-4.3616 3.8048v4.105h-2.7957v4.3154h29.706v-4.3154h-2.7957v-4.105l-4.3616-3.8048-.08571-11.914 4.9719-4.19v-6.865h-4.5665v2.6376h-5.1587v-2.6376h-5.7128v2.6376h-5.1587v-2.6376z" fill="url(#a)" stroke="#000" stroke-linecap="round" stroke-linejoin="round" stroke-width=".8"/><path d="m34.458 8.4062v7.3943l-4.9718 3.6608.08541 11.914 4.3611 3.8042.000511.000515v4.1049h2.7958v4.3154h3.1243v-4.3154h-2.7958v-4.1049l-.000512-.000515-4.3611-3.8042-.08541-11.914 4.9718-3.6608v-7.3943z" opacity=".2"/></g></svg>